ISO-10303-21;
HEADER;
/* Generated by software containing ST-Developer
 * from STEP Tools, Inc. (www.steptools.com) 
 */

FILE_DESCRIPTION(
/* description */ (''),
/* implementation_level */ '2;1');

FILE_NAME(
/* name */ 'EINSAT 01.step .step',
/* time_stamp */ '2023-05-14T19:44:50+05:30',
/* author */ (''),
/* organization */ (''),
/* preprocessor_version */ 'ST-DEVELOPER v19.2',
/* originating_system */ 'Autodesk Translation Framework v12.4.0.73',
/* authorisation */ '');

FILE_SCHEMA (('AUTOMOTIVE_DESIGN { 1 0 10303 214 3 1 1 }'));
ENDSEC;

DATA;
#10=MECHANICAL_DESIGN_GEOMETRIC_PRESENTATION_REPRESENTATION('',(#15,#16),
#1299);
#11=SHAPE_REPRESENTATION_RELATIONSHIP('SRR','None',#1306,#12);
#12=ADVANCED_BREP_SHAPE_REPRESENTATION('',(#17),#1298);
#13=OPEN_SHELL('',(#815,#816,#817,#818));
#14=SHELL_BASED_SURFACE_MODEL('Body2',(#13));
#15=STYLED_ITEM('',(#1315),#17);
#16=STYLED_ITEM('',(#1315),#14);
#17=MANIFOLD_SOLID_BREP('Body1',#819);
#18=CYLINDRICAL_SURFACE('',#862,38.);
#19=FACE_BOUND('',#73,.T.);
#20=FACE_BOUND('',#101,.T.);
#21=FACE_BOUND('',#102,.T.);
#22=FACE_BOUND('',#103,.T.);
#23=FACE_BOUND('',#104,.T.);
#24=FACE_BOUND('',#105,.T.);
#25=FACE_BOUND('',#114,.T.);
#26=FACE_BOUND('',#115,.T.);
#27=FACE_BOUND('',#116,.T.);
#28=FACE_BOUND('',#117,.T.);
#29=FACE_BOUND('',#118,.T.);
#30=CIRCLE('',#834,38.);
#31=CIRCLE('',#863,38.);
#32=FACE_OUTER_BOUND('',#72,.T.);
#33=FACE_OUTER_BOUND('',#74,.T.);
#34=FACE_OUTER_BOUND('',#75,.T.);
#35=FACE_OUTER_BOUND('',#76,.T.);
#36=FACE_OUTER_BOUND('',#77,.T.);
#37=FACE_OUTER_BOUND('',#78,.T.);
#38=FACE_OUTER_BOUND('',#79,.T.);
#39=FACE_OUTER_BOUND('',#80,.T.);
#40=FACE_OUTER_BOUND('',#81,.T.);
#41=FACE_OUTER_BOUND('',#82,.T.);
#42=FACE_OUTER_BOUND('',#83,.T.);
#43=FACE_OUTER_BOUND('',#84,.T.);
#44=FACE_OUTER_BOUND('',#85,.T.);
#45=FACE_OUTER_BOUND('',#86,.T.);
#46=FACE_OUTER_BOUND('',#87,.T.);
#47=FACE_OUTER_BOUND('',#88,.T.);
#48=FACE_OUTER_BOUND('',#89,.T.);
#49=FACE_OUTER_BOUND('',#90,.T.);
#50=FACE_OUTER_BOUND('',#91,.T.);
#51=FACE_OUTER_BOUND('',#92,.T.);
#52=FACE_OUTER_BOUND('',#93,.T.);
#53=FACE_OUTER_BOUND('',#94,.T.);
#54=FACE_OUTER_BOUND('',#95,.T.);
#55=FACE_OUTER_BOUND('',#96,.T.);
#56=FACE_OUTER_BOUND('',#97,.T.);
#57=FACE_OUTER_BOUND('',#98,.T.);
#58=FACE_OUTER_BOUND('',#99,.T.);
#59=FACE_OUTER_BOUND('',#100,.T.);
#60=FACE_OUTER_BOUND('',#106,.T.);
#61=FACE_OUTER_BOUND('',#107,.T.);
#62=FACE_OUTER_BOUND('',#108,.T.);
#63=FACE_OUTER_BOUND('',#109,.T.);
#64=FACE_OUTER_BOUND('',#110,.T.);
#65=FACE_OUTER_BOUND('',#111,.T.);
#66=FACE_OUTER_BOUND('',#112,.T.);
#67=FACE_OUTER_BOUND('',#113,.T.);
#68=FACE_OUTER_BOUND('',#119,.T.);
#69=FACE_OUTER_BOUND('',#120,.T.);
#70=FACE_OUTER_BOUND('',#121,.T.);
#71=FACE_OUTER_BOUND('',#122,.T.);
#72=EDGE_LOOP('',(#526,#527,#528,#529,#530,#531,#532,#533,#534,#535,#536,
#537));
#73=EDGE_LOOP('',(#538));
#74=EDGE_LOOP('',(#539,#540,#541,#542));
#75=EDGE_LOOP('',(#543,#544,#545,#546));
#76=EDGE_LOOP('',(#547,#548,#549,#550));
#77=EDGE_LOOP('',(#551,#552,#553,#554));
#78=EDGE_LOOP('',(#555,#556,#557,#558));
#79=EDGE_LOOP('',(#559,#560,#561,#562));
#80=EDGE_LOOP('',(#563,#564,#565,#566));
#81=EDGE_LOOP('',(#567,#568,#569,#570));
#82=EDGE_LOOP('',(#571,#572,#573,#574));
#83=EDGE_LOOP('',(#575,#576,#577,#578));
#84=EDGE_LOOP('',(#579,#580,#581,#582));
#85=EDGE_LOOP('',(#583,#584,#585,#586));
#86=EDGE_LOOP('',(#587,#588,#589,#590));
#87=EDGE_LOOP('',(#591,#592,#593,#594));
#88=EDGE_LOOP('',(#595,#596,#597,#598));
#89=EDGE_LOOP('',(#599,#600,#601,#602));
#90=EDGE_LOOP('',(#603,#604,#605,#606));
#91=EDGE_LOOP('',(#607,#608,#609,#610));
#92=EDGE_LOOP('',(#611,#612,#613,#614));
#93=EDGE_LOOP('',(#615,#616,#617,#618));
#94=EDGE_LOOP('',(#619,#620,#621,#622));
#95=EDGE_LOOP('',(#623,#624,#625,#626));
#96=EDGE_LOOP('',(#627,#628,#629,#630));
#97=EDGE_LOOP('',(#631,#632,#633,#634));
#98=EDGE_LOOP('',(#635,#636,#637,#638));
#99=EDGE_LOOP('',(#639,#640,#641,#642));
#100=EDGE_LOOP('',(#643,#644,#645,#646));
#101=EDGE_LOOP('',(#647,#648,#649,#650));
#102=EDGE_LOOP('',(#651,#652,#653,#654));
#103=EDGE_LOOP('',(#655,#656,#657,#658));
#104=EDGE_LOOP('',(#659,#660,#661,#662));
#105=EDGE_LOOP('',(#663,#664,#665,#666,#667,#668,#669,#670,#671,#672,#673,
#674));
#106=EDGE_LOOP('',(#675,#676,#677,#678));
#107=EDGE_LOOP('',(#679,#680,#681,#682));
#108=EDGE_LOOP('',(#683,#684,#685,#686));
#109=EDGE_LOOP('',(#687,#688,#689,#690));
#110=EDGE_LOOP('',(#691,#692,#693,#694));
#111=EDGE_LOOP('',(#695,#696,#697,#698));
#112=EDGE_LOOP('',(#699,#700,#701,#702));
#113=EDGE_LOOP('',(#703,#704,#705,#706));
#114=EDGE_LOOP('',(#707,#708,#709,#710));
#115=EDGE_LOOP('',(#711,#712,#713,#714));
#116=EDGE_LOOP('',(#715,#716,#717,#718));
#117=EDGE_LOOP('',(#719,#720,#721,#722));
#118=EDGE_LOOP('',(#723));
#119=EDGE_LOOP('',(#724,#725,#726,#727));
#120=EDGE_LOOP('',(#728,#729,#730,#731));
#121=EDGE_LOOP('',(#732,#733,#734,#735));
#122=EDGE_LOOP('',(#736,#737,#738,#739));
#123=LINE('',#1074,#232);
#124=LINE('',#1076,#233);
#125=LINE('',#1078,#234);
#126=LINE('',#1080,#235);
#127=LINE('',#1082,#236);
#128=LINE('',#1084,#237);
#129=LINE('',#1086,#238);
#130=LINE('',#1088,#239);
#131=LINE('',#1090,#240);
#132=LINE('',#1092,#241);
#133=LINE('',#1094,#242);
#134=LINE('',#1095,#243);
#135=LINE('',#1101,#244);
#136=LINE('',#1103,#245);
#137=LINE('',#1105,#246);
#138=LINE('',#1106,#247);
#139=LINE('',#1109,#248);
#140=LINE('',#1111,#249);
#141=LINE('',#1112,#250);
#142=LINE('',#1116,#251);
#143=LINE('',#1118,#252);
#144=LINE('',#1120,#253);
#145=LINE('',#1121,#254);
#146=LINE('',#1124,#255);
#147=LINE('',#1126,#256);
#148=LINE('',#1127,#257);
#149=LINE('',#1131,#258);
#150=LINE('',#1133,#259);
#151=LINE('',#1135,#260);
#152=LINE('',#1136,#261);
#153=LINE('',#1140,#262);
#154=LINE('',#1141,#263);
#155=LINE('',#1142,#264);
#156=LINE('',#1145,#265);
#157=LINE('',#1147,#266);
#158=LINE('',#1148,#267);
#159=LINE('',#1152,#268);
#160=LINE('',#1154,#269);
#161=LINE('',#1156,#270);
#162=LINE('',#1157,#271);
#163=LINE('',#1160,#272);
#164=LINE('',#1162,#273);
#165=LINE('',#1163,#274);
#166=LINE('',#1167,#275);
#167=LINE('',#1168,#276);
#168=LINE('',#1169,#277);
#169=LINE('',#1172,#278);
#170=LINE('',#1174,#279);
#171=LINE('',#1175,#280);
#172=LINE('',#1177,#281);
#173=LINE('',#1178,#282);
#174=LINE('',#1181,#283);
#175=LINE('',#1183,#284);
#176=LINE('',#1184,#285);
#177=LINE('',#1187,#286);
#178=LINE('',#1189,#287);
#179=LINE('',#1190,#288);
#180=LINE('',#1193,#289);
#181=LINE('',#1195,#290);
#182=LINE('',#1196,#291);
#183=LINE('',#1199,#292);
#184=LINE('',#1201,#293);
#185=LINE('',#1202,#294);
#186=LINE('',#1205,#295);
#187=LINE('',#1207,#296);
#188=LINE('',#1208,#297);
#189=LINE('',#1210,#298);
#190=LINE('',#1211,#299);
#191=LINE('',#1214,#300);
#192=LINE('',#1215,#301);
#193=LINE('',#1217,#302);
#194=LINE('',#1220,#303);
#195=LINE('',#1221,#304);
#196=LINE('',#1223,#305);
#197=LINE('',#1226,#306);
#198=LINE('',#1227,#307);
#199=LINE('',#1229,#308);
#200=LINE('',#1232,#309);
#201=LINE('',#1233,#310);
#202=LINE('',#1235,#311);
#203=LINE('',#1239,#312);
#204=LINE('',#1241,#313);
#205=LINE('',#1243,#314);
#206=LINE('',#1244,#315);
#207=LINE('',#1245,#316);
#208=LINE('',#1246,#317);
#209=LINE('',#1249,#318);
#210=LINE('',#1253,#319);
#211=LINE('',#1255,#320);
#212=LINE('',#1256,#321);
#213=LINE('',#1258,#322);
#214=LINE('',#1261,#323);
#215=LINE('',#1262,#324);
#216=LINE('',#1264,#325);
#217=LINE('',#1267,#326);
#218=LINE('',#1268,#327);
#219=LINE('',#1270,#328);
#220=LINE('',#1275,#329);
#221=LINE('',#1277,#330);
#222=LINE('',#1279,#331);
#223=LINE('',#1280,#332);
#224=LINE('',#1283,#333);
#225=LINE('',#1285,#334);
#226=LINE('',#1286,#335);
#227=LINE('',#1289,#336);
#228=LINE('',#1291,#337);
#229=LINE('',#1292,#338);
#230=LINE('',#1294,#339);
#231=LINE('',#1295,#340);
#232=VECTOR('',#879,10.);
#233=VECTOR('',#880,10.);
#234=VECTOR('',#881,10.);
#235=VECTOR('',#882,10.);
#236=VECTOR('',#883,10.);
#237=VECTOR('',#884,10.);
#238=VECTOR('',#885,10.);
#239=VECTOR('',#886,10.);
#240=VECTOR('',#887,10.);
#241=VECTOR('',#888,10.);
#242=VECTOR('',#889,10.);
#243=VECTOR('',#890,10.);
#244=VECTOR('',#895,10.);
#245=VECTOR('',#896,10.);
#246=VECTOR('',#897,10.);
#247=VECTOR('',#898,10.);
#248=VECTOR('',#901,10.);
#249=VECTOR('',#902,10.);
#250=VECTOR('',#903,10.);
#251=VECTOR('',#906,10.);
#252=VECTOR('',#907,10.);
#253=VECTOR('',#908,10.);
#254=VECTOR('',#909,10.);
#255=VECTOR('',#912,10.);
#256=VECTOR('',#913,10.);
#257=VECTOR('',#914,10.);
#258=VECTOR('',#917,10.);
#259=VECTOR('',#918,10.);
#260=VECTOR('',#919,10.);
#261=VECTOR('',#920,10.);
#262=VECTOR('',#923,10.);
#263=VECTOR('',#924,10.);
#264=VECTOR('',#925,10.);
#265=VECTOR('',#928,10.);
#266=VECTOR('',#929,10.);
#267=VECTOR('',#930,10.);
#268=VECTOR('',#933,10.);
#269=VECTOR('',#934,10.);
#270=VECTOR('',#935,10.);
#271=VECTOR('',#936,10.);
#272=VECTOR('',#939,10.);
#273=VECTOR('',#940,10.);
#274=VECTOR('',#941,10.);
#275=VECTOR('',#944,10.);
#276=VECTOR('',#945,10.);
#277=VECTOR('',#946,10.);
#278=VECTOR('',#949,10.);
#279=VECTOR('',#950,10.);
#280=VECTOR('',#951,10.);
#281=VECTOR('',#954,10.);
#282=VECTOR('',#955,10.);
#283=VECTOR('',#958,10.);
#284=VECTOR('',#959,10.);
#285=VECTOR('',#960,10.);
#286=VECTOR('',#963,10.);
#287=VECTOR('',#964,10.);
#288=VECTOR('',#965,10.);
#289=VECTOR('',#968,10.);
#290=VECTOR('',#969,10.);
#291=VECTOR('',#970,10.);
#292=VECTOR('',#973,10.);
#293=VECTOR('',#974,10.);
#294=VECTOR('',#975,10.);
#295=VECTOR('',#978,10.);
#296=VECTOR('',#979,10.);
#297=VECTOR('',#980,10.);
#298=VECTOR('',#983,10.);
#299=VECTOR('',#984,10.);
#300=VECTOR('',#987,10.);
#301=VECTOR('',#988,10.);
#302=VECTOR('',#991,10.);
#303=VECTOR('',#994,10.);
#304=VECTOR('',#995,10.);
#305=VECTOR('',#998,10.);
#306=VECTOR('',#1001,10.);
#307=VECTOR('',#1002,10.);
#308=VECTOR('',#1005,10.);
#309=VECTOR('',#1008,10.);
#310=VECTOR('',#1009,10.);
#311=VECTOR('',#1012,10.);
#312=VECTOR('',#1015,10.);
#313=VECTOR('',#1016,10.);
#314=VECTOR('',#1017,10.);
#315=VECTOR('',#1018,10.);
#316=VECTOR('',#1019,10.);
#317=VECTOR('',#1020,10.);
#318=VECTOR('',#1023,38.);
#319=VECTOR('',#1028,10.);
#320=VECTOR('',#1029,10.);
#321=VECTOR('',#1030,10.);
#322=VECTOR('',#1033,10.);
#323=VECTOR('',#1036,10.);
#324=VECTOR('',#1037,10.);
#325=VECTOR('',#1040,10.);
#326=VECTOR('',#1043,10.);
#327=VECTOR('',#1044,10.);
#328=VECTOR('',#1047,10.);
#329=VECTOR('',#1052,10.);
#330=VECTOR('',#1053,10.);
#331=VECTOR('',#1054,10.);
#332=VECTOR('',#1055,10.);
#333=VECTOR('',#1058,10.);
#334=VECTOR('',#1059,10.);
#335=VECTOR('',#1060,10.);
#336=VECTOR('',#1063,10.);
#337=VECTOR('',#1064,10.);
#338=VECTOR('',#1065,10.);
#339=VECTOR('',#1068,10.);
#340=VECTOR('',#1069,10.);
#341=VERTEX_POINT('',#1072);
#342=VERTEX_POINT('',#1073);
#343=VERTEX_POINT('',#1075);
#344=VERTEX_POINT('',#1077);
#345=VERTEX_POINT('',#1079);
#346=VERTEX_POINT('',#1081);
#347=VERTEX_POINT('',#1083);
#348=VERTEX_POINT('',#1085);
#349=VERTEX_POINT('',#1087);
#350=VERTEX_POINT('',#1089);
#351=VERTEX_POINT('',#1091);
#352=VERTEX_POINT('',#1093);
#353=VERTEX_POINT('',#1096);
#354=VERTEX_POINT('',#1099);
#355=VERTEX_POINT('',#1100);
#356=VERTEX_POINT('',#1102);
#357=VERTEX_POINT('',#1104);
#358=VERTEX_POINT('',#1108);
#359=VERTEX_POINT('',#1110);
#360=VERTEX_POINT('',#1114);
#361=VERTEX_POINT('',#1115);
#362=VERTEX_POINT('',#1117);
#363=VERTEX_POINT('',#1119);
#364=VERTEX_POINT('',#1123);
#365=VERTEX_POINT('',#1125);
#366=VERTEX_POINT('',#1129);
#367=VERTEX_POINT('',#1130);
#368=VERTEX_POINT('',#1132);
#369=VERTEX_POINT('',#1134);
#370=VERTEX_POINT('',#1138);
#371=VERTEX_POINT('',#1139);
#372=VERTEX_POINT('',#1144);
#373=VERTEX_POINT('',#1146);
#374=VERTEX_POINT('',#1150);
#375=VERTEX_POINT('',#1151);
#376=VERTEX_POINT('',#1153);
#377=VERTEX_POINT('',#1155);
#378=VERTEX_POINT('',#1159);
#379=VERTEX_POINT('',#1161);
#380=VERTEX_POINT('',#1165);
#381=VERTEX_POINT('',#1166);
#382=VERTEX_POINT('',#1171);
#383=VERTEX_POINT('',#1173);
#384=VERTEX_POINT('',#1180);
#385=VERTEX_POINT('',#1182);
#386=VERTEX_POINT('',#1186);
#387=VERTEX_POINT('',#1188);
#388=VERTEX_POINT('',#1192);
#389=VERTEX_POINT('',#1194);
#390=VERTEX_POINT('',#1198);
#391=VERTEX_POINT('',#1200);
#392=VERTEX_POINT('',#1204);
#393=VERTEX_POINT('',#1206);
#394=VERTEX_POINT('',#1213);
#395=VERTEX_POINT('',#1219);
#396=VERTEX_POINT('',#1225);
#397=VERTEX_POINT('',#1231);
#398=VERTEX_POINT('',#1237);
#399=VERTEX_POINT('',#1238);
#400=VERTEX_POINT('',#1240);
#401=VERTEX_POINT('',#1242);
#402=VERTEX_POINT('',#1248);
#403=VERTEX_POINT('',#1252);
#404=VERTEX_POINT('',#1254);
#405=VERTEX_POINT('',#1260);
#406=VERTEX_POINT('',#1266);
#407=VERTEX_POINT('',#1273);
#408=VERTEX_POINT('',#1274);
#409=VERTEX_POINT('',#1276);
#410=VERTEX_POINT('',#1278);
#411=VERTEX_POINT('',#1282);
#412=VERTEX_POINT('',#1284);
#413=VERTEX_POINT('',#1288);
#414=VERTEX_POINT('',#1290);
#415=EDGE_CURVE('',#341,#342,#123,.T.);
#416=EDGE_CURVE('',#342,#343,#124,.T.);
#417=EDGE_CURVE('',#343,#344,#125,.T.);
#418=EDGE_CURVE('',#344,#345,#126,.T.);
#419=EDGE_CURVE('',#345,#346,#127,.T.);
#420=EDGE_CURVE('',#346,#347,#128,.T.);
#421=EDGE_CURVE('',#347,#348,#129,.T.);
#422=EDGE_CURVE('',#348,#349,#130,.T.);
#423=EDGE_CURVE('',#349,#350,#131,.T.);
#424=EDGE_CURVE('',#350,#351,#132,.T.);
#425=EDGE_CURVE('',#351,#352,#133,.T.);
#426=EDGE_CURVE('',#352,#341,#134,.T.);
#427=EDGE_CURVE('',#353,#353,#30,.T.);
#428=EDGE_CURVE('',#354,#355,#135,.T.);
#429=EDGE_CURVE('',#356,#354,#136,.T.);
#430=EDGE_CURVE('',#356,#357,#137,.T.);
#431=EDGE_CURVE('',#355,#357,#138,.T.);
#432=EDGE_CURVE('',#358,#343,#139,.T.);
#433=EDGE_CURVE('',#359,#358,#140,.T.);
#434=EDGE_CURVE('',#359,#344,#141,.T.);
#435=EDGE_CURVE('',#360,#361,#142,.T.);
#436=EDGE_CURVE('',#362,#360,#143,.T.);
#437=EDGE_CURVE('',#362,#363,#144,.T.);
#438=EDGE_CURVE('',#361,#363,#145,.T.);
#439=EDGE_CURVE('',#364,#346,#146,.T.);
#440=EDGE_CURVE('',#365,#364,#147,.T.);
#441=EDGE_CURVE('',#365,#347,#148,.T.);
#442=EDGE_CURVE('',#366,#367,#149,.T.);
#443=EDGE_CURVE('',#368,#366,#150,.T.);
#444=EDGE_CURVE('',#368,#369,#151,.T.);
#445=EDGE_CURVE('',#367,#369,#152,.T.);
#446=EDGE_CURVE('',#370,#371,#153,.T.);
#447=EDGE_CURVE('',#369,#371,#154,.T.);
#448=EDGE_CURVE('',#370,#368,#155,.T.);
#449=EDGE_CURVE('',#372,#349,#156,.T.);
#450=EDGE_CURVE('',#373,#372,#157,.T.);
#451=EDGE_CURVE('',#373,#350,#158,.T.);
#452=EDGE_CURVE('',#374,#375,#159,.T.);
#453=EDGE_CURVE('',#376,#374,#160,.T.);
#454=EDGE_CURVE('',#376,#377,#161,.T.);
#455=EDGE_CURVE('',#375,#377,#162,.T.);
#456=EDGE_CURVE('',#378,#341,#163,.T.);
#457=EDGE_CURVE('',#379,#352,#164,.T.);
#458=EDGE_CURVE('',#378,#379,#165,.T.);
#459=EDGE_CURVE('',#380,#381,#166,.T.);
#460=EDGE_CURVE('',#377,#381,#167,.T.);
#461=EDGE_CURVE('',#380,#376,#168,.T.);
#462=EDGE_CURVE('',#382,#380,#169,.T.);
#463=EDGE_CURVE('',#382,#383,#170,.T.);
#464=EDGE_CURVE('',#381,#383,#171,.T.);
#465=EDGE_CURVE('',#374,#382,#172,.T.);
#466=EDGE_CURVE('',#383,#375,#173,.T.);
#467=EDGE_CURVE('',#354,#384,#174,.T.);
#468=EDGE_CURVE('',#385,#355,#175,.T.);
#469=EDGE_CURVE('',#384,#385,#176,.T.);
#470=EDGE_CURVE('',#384,#386,#177,.T.);
#471=EDGE_CURVE('',#387,#385,#178,.T.);
#472=EDGE_CURVE('',#386,#387,#179,.T.);
#473=EDGE_CURVE('',#360,#388,#180,.T.);
#474=EDGE_CURVE('',#389,#361,#181,.T.);
#475=EDGE_CURVE('',#388,#389,#182,.T.);
#476=EDGE_CURVE('',#388,#390,#183,.T.);
#477=EDGE_CURVE('',#391,#389,#184,.T.);
#478=EDGE_CURVE('',#390,#391,#185,.T.);
#479=EDGE_CURVE('',#392,#370,#186,.T.);
#480=EDGE_CURVE('',#392,#393,#187,.T.);
#481=EDGE_CURVE('',#371,#393,#188,.T.);
#482=EDGE_CURVE('',#366,#392,#189,.T.);
#483=EDGE_CURVE('',#393,#367,#190,.T.);
#484=EDGE_CURVE('',#394,#365,#191,.T.);
#485=EDGE_CURVE('',#394,#348,#192,.T.);
#486=EDGE_CURVE('',#372,#394,#193,.T.);
#487=EDGE_CURVE('',#395,#373,#194,.T.);
#488=EDGE_CURVE('',#395,#351,#195,.T.);
#489=EDGE_CURVE('',#379,#395,#196,.T.);
#490=EDGE_CURVE('',#396,#378,#197,.T.);
#491=EDGE_CURVE('',#396,#342,#198,.T.);
#492=EDGE_CURVE('',#358,#396,#199,.T.);
#493=EDGE_CURVE('',#397,#359,#200,.T.);
#494=EDGE_CURVE('',#397,#345,#201,.T.);
#495=EDGE_CURVE('',#364,#397,#202,.T.);
#496=EDGE_CURVE('',#398,#399,#203,.T.);
#497=EDGE_CURVE('',#399,#400,#204,.T.);
#498=EDGE_CURVE('',#400,#401,#205,.T.);
#499=EDGE_CURVE('',#401,#398,#206,.T.);
#500=EDGE_CURVE('',#386,#356,#207,.T.);
#501=EDGE_CURVE('',#390,#362,#208,.T.);
#502=EDGE_CURVE('',#353,#402,#209,.T.);
#503=EDGE_CURVE('',#402,#402,#31,.T.);
#504=EDGE_CURVE('',#403,#401,#210,.T.);
#505=EDGE_CURVE('',#404,#403,#211,.T.);
#506=EDGE_CURVE('',#404,#398,#212,.T.);
#507=EDGE_CURVE('',#363,#391,#213,.T.);
#508=EDGE_CURVE('',#405,#399,#214,.T.);
#509=EDGE_CURVE('',#405,#404,#215,.T.);
#510=EDGE_CURVE('',#357,#387,#216,.T.);
#511=EDGE_CURVE('',#406,#400,#217,.T.);
#512=EDGE_CURVE('',#403,#406,#218,.T.);
#513=EDGE_CURVE('',#406,#405,#219,.T.);
#514=EDGE_CURVE('',#407,#408,#220,.T.);
#515=EDGE_CURVE('',#408,#409,#221,.T.);
#516=EDGE_CURVE('',#410,#409,#222,.T.);
#517=EDGE_CURVE('',#407,#410,#223,.T.);
#518=EDGE_CURVE('',#411,#407,#224,.T.);
#519=EDGE_CURVE('',#412,#410,#225,.T.);
#520=EDGE_CURVE('',#411,#412,#226,.T.);
#521=EDGE_CURVE('',#413,#411,#227,.T.);
#522=EDGE_CURVE('',#414,#412,#228,.T.);
#523=EDGE_CURVE('',#413,#414,#229,.T.);
#524=EDGE_CURVE('',#408,#413,#230,.T.);
#525=EDGE_CURVE('',#409,#414,#231,.T.);
#526=ORIENTED_EDGE('',*,*,#415,.T.);
#527=ORIENTED_EDGE('',*,*,#416,.T.);
#528=ORIENTED_EDGE('',*,*,#417,.T.);
#529=ORIENTED_EDGE('',*,*,#418,.T.);
#530=ORIENTED_EDGE('',*,*,#419,.T.);
#531=ORIENTED_EDGE('',*,*,#420,.T.);
#532=ORIENTED_EDGE('',*,*,#421,.T.);
#533=ORIENTED_EDGE('',*,*,#422,.T.);
#534=ORIENTED_EDGE('',*,*,#423,.T.);
#535=ORIENTED_EDGE('',*,*,#424,.T.);
#536=ORIENTED_EDGE('',*,*,#425,.T.);
#537=ORIENTED_EDGE('',*,*,#426,.T.);
#538=ORIENTED_EDGE('',*,*,#427,.T.);
#539=ORIENTED_EDGE('',*,*,#428,.F.);
#540=ORIENTED_EDGE('',*,*,#429,.F.);
#541=ORIENTED_EDGE('',*,*,#430,.T.);
#542=ORIENTED_EDGE('',*,*,#431,.F.);
#543=ORIENTED_EDGE('',*,*,#432,.F.);
#544=ORIENTED_EDGE('',*,*,#433,.F.);
#545=ORIENTED_EDGE('',*,*,#434,.T.);
#546=ORIENTED_EDGE('',*,*,#417,.F.);
#547=ORIENTED_EDGE('',*,*,#435,.F.);
#548=ORIENTED_EDGE('',*,*,#436,.F.);
#549=ORIENTED_EDGE('',*,*,#437,.T.);
#550=ORIENTED_EDGE('',*,*,#438,.F.);
#551=ORIENTED_EDGE('',*,*,#439,.F.);
#552=ORIENTED_EDGE('',*,*,#440,.F.);
#553=ORIENTED_EDGE('',*,*,#441,.T.);
#554=ORIENTED_EDGE('',*,*,#420,.F.);
#555=ORIENTED_EDGE('',*,*,#442,.F.);
#556=ORIENTED_EDGE('',*,*,#443,.F.);
#557=ORIENTED_EDGE('',*,*,#444,.T.);
#558=ORIENTED_EDGE('',*,*,#445,.F.);
#559=ORIENTED_EDGE('',*,*,#446,.T.);
#560=ORIENTED_EDGE('',*,*,#447,.F.);
#561=ORIENTED_EDGE('',*,*,#444,.F.);
#562=ORIENTED_EDGE('',*,*,#448,.F.);
#563=ORIENTED_EDGE('',*,*,#449,.F.);
#564=ORIENTED_EDGE('',*,*,#450,.F.);
#565=ORIENTED_EDGE('',*,*,#451,.T.);
#566=ORIENTED_EDGE('',*,*,#423,.F.);
#567=ORIENTED_EDGE('',*,*,#452,.F.);
#568=ORIENTED_EDGE('',*,*,#453,.F.);
#569=ORIENTED_EDGE('',*,*,#454,.T.);
#570=ORIENTED_EDGE('',*,*,#455,.F.);
#571=ORIENTED_EDGE('',*,*,#456,.T.);
#572=ORIENTED_EDGE('',*,*,#426,.F.);
#573=ORIENTED_EDGE('',*,*,#457,.F.);
#574=ORIENTED_EDGE('',*,*,#458,.F.);
#575=ORIENTED_EDGE('',*,*,#459,.T.);
#576=ORIENTED_EDGE('',*,*,#460,.F.);
#577=ORIENTED_EDGE('',*,*,#454,.F.);
#578=ORIENTED_EDGE('',*,*,#461,.F.);
#579=ORIENTED_EDGE('',*,*,#462,.F.);
#580=ORIENTED_EDGE('',*,*,#463,.T.);
#581=ORIENTED_EDGE('',*,*,#464,.F.);
#582=ORIENTED_EDGE('',*,*,#459,.F.);
#583=ORIENTED_EDGE('',*,*,#465,.F.);
#584=ORIENTED_EDGE('',*,*,#452,.T.);
#585=ORIENTED_EDGE('',*,*,#466,.F.);
#586=ORIENTED_EDGE('',*,*,#463,.F.);
#587=ORIENTED_EDGE('',*,*,#467,.F.);
#588=ORIENTED_EDGE('',*,*,#428,.T.);
#589=ORIENTED_EDGE('',*,*,#468,.F.);
#590=ORIENTED_EDGE('',*,*,#469,.F.);
#591=ORIENTED_EDGE('',*,*,#470,.F.);
#592=ORIENTED_EDGE('',*,*,#469,.T.);
#593=ORIENTED_EDGE('',*,*,#471,.F.);
#594=ORIENTED_EDGE('',*,*,#472,.F.);
#595=ORIENTED_EDGE('',*,*,#473,.F.);
#596=ORIENTED_EDGE('',*,*,#435,.T.);
#597=ORIENTED_EDGE('',*,*,#474,.F.);
#598=ORIENTED_EDGE('',*,*,#475,.F.);
#599=ORIENTED_EDGE('',*,*,#476,.F.);
#600=ORIENTED_EDGE('',*,*,#475,.T.);
#601=ORIENTED_EDGE('',*,*,#477,.F.);
#602=ORIENTED_EDGE('',*,*,#478,.F.);
#603=ORIENTED_EDGE('',*,*,#479,.F.);
#604=ORIENTED_EDGE('',*,*,#480,.T.);
#605=ORIENTED_EDGE('',*,*,#481,.F.);
#606=ORIENTED_EDGE('',*,*,#446,.F.);
#607=ORIENTED_EDGE('',*,*,#482,.F.);
#608=ORIENTED_EDGE('',*,*,#442,.T.);
#609=ORIENTED_EDGE('',*,*,#483,.F.);
#610=ORIENTED_EDGE('',*,*,#480,.F.);
#611=ORIENTED_EDGE('',*,*,#484,.F.);
#612=ORIENTED_EDGE('',*,*,#485,.T.);
#613=ORIENTED_EDGE('',*,*,#421,.F.);
#614=ORIENTED_EDGE('',*,*,#441,.F.);
#615=ORIENTED_EDGE('',*,*,#486,.F.);
#616=ORIENTED_EDGE('',*,*,#449,.T.);
#617=ORIENTED_EDGE('',*,*,#422,.F.);
#618=ORIENTED_EDGE('',*,*,#485,.F.);
#619=ORIENTED_EDGE('',*,*,#487,.F.);
#620=ORIENTED_EDGE('',*,*,#488,.T.);
#621=ORIENTED_EDGE('',*,*,#424,.F.);
#622=ORIENTED_EDGE('',*,*,#451,.F.);
#623=ORIENTED_EDGE('',*,*,#489,.F.);
#624=ORIENTED_EDGE('',*,*,#457,.T.);
#625=ORIENTED_EDGE('',*,*,#425,.F.);
#626=ORIENTED_EDGE('',*,*,#488,.F.);
#627=ORIENTED_EDGE('',*,*,#490,.F.);
#628=ORIENTED_EDGE('',*,*,#491,.T.);
#629=ORIENTED_EDGE('',*,*,#415,.F.);
#630=ORIENTED_EDGE('',*,*,#456,.F.);
#631=ORIENTED_EDGE('',*,*,#492,.F.);
#632=ORIENTED_EDGE('',*,*,#432,.T.);
#633=ORIENTED_EDGE('',*,*,#416,.F.);
#634=ORIENTED_EDGE('',*,*,#491,.F.);
#635=ORIENTED_EDGE('',*,*,#493,.F.);
#636=ORIENTED_EDGE('',*,*,#494,.T.);
#637=ORIENTED_EDGE('',*,*,#418,.F.);
#638=ORIENTED_EDGE('',*,*,#434,.F.);
#639=ORIENTED_EDGE('',*,*,#495,.F.);
#640=ORIENTED_EDGE('',*,*,#439,.T.);
#641=ORIENTED_EDGE('',*,*,#419,.F.);
#642=ORIENTED_EDGE('',*,*,#494,.F.);
#643=ORIENTED_EDGE('',*,*,#496,.T.);
#644=ORIENTED_EDGE('',*,*,#497,.T.);
#645=ORIENTED_EDGE('',*,*,#498,.T.);
#646=ORIENTED_EDGE('',*,*,#499,.T.);
#647=ORIENTED_EDGE('',*,*,#453,.T.);
#648=ORIENTED_EDGE('',*,*,#465,.T.);
#649=ORIENTED_EDGE('',*,*,#462,.T.);
#650=ORIENTED_EDGE('',*,*,#461,.T.);
#651=ORIENTED_EDGE('',*,*,#467,.T.);
#652=ORIENTED_EDGE('',*,*,#470,.T.);
#653=ORIENTED_EDGE('',*,*,#500,.T.);
#654=ORIENTED_EDGE('',*,*,#429,.T.);
#655=ORIENTED_EDGE('',*,*,#473,.T.);
#656=ORIENTED_EDGE('',*,*,#476,.T.);
#657=ORIENTED_EDGE('',*,*,#501,.T.);
#658=ORIENTED_EDGE('',*,*,#436,.T.);
#659=ORIENTED_EDGE('',*,*,#443,.T.);
#660=ORIENTED_EDGE('',*,*,#482,.T.);
#661=ORIENTED_EDGE('',*,*,#479,.T.);
#662=ORIENTED_EDGE('',*,*,#448,.T.);
#663=ORIENTED_EDGE('',*,*,#484,.T.);
#664=ORIENTED_EDGE('',*,*,#440,.T.);
#665=ORIENTED_EDGE('',*,*,#495,.T.);
#666=ORIENTED_EDGE('',*,*,#493,.T.);
#667=ORIENTED_EDGE('',*,*,#433,.T.);
#668=ORIENTED_EDGE('',*,*,#492,.T.);
#669=ORIENTED_EDGE('',*,*,#490,.T.);
#670=ORIENTED_EDGE('',*,*,#458,.T.);
#671=ORIENTED_EDGE('',*,*,#489,.T.);
#672=ORIENTED_EDGE('',*,*,#487,.T.);
#673=ORIENTED_EDGE('',*,*,#450,.T.);
#674=ORIENTED_EDGE('',*,*,#486,.T.);
#675=ORIENTED_EDGE('',*,*,#427,.F.);
#676=ORIENTED_EDGE('',*,*,#502,.T.);
#677=ORIENTED_EDGE('',*,*,#503,.F.);
#678=ORIENTED_EDGE('',*,*,#502,.F.);
#679=ORIENTED_EDGE('',*,*,#504,.F.);
#680=ORIENTED_EDGE('',*,*,#505,.F.);
#681=ORIENTED_EDGE('',*,*,#506,.T.);
#682=ORIENTED_EDGE('',*,*,#499,.F.);
#683=ORIENTED_EDGE('',*,*,#478,.T.);
#684=ORIENTED_EDGE('',*,*,#507,.F.);
#685=ORIENTED_EDGE('',*,*,#437,.F.);
#686=ORIENTED_EDGE('',*,*,#501,.F.);
#687=ORIENTED_EDGE('',*,*,#508,.T.);
#688=ORIENTED_EDGE('',*,*,#496,.F.);
#689=ORIENTED_EDGE('',*,*,#506,.F.);
#690=ORIENTED_EDGE('',*,*,#509,.F.);
#691=ORIENTED_EDGE('',*,*,#472,.T.);
#692=ORIENTED_EDGE('',*,*,#510,.F.);
#693=ORIENTED_EDGE('',*,*,#430,.F.);
#694=ORIENTED_EDGE('',*,*,#500,.F.);
#695=ORIENTED_EDGE('',*,*,#511,.F.);
#696=ORIENTED_EDGE('',*,*,#512,.F.);
#697=ORIENTED_EDGE('',*,*,#504,.T.);
#698=ORIENTED_EDGE('',*,*,#498,.F.);
#699=ORIENTED_EDGE('',*,*,#508,.F.);
#700=ORIENTED_EDGE('',*,*,#513,.F.);
#701=ORIENTED_EDGE('',*,*,#511,.T.);
#702=ORIENTED_EDGE('',*,*,#497,.F.);
#703=ORIENTED_EDGE('',*,*,#513,.T.);
#704=ORIENTED_EDGE('',*,*,#509,.T.);
#705=ORIENTED_EDGE('',*,*,#505,.T.);
#706=ORIENTED_EDGE('',*,*,#512,.T.);
#707=ORIENTED_EDGE('',*,*,#455,.T.);
#708=ORIENTED_EDGE('',*,*,#460,.T.);
#709=ORIENTED_EDGE('',*,*,#464,.T.);
#710=ORIENTED_EDGE('',*,*,#466,.T.);
#711=ORIENTED_EDGE('',*,*,#438,.T.);
#712=ORIENTED_EDGE('',*,*,#507,.T.);
#713=ORIENTED_EDGE('',*,*,#477,.T.);
#714=ORIENTED_EDGE('',*,*,#474,.T.);
#715=ORIENTED_EDGE('',*,*,#431,.T.);
#716=ORIENTED_EDGE('',*,*,#510,.T.);
#717=ORIENTED_EDGE('',*,*,#471,.T.);
#718=ORIENTED_EDGE('',*,*,#468,.T.);
#719=ORIENTED_EDGE('',*,*,#445,.T.);
#720=ORIENTED_EDGE('',*,*,#447,.T.);
#721=ORIENTED_EDGE('',*,*,#481,.T.);
#722=ORIENTED_EDGE('',*,*,#483,.T.);
#723=ORIENTED_EDGE('',*,*,#503,.T.);
#724=ORIENTED_EDGE('',*,*,#514,.T.);
#725=ORIENTED_EDGE('',*,*,#515,.T.);
#726=ORIENTED_EDGE('',*,*,#516,.F.);
#727=ORIENTED_EDGE('',*,*,#517,.F.);
#728=ORIENTED_EDGE('',*,*,#518,.T.);
#729=ORIENTED_EDGE('',*,*,#517,.T.);
#730=ORIENTED_EDGE('',*,*,#519,.F.);
#731=ORIENTED_EDGE('',*,*,#520,.F.);
#732=ORIENTED_EDGE('',*,*,#521,.T.);
#733=ORIENTED_EDGE('',*,*,#520,.T.);
#734=ORIENTED_EDGE('',*,*,#522,.F.);
#735=ORIENTED_EDGE('',*,*,#523,.F.);
#736=ORIENTED_EDGE('',*,*,#524,.T.);
#737=ORIENTED_EDGE('',*,*,#523,.T.);
#738=ORIENTED_EDGE('',*,*,#525,.F.);
#739=ORIENTED_EDGE('',*,*,#515,.F.);
#740=PLANE('',#833);
#741=PLANE('',#835);
#742=PLANE('',#836);
#743=PLANE('',#837);
#744=PLANE('',#838);
#745=PLANE('',#839);
#746=PLANE('',#840);
#747=PLANE('',#841);
#748=PLANE('',#842);
#749=PLANE('',#843);
#750=PLANE('',#844);
#751=PLANE('',#845);
#752=PLANE('',#846);
#753=PLANE('',#847);
#754=PLANE('',#848);
#755=PLANE('',#849);
#756=PLANE('',#850);
#757=PLANE('',#851);
#758=PLANE('',#852);
#759=PLANE('',#853);
#760=PLANE('',#854);
#761=PLANE('',#855);
#762=PLANE('',#856);
#763=PLANE('',#857);
#764=PLANE('',#858);
#765=PLANE('',#859);
#766=PLANE('',#860);
#767=PLANE('',#861);
#768=PLANE('',#864);
#769=PLANE('',#865);
#770=PLANE('',#866);
#771=PLANE('',#867);
#772=PLANE('',#868);
#773=PLANE('',#869);
#774=PLANE('',#870);
#775=PLANE('',#871);
#776=PLANE('',#872);
#777=PLANE('',#873);
#778=PLANE('',#874);
#779=ADVANCED_FACE('',(#32,#19),#740,.T.);
#780=ADVANCED_FACE('',(#33),#741,.T.);
#781=ADVANCED_FACE('',(#34),#742,.T.);
#782=ADVANCED_FACE('',(#35),#743,.T.);
#783=ADVANCED_FACE('',(#36),#744,.T.);
#784=ADVANCED_FACE('',(#37),#745,.T.);
#785=ADVANCED_FACE('',(#38),#746,.T.);
#786=ADVANCED_FACE('',(#39),#747,.T.);
#787=ADVANCED_FACE('',(#40),#748,.T.);
#788=ADVANCED_FACE('',(#41),#749,.T.);
#789=ADVANCED_FACE('',(#42),#750,.T.);
#790=ADVANCED_FACE('',(#43),#751,.F.);
#791=ADVANCED_FACE('',(#44),#752,.F.);
#792=ADVANCED_FACE('',(#45),#753,.F.);
#793=ADVANCED_FACE('',(#46),#754,.F.);
#794=ADVANCED_FACE('',(#47),#755,.F.);
#795=ADVANCED_FACE('',(#48),#756,.F.);
#796=ADVANCED_FACE('',(#49),#757,.F.);
#797=ADVANCED_FACE('',(#50),#758,.F.);
#798=ADVANCED_FACE('',(#51),#759,.F.);
#799=ADVANCED_FACE('',(#52),#760,.F.);
#800=ADVANCED_FACE('',(#53),#761,.F.);
#801=ADVANCED_FACE('',(#54),#762,.F.);
#802=ADVANCED_FACE('',(#55),#763,.F.);
#803=ADVANCED_FACE('',(#56),#764,.F.);
#804=ADVANCED_FACE('',(#57),#765,.F.);
#805=ADVANCED_FACE('',(#58),#766,.F.);
#806=ADVANCED_FACE('',(#59,#20,#21,#22,#23,#24),#767,.T.);
#807=ADVANCED_FACE('',(#60),#18,.F.);
#808=ADVANCED_FACE('',(#61),#768,.T.);
#809=ADVANCED_FACE('',(#62),#769,.T.);
#810=ADVANCED_FACE('',(#63),#770,.T.);
#811=ADVANCED_FACE('',(#64),#771,.T.);
#812=ADVANCED_FACE('',(#65),#772,.T.);
#813=ADVANCED_FACE('',(#66),#773,.T.);
#814=ADVANCED_FACE('',(#67,#25,#26,#27,#28,#29),#774,.F.);
#815=ADVANCED_FACE('',(#68),#775,.T.);
#816=ADVANCED_FACE('',(#69),#776,.T.);
#817=ADVANCED_FACE('',(#70),#777,.T.);
#818=ADVANCED_FACE('',(#71),#778,.T.);
#819=CLOSED_SHELL('',(#779,#780,#781,#782,#783,#784,#785,#786,#787,#788,
#789,#790,#791,#792,#793,#794,#795,#796,#797,#798,#799,#800,#801,#802,#803,
#804,#805,#806,#807,#808,#809,#810,#811,#812,#813,#814));
#820=DERIVED_UNIT_ELEMENT(#822,1.);
#821=DERIVED_UNIT_ELEMENT(#1301,-3.);
#822=(
MASS_UNIT()
NAMED_UNIT(*)
SI_UNIT(.KILO.,.GRAM.)
);
#823=DERIVED_UNIT((#820,#821));
#824=MEASURE_REPRESENTATION_ITEM('density measure',
POSITIVE_RATIO_MEASURE(7850.),#823);
#825=PROPERTY_DEFINITION_REPRESENTATION(#830,#827);
#826=PROPERTY_DEFINITION_REPRESENTATION(#831,#828);
#827=REPRESENTATION('material name',(#829),#1298);
#828=REPRESENTATION('density',(#824),#1298);
#829=DESCRIPTIVE_REPRESENTATION_ITEM('Steel','Steel');
#830=PROPERTY_DEFINITION('material property','material name',#1308);
#831=PROPERTY_DEFINITION('material property','density of part',#1308);
#832=AXIS2_PLACEMENT_3D('',#1070,#875,#876);
#833=AXIS2_PLACEMENT_3D('',#1071,#877,#878);
#834=AXIS2_PLACEMENT_3D('',#1097,#891,#892);
#835=AXIS2_PLACEMENT_3D('',#1098,#893,#894);
#836=AXIS2_PLACEMENT_3D('',#1107,#899,#900);
#837=AXIS2_PLACEMENT_3D('',#1113,#904,#905);
#838=AXIS2_PLACEMENT_3D('',#1122,#910,#911);
#839=AXIS2_PLACEMENT_3D('',#1128,#915,#916);
#840=AXIS2_PLACEMENT_3D('',#1137,#921,#922);
#841=AXIS2_PLACEMENT_3D('',#1143,#926,#927);
#842=AXIS2_PLACEMENT_3D('',#1149,#931,#932);
#843=AXIS2_PLACEMENT_3D('',#1158,#937,#938);
#844=AXIS2_PLACEMENT_3D('',#1164,#942,#943);
#845=AXIS2_PLACEMENT_3D('',#1170,#947,#948);
#846=AXIS2_PLACEMENT_3D('',#1176,#952,#953);
#847=AXIS2_PLACEMENT_3D('',#1179,#956,#957);
#848=AXIS2_PLACEMENT_3D('',#1185,#961,#962);
#849=AXIS2_PLACEMENT_3D('',#1191,#966,#967);
#850=AXIS2_PLACEMENT_3D('',#1197,#971,#972);
#851=AXIS2_PLACEMENT_3D('',#1203,#976,#977);
#852=AXIS2_PLACEMENT_3D('',#1209,#981,#982);
#853=AXIS2_PLACEMENT_3D('',#1212,#985,#986);
#854=AXIS2_PLACEMENT_3D('',#1216,#989,#990);
#855=AXIS2_PLACEMENT_3D('',#1218,#992,#993);
#856=AXIS2_PLACEMENT_3D('',#1222,#996,#997);
#857=AXIS2_PLACEMENT_3D('',#1224,#999,#1000);
#858=AXIS2_PLACEMENT_3D('',#1228,#1003,#1004);
#859=AXIS2_PLACEMENT_3D('',#1230,#1006,#1007);
#860=AXIS2_PLACEMENT_3D('',#1234,#1010,#1011);
#861=AXIS2_PLACEMENT_3D('',#1236,#1013,#1014);
#862=AXIS2_PLACEMENT_3D('',#1247,#1021,#1022);
#863=AXIS2_PLACEMENT_3D('',#1250,#1024,#1025);
#864=AXIS2_PLACEMENT_3D('',#1251,#1026,#1027);
#865=AXIS2_PLACEMENT_3D('',#1257,#1031,#1032);
#866=AXIS2_PLACEMENT_3D('',#1259,#1034,#1035);
#867=AXIS2_PLACEMENT_3D('',#1263,#1038,#1039);
#868=AXIS2_PLACEMENT_3D('',#1265,#1041,#1042);
#869=AXIS2_PLACEMENT_3D('',#1269,#1045,#1046);
#870=AXIS2_PLACEMENT_3D('',#1271,#1048,#1049);
#871=AXIS2_PLACEMENT_3D('',#1272,#1050,#1051);
#872=AXIS2_PLACEMENT_3D('',#1281,#1056,#1057);
#873=AXIS2_PLACEMENT_3D('',#1287,#1061,#1062);
#874=AXIS2_PLACEMENT_3D('',#1293,#1066,#1067);
#875=DIRECTION('axis',(0.,0.,1.));
#876=DIRECTION('refdir',(1.,0.,0.));
#877=DIRECTION('center_axis',(0.,0.,1.));
#878=DIRECTION('ref_axis',(1.,0.,0.));
#879=DIRECTION('',(0.,-1.,0.));
#880=DIRECTION('',(-1.,0.,0.));
#881=DIRECTION('',(0.,-1.,0.));
#882=DIRECTION('',(1.,0.,0.));
#883=DIRECTION('',(0.,-1.,0.));
#884=DIRECTION('',(1.,0.,0.));
#885=DIRECTION('',(0.,1.,0.));
#886=DIRECTION('',(1.,0.,0.));
#887=DIRECTION('',(0.,1.,0.));
#888=DIRECTION('',(-1.,0.,0.));
#889=DIRECTION('',(0.,1.,0.));
#890=DIRECTION('',(-1.,0.,0.));
#891=DIRECTION('center_axis',(0.,0.,-1.));
#892=DIRECTION('ref_axis',(1.,0.,0.));
#893=DIRECTION('center_axis',(0.,-1.,0.));
#894=DIRECTION('ref_axis',(0.,0.,-1.));
#895=DIRECTION('',(0.,0.,-1.));
#896=DIRECTION('',(1.,0.,0.));
#897=DIRECTION('',(0.,0.,-1.));
#898=DIRECTION('',(-1.,0.,0.));
#899=DIRECTION('center_axis',(1.,0.,0.));
#900=DIRECTION('ref_axis',(0.,0.,-1.));
#901=DIRECTION('',(0.,0.,-1.));
#902=DIRECTION('',(0.,1.,0.));
#903=DIRECTION('',(0.,0.,-1.));
#904=DIRECTION('center_axis',(1.,0.,0.));
#905=DIRECTION('ref_axis',(0.,0.,-1.));
#906=DIRECTION('',(0.,0.,-1.));
#907=DIRECTION('',(0.,1.,0.));
#908=DIRECTION('',(0.,0.,-1.));
#909=DIRECTION('',(0.,-1.,0.));
#910=DIRECTION('center_axis',(0.,1.,0.));
#911=DIRECTION('ref_axis',(0.,0.,1.));
#912=DIRECTION('',(0.,0.,-1.));
#913=DIRECTION('',(-1.,0.,0.));
#914=DIRECTION('',(0.,0.,-1.));
#915=DIRECTION('center_axis',(0.,1.,0.));
#916=DIRECTION('ref_axis',(0.,0.,1.));
#917=DIRECTION('',(0.,0.,-1.));
#918=DIRECTION('',(-1.,0.,0.));
#919=DIRECTION('',(0.,0.,-1.));
#920=DIRECTION('',(1.,0.,0.));
#921=DIRECTION('center_axis',(-1.,0.,0.));
#922=DIRECTION('ref_axis',(0.,0.,1.));
#923=DIRECTION('',(0.,0.,-1.));
#924=DIRECTION('',(0.,1.,0.));
#925=DIRECTION('',(0.,-1.,0.));
#926=DIRECTION('center_axis',(-1.,0.,0.));
#927=DIRECTION('ref_axis',(0.,0.,1.));
#928=DIRECTION('',(0.,0.,-1.));
#929=DIRECTION('',(0.,-1.,0.));
#930=DIRECTION('',(0.,0.,-1.));
#931=DIRECTION('center_axis',(-1.,0.,0.));
#932=DIRECTION('ref_axis',(0.,0.,1.));
#933=DIRECTION('',(0.,0.,-1.));
#934=DIRECTION('',(0.,-1.,0.));
#935=DIRECTION('',(0.,0.,-1.));
#936=DIRECTION('',(0.,1.,0.));
#937=DIRECTION('center_axis',(0.,-1.,0.));
#938=DIRECTION('ref_axis',(0.,0.,-1.));
#939=DIRECTION('',(0.,0.,-1.));
#940=DIRECTION('',(0.,0.,-1.));
#941=DIRECTION('',(1.,0.,0.));
#942=DIRECTION('center_axis',(0.,-1.,0.));
#943=DIRECTION('ref_axis',(0.,0.,-1.));
#944=DIRECTION('',(0.,0.,-1.));
#945=DIRECTION('',(-1.,0.,0.));
#946=DIRECTION('',(1.,0.,0.));
#947=DIRECTION('center_axis',(-1.,0.,0.));
#948=DIRECTION('ref_axis',(0.,1.,0.));
#949=DIRECTION('',(0.,1.,0.));
#950=DIRECTION('',(0.,0.,-1.));
#951=DIRECTION('',(0.,-1.,0.));
#952=DIRECTION('center_axis',(0.,-1.,0.));
#953=DIRECTION('ref_axis',(-1.,0.,0.));
#954=DIRECTION('',(-1.,0.,0.));
#955=DIRECTION('',(1.,0.,0.));
#956=DIRECTION('center_axis',(1.,0.,0.));
#957=DIRECTION('ref_axis',(0.,-1.,0.));
#958=DIRECTION('',(0.,-1.,0.));
#959=DIRECTION('',(0.,1.,0.));
#960=DIRECTION('',(0.,0.,-1.));
#961=DIRECTION('center_axis',(0.,-1.,0.));
#962=DIRECTION('ref_axis',(-1.,0.,0.));
#963=DIRECTION('',(-1.,0.,0.));
#964=DIRECTION('',(1.,0.,0.));
#965=DIRECTION('',(0.,0.,-1.));
#966=DIRECTION('center_axis',(0.,1.,0.));
#967=DIRECTION('ref_axis',(1.,0.,0.));
#968=DIRECTION('',(1.,0.,0.));
#969=DIRECTION('',(-1.,0.,0.));
#970=DIRECTION('',(0.,0.,-1.));
#971=DIRECTION('center_axis',(1.,0.,0.));
#972=DIRECTION('ref_axis',(0.,-1.,0.));
#973=DIRECTION('',(0.,-1.,0.));
#974=DIRECTION('',(0.,1.,0.));
#975=DIRECTION('',(0.,0.,-1.));
#976=DIRECTION('center_axis',(0.,1.,0.));
#977=DIRECTION('ref_axis',(1.,0.,0.));
#978=DIRECTION('',(1.,0.,0.));
#979=DIRECTION('',(0.,0.,-1.));
#980=DIRECTION('',(-1.,0.,0.));
#981=DIRECTION('center_axis',(-1.,0.,0.));
#982=DIRECTION('ref_axis',(0.,1.,0.));
#983=DIRECTION('',(0.,1.,0.));
#984=DIRECTION('',(0.,-1.,0.));
#985=DIRECTION('center_axis',(1.,0.,0.));
#986=DIRECTION('ref_axis',(0.,-1.,0.));
#987=DIRECTION('',(0.,-1.,0.));
#988=DIRECTION('',(0.,0.,-1.));
#989=DIRECTION('center_axis',(0.,-1.,0.));
#990=DIRECTION('ref_axis',(-1.,0.,0.));
#991=DIRECTION('',(-1.,0.,0.));
#992=DIRECTION('center_axis',(0.,1.,0.));
#993=DIRECTION('ref_axis',(1.,0.,0.));
#994=DIRECTION('',(1.,0.,0.));
#995=DIRECTION('',(0.,0.,-1.));
#996=DIRECTION('center_axis',(1.,0.,0.));
#997=DIRECTION('ref_axis',(0.,-1.,0.));
#998=DIRECTION('',(0.,-1.,0.));
#999=DIRECTION('center_axis',(-1.,0.,0.));
#1000=DIRECTION('ref_axis',(0.,1.,0.));
#1001=DIRECTION('',(0.,1.,0.));
#1002=DIRECTION('',(0.,0.,-1.));
#1003=DIRECTION('center_axis',(0.,1.,0.));
#1004=DIRECTION('ref_axis',(1.,0.,0.));
#1005=DIRECTION('',(1.,0.,0.));
#1006=DIRECTION('center_axis',(0.,-1.,0.));
#1007=DIRECTION('ref_axis',(-1.,0.,0.));
#1008=DIRECTION('',(-1.,0.,0.));
#1009=DIRECTION('',(0.,0.,-1.));
#1010=DIRECTION('center_axis',(-1.,0.,0.));
#1011=DIRECTION('ref_axis',(0.,1.,0.));
#1012=DIRECTION('',(0.,1.,0.));
#1013=DIRECTION('center_axis',(0.,0.,1.));
#1014=DIRECTION('ref_axis',(1.,0.,0.));
#1015=DIRECTION('',(0.,-1.,0.));
#1016=DIRECTION('',(1.,0.,0.));
#1017=DIRECTION('',(0.,1.,0.));
#1018=DIRECTION('',(-1.,0.,0.));
#1019=DIRECTION('',(0.,1.,0.));
#1020=DIRECTION('',(-1.,0.,0.));
#1021=DIRECTION('center_axis',(0.,0.,-1.));
#1022=DIRECTION('ref_axis',(1.,0.,0.));
#1023=DIRECTION('',(0.,0.,-1.));
#1024=DIRECTION('center_axis',(0.,0.,1.));
#1025=DIRECTION('ref_axis',(1.,0.,0.));
#1026=DIRECTION('center_axis',(0.,1.,0.));
#1027=DIRECTION('ref_axis',(-1.,0.,0.));
#1028=DIRECTION('',(0.,0.,1.));
#1029=DIRECTION('',(1.,0.,0.));
#1030=DIRECTION('',(0.,0.,1.));
#1031=DIRECTION('center_axis',(0.,1.,0.));
#1032=DIRECTION('ref_axis',(0.,0.,1.));
#1033=DIRECTION('',(1.,0.,0.));
#1034=DIRECTION('center_axis',(-1.,0.,0.));
#1035=DIRECTION('ref_axis',(0.,-1.,0.));
#1036=DIRECTION('',(0.,0.,1.));
#1037=DIRECTION('',(0.,1.,0.));
#1038=DIRECTION('center_axis',(1.,0.,0.));
#1039=DIRECTION('ref_axis',(0.,0.,-1.));
#1040=DIRECTION('',(0.,-1.,0.));
#1041=DIRECTION('center_axis',(1.,0.,0.));
#1042=DIRECTION('ref_axis',(0.,1.,0.));
#1043=DIRECTION('',(0.,0.,1.));
#1044=DIRECTION('',(0.,-1.,0.));
#1045=DIRECTION('center_axis',(0.,-1.,0.));
#1046=DIRECTION('ref_axis',(1.,0.,0.));
#1047=DIRECTION('',(-1.,0.,0.));
#1048=DIRECTION('center_axis',(0.,0.,1.));
#1049=DIRECTION('ref_axis',(1.,0.,0.));
#1050=DIRECTION('center_axis',(-1.,0.,0.));
#1051=DIRECTION('ref_axis',(0.,-1.,0.));
#1052=DIRECTION('',(0.,-1.,0.));
#1053=DIRECTION('',(0.,0.,1.));
#1054=DIRECTION('',(0.,-1.,0.));
#1055=DIRECTION('',(0.,0.,1.));
#1056=DIRECTION('center_axis',(0.,1.,0.));
#1057=DIRECTION('ref_axis',(-1.,0.,0.));
#1058=DIRECTION('',(-1.,0.,0.));
#1059=DIRECTION('',(-1.,0.,0.));
#1060=DIRECTION('',(0.,0.,1.));
#1061=DIRECTION('center_axis',(1.,0.,0.));
#1062=DIRECTION('ref_axis',(0.,1.,0.));
#1063=DIRECTION('',(0.,1.,0.));
#1064=DIRECTION('',(0.,1.,0.));
#1065=DIRECTION('',(0.,0.,1.));
#1066=DIRECTION('center_axis',(0.,-1.,0.));
#1067=DIRECTION('ref_axis',(1.,0.,0.));
#1068=DIRECTION('',(1.,0.,0.));
#1069=DIRECTION('',(1.,0.,0.));
#1070=CARTESIAN_POINT('',(0.,0.,0.));
#1071=CARTESIAN_POINT('Origin',(0.,0.,1.5));
#1072=CARTESIAN_POINT('',(-38.0000005662441,48.5,1.49999999999999));
#1073=CARTESIAN_POINT('',(-38.0000005662441,38.0000005662441,1.49999999999999));
#1074=CARTESIAN_POINT('',(-38.0000005662441,24.25,1.5));
#1075=CARTESIAN_POINT('',(-48.5,38.0000005662441,1.49999999999999));
#1076=CARTESIAN_POINT('',(-19.0000002831221,38.0000005662441,1.5));
#1077=CARTESIAN_POINT('',(-48.5,-38.0000005662441,1.49999999999999));
#1078=CARTESIAN_POINT('',(-48.5,25.,1.5));
#1079=CARTESIAN_POINT('',(-38.0000005662441,-38.0000005662441,1.49999999999999));
#1080=CARTESIAN_POINT('',(-24.25,-38.0000005662441,1.5));
#1081=CARTESIAN_POINT('',(-38.0000005662441,-48.5,1.49999999999999));
#1082=CARTESIAN_POINT('',(-38.0000005662441,-19.0000002831221,1.5));
#1083=CARTESIAN_POINT('',(38.0000005662441,-48.5,1.49999999999999));
#1084=CARTESIAN_POINT('',(-25.,-48.5,1.5));
#1085=CARTESIAN_POINT('',(38.0000005662441,-38.0000005662441,1.49999999999999));
#1086=CARTESIAN_POINT('',(38.0000005662441,-24.25,1.5));
#1087=CARTESIAN_POINT('',(48.5,-38.0000005662441,1.49999999999999));
#1088=CARTESIAN_POINT('',(19.0000002831221,-38.0000005662441,1.5));
#1089=CARTESIAN_POINT('',(48.5,38.0000005662441,1.49999999999999));
#1090=CARTESIAN_POINT('',(48.5,-25.,1.5));
#1091=CARTESIAN_POINT('',(38.0000005662441,38.0000005662441,1.49999999999999));
#1092=CARTESIAN_POINT('',(24.25,38.0000005662441,1.5));
#1093=CARTESIAN_POINT('',(38.0000005662441,48.5,1.49999999999999));
#1094=CARTESIAN_POINT('',(38.0000005662441,19.0000002831221,1.5));
#1095=CARTESIAN_POINT('',(25.,48.5,1.5));
#1096=CARTESIAN_POINT('',(-38.,4.65365783675994E-15,1.5));
#1097=CARTESIAN_POINT('Origin',(0.,0.,1.5));
#1098=CARTESIAN_POINT('Origin',(50.,48.5,1.5));
#1099=CARTESIAN_POINT('',(-39.5,48.5,300.));
#1100=CARTESIAN_POINT('',(-39.5,48.5,-1.4432899320127E-14));
#1101=CARTESIAN_POINT('',(-39.5,48.5,300.));
#1102=CARTESIAN_POINT('',(-48.5,48.5,300.));
#1103=CARTESIAN_POINT('',(-24.25,48.5,300.));
#1104=CARTESIAN_POINT('',(-48.5,48.5,0.));
#1105=CARTESIAN_POINT('',(-48.5,48.5,1.5));
#1106=CARTESIAN_POINT('',(-24.25,48.5,0.));
#1107=CARTESIAN_POINT('Origin',(-48.5,50.,1.5));
#1108=CARTESIAN_POINT('',(-48.5,38.0000005662441,300.));
#1109=CARTESIAN_POINT('',(-48.5,38.0000005662441,300.));
#1110=CARTESIAN_POINT('',(-48.5,-38.0000005662441,300.));
#1111=CARTESIAN_POINT('',(-48.5,-19.0000002831221,300.));
#1112=CARTESIAN_POINT('',(-48.5,-38.0000005662441,150.));
#1113=CARTESIAN_POINT('Origin',(-48.5,50.,1.5));
#1114=CARTESIAN_POINT('',(-48.5,-39.5,300.));
#1115=CARTESIAN_POINT('',(-48.5,-39.5,-1.4432899320127E-14));
#1116=CARTESIAN_POINT('',(-48.5,-39.5,300.));
#1117=CARTESIAN_POINT('',(-48.5,-48.5,300.));
#1118=CARTESIAN_POINT('',(-48.5,-24.25,300.));
#1119=CARTESIAN_POINT('',(-48.5,-48.5,0.));
#1120=CARTESIAN_POINT('',(-48.5,-48.5,1.5));
#1121=CARTESIAN_POINT('',(-48.5,-24.25,0.));
#1122=CARTESIAN_POINT('Origin',(-50.,-48.5,1.5));
#1123=CARTESIAN_POINT('',(-38.0000005662441,-48.5,300.));
#1124=CARTESIAN_POINT('',(-38.0000005662441,-48.5,300.));
#1125=CARTESIAN_POINT('',(38.0000005662441,-48.5,300.));
#1126=CARTESIAN_POINT('',(19.0000002831221,-48.5,300.));
#1127=CARTESIAN_POINT('',(38.0000005662441,-48.5,150.));
#1128=CARTESIAN_POINT('Origin',(-50.,-48.5,1.5));
#1129=CARTESIAN_POINT('',(39.5,-48.5,300.));
#1130=CARTESIAN_POINT('',(39.5,-48.5,-1.4432899320127E-14));
#1131=CARTESIAN_POINT('',(39.5,-48.5,300.));
#1132=CARTESIAN_POINT('',(48.5,-48.5,300.));
#1133=CARTESIAN_POINT('',(24.25,-48.5,300.));
#1134=CARTESIAN_POINT('',(48.5,-48.5,0.));
#1135=CARTESIAN_POINT('',(48.5,-48.5,1.5));
#1136=CARTESIAN_POINT('',(24.25,-48.5,0.));
#1137=CARTESIAN_POINT('Origin',(48.5,-50.,1.5));
#1138=CARTESIAN_POINT('',(48.5,-39.5,300.));
#1139=CARTESIAN_POINT('',(48.5,-39.5,-1.4432899320127E-14));
#1140=CARTESIAN_POINT('',(48.5,-39.5,150.));
#1141=CARTESIAN_POINT('',(48.5,-19.75,0.));
#1142=CARTESIAN_POINT('',(48.5,-19.75,300.));
#1143=CARTESIAN_POINT('Origin',(48.5,-50.,1.5));
#1144=CARTESIAN_POINT('',(48.5,-38.0000005662441,300.));
#1145=CARTESIAN_POINT('',(48.5,-38.0000005662441,300.));
#1146=CARTESIAN_POINT('',(48.5,38.0000005662441,300.));
#1147=CARTESIAN_POINT('',(48.5,19.0000002831221,300.));
#1148=CARTESIAN_POINT('',(48.5,38.0000005662441,150.));
#1149=CARTESIAN_POINT('Origin',(48.5,-50.,1.5));
#1150=CARTESIAN_POINT('',(48.5,39.5,300.));
#1151=CARTESIAN_POINT('',(48.5,39.5,-1.4432899320127E-14));
#1152=CARTESIAN_POINT('',(48.5,39.5,300.));
#1153=CARTESIAN_POINT('',(48.5,48.5,300.));
#1154=CARTESIAN_POINT('',(48.5,24.25,300.));
#1155=CARTESIAN_POINT('',(48.5,48.5,0.));
#1156=CARTESIAN_POINT('',(48.5,48.5,300.));
#1157=CARTESIAN_POINT('',(48.5,24.25,0.));
#1158=CARTESIAN_POINT('Origin',(50.,48.5,1.5));
#1159=CARTESIAN_POINT('',(-38.0000005662441,48.5,300.));
#1160=CARTESIAN_POINT('',(-38.0000005662441,48.5,150.));
#1161=CARTESIAN_POINT('',(38.0000005662441,48.5,300.));
#1162=CARTESIAN_POINT('',(38.0000005662441,48.5,300.));
#1163=CARTESIAN_POINT('',(-19.0000002831221,48.5,300.));
#1164=CARTESIAN_POINT('Origin',(50.,48.5,1.5));
#1165=CARTESIAN_POINT('',(39.5,48.5,300.));
#1166=CARTESIAN_POINT('',(39.5,48.5,-1.4432899320127E-14));
#1167=CARTESIAN_POINT('',(39.5,48.5,150.));
#1168=CARTESIAN_POINT('',(19.75,48.5,0.));
#1169=CARTESIAN_POINT('',(19.75,48.5,300.));
#1170=CARTESIAN_POINT('Origin',(39.5,39.5,300.));
#1171=CARTESIAN_POINT('',(39.5,39.5,300.));
#1172=CARTESIAN_POINT('',(39.5,19.75,300.));
#1173=CARTESIAN_POINT('',(39.5,39.5,-1.4432899320127E-14));
#1174=CARTESIAN_POINT('',(39.5,39.5,298.5));
#1175=CARTESIAN_POINT('',(39.5,19.75,0.));
#1176=CARTESIAN_POINT('Origin',(48.5,39.5,300.));
#1177=CARTESIAN_POINT('',(24.25,39.5,300.));
#1178=CARTESIAN_POINT('',(24.25,39.5,0.));
#1179=CARTESIAN_POINT('Origin',(-39.5,48.5,300.));
#1180=CARTESIAN_POINT('',(-39.5,39.5,300.));
#1181=CARTESIAN_POINT('',(-39.5,24.25,300.));
#1182=CARTESIAN_POINT('',(-39.5,39.5,-1.4432899320127E-14));
#1183=CARTESIAN_POINT('',(-39.5,24.25,0.));
#1184=CARTESIAN_POINT('',(-39.5,39.5,300.));
#1185=CARTESIAN_POINT('Origin',(-39.5,39.5,300.));
#1186=CARTESIAN_POINT('',(-48.5,39.5,300.));
#1187=CARTESIAN_POINT('',(-19.75,39.5,300.));
#1188=CARTESIAN_POINT('',(-48.5,39.5,-1.4432899320127E-14));
#1189=CARTESIAN_POINT('',(-19.75,39.5,0.));
#1190=CARTESIAN_POINT('',(-48.5,39.5,150.));
#1191=CARTESIAN_POINT('Origin',(-48.5,-39.5,300.));
#1192=CARTESIAN_POINT('',(-39.5,-39.5,300.));
#1193=CARTESIAN_POINT('',(-24.25,-39.5,300.));
#1194=CARTESIAN_POINT('',(-39.5,-39.5,-1.4432899320127E-14));
#1195=CARTESIAN_POINT('',(-24.25,-39.5,0.));
#1196=CARTESIAN_POINT('',(-39.5,-39.5,300.));
#1197=CARTESIAN_POINT('Origin',(-39.5,-39.5,300.));
#1198=CARTESIAN_POINT('',(-39.5,-48.5,300.));
#1199=CARTESIAN_POINT('',(-39.5,-19.75,300.));
#1200=CARTESIAN_POINT('',(-39.5,-48.5,-1.4432899320127E-14));
#1201=CARTESIAN_POINT('',(-39.5,-19.75,0.));
#1202=CARTESIAN_POINT('',(-39.5,-48.5,150.));
#1203=CARTESIAN_POINT('Origin',(39.5,-39.5,300.));
#1204=CARTESIAN_POINT('',(39.5,-39.5,300.));
#1205=CARTESIAN_POINT('',(19.75,-39.5,300.));
#1206=CARTESIAN_POINT('',(39.5,-39.5,-1.4432899320127E-14));
#1207=CARTESIAN_POINT('',(39.5,-39.5,298.5));
#1208=CARTESIAN_POINT('',(19.75,-39.5,0.));
#1209=CARTESIAN_POINT('Origin',(39.5,-48.5,300.));
#1210=CARTESIAN_POINT('',(39.5,-24.25,300.));
#1211=CARTESIAN_POINT('',(39.5,-24.25,0.));
#1212=CARTESIAN_POINT('Origin',(38.0000005662441,-38.0000005662441,300.));
#1213=CARTESIAN_POINT('',(38.0000005662441,-38.0000005662441,300.));
#1214=CARTESIAN_POINT('',(38.0000005662441,-19.0000002831221,300.));
#1215=CARTESIAN_POINT('',(38.0000005662441,-38.0000005662441,298.5));
#1216=CARTESIAN_POINT('Origin',(48.5,-38.0000005662441,300.));
#1217=CARTESIAN_POINT('',(24.25,-38.0000005662441,300.));
#1218=CARTESIAN_POINT('Origin',(38.0000005662441,38.0000005662441,300.));
#1219=CARTESIAN_POINT('',(38.0000005662441,38.0000005662441,300.));
#1220=CARTESIAN_POINT('',(19.0000002831221,38.0000005662441,300.));
#1221=CARTESIAN_POINT('',(38.0000005662441,38.0000005662441,298.5));
#1222=CARTESIAN_POINT('Origin',(38.0000005662441,48.5,300.));
#1223=CARTESIAN_POINT('',(38.0000005662441,24.25,300.));
#1224=CARTESIAN_POINT('Origin',(-38.0000005662441,38.0000005662441,300.));
#1225=CARTESIAN_POINT('',(-38.0000005662441,38.0000005662441,300.));
#1226=CARTESIAN_POINT('',(-38.0000005662441,19.0000002831221,300.));
#1227=CARTESIAN_POINT('',(-38.0000005662441,38.0000005662441,298.5));
#1228=CARTESIAN_POINT('Origin',(-48.5,38.0000005662441,300.));
#1229=CARTESIAN_POINT('',(-24.25,38.0000005662441,300.));
#1230=CARTESIAN_POINT('Origin',(-38.0000005662441,-38.0000005662441,300.));
#1231=CARTESIAN_POINT('',(-38.0000005662441,-38.0000005662441,300.));
#1232=CARTESIAN_POINT('',(-19.0000002831221,-38.0000005662441,300.));
#1233=CARTESIAN_POINT('',(-38.0000005662441,-38.0000005662441,298.5));
#1234=CARTESIAN_POINT('Origin',(-38.0000005662441,-48.5,300.));
#1235=CARTESIAN_POINT('',(-38.0000005662441,-24.25,300.));
#1236=CARTESIAN_POINT('Origin',(0.,0.,300.));
#1237=CARTESIAN_POINT('',(-50.,50.,300.));
#1238=CARTESIAN_POINT('',(-50.,-50.,300.));
#1239=CARTESIAN_POINT('',(-50.,-50.,300.));
#1240=CARTESIAN_POINT('',(50.,-50.,300.));
#1241=CARTESIAN_POINT('',(50.,-50.,300.));
#1242=CARTESIAN_POINT('',(50.,50.,300.));
#1243=CARTESIAN_POINT('',(50.,50.,300.));
#1244=CARTESIAN_POINT('',(-50.,50.,300.));
#1245=CARTESIAN_POINT('',(-48.5,19.75,300.));
#1246=CARTESIAN_POINT('',(-19.75,-48.5,300.));
#1247=CARTESIAN_POINT('Origin',(0.,0.,0.75));
#1248=CARTESIAN_POINT('',(-38.,4.65365783675994E-15,0.));
#1249=CARTESIAN_POINT('',(-38.,4.65365783675994E-15,0.75));
#1250=CARTESIAN_POINT('Origin',(0.,0.,0.));
#1251=CARTESIAN_POINT('Origin',(50.,50.,0.));
#1252=CARTESIAN_POINT('',(50.,50.,0.));
#1253=CARTESIAN_POINT('',(50.,50.,1.5));
#1254=CARTESIAN_POINT('',(-50.,50.,0.));
#1255=CARTESIAN_POINT('',(-50.,50.,0.));
#1256=CARTESIAN_POINT('',(-50.,50.,0.));
#1257=CARTESIAN_POINT('Origin',(-50.,-48.5,1.5));
#1258=CARTESIAN_POINT('',(-19.75,-48.5,0.));
#1259=CARTESIAN_POINT('Origin',(-50.,50.,0.));
#1260=CARTESIAN_POINT('',(-50.,-50.,0.));
#1261=CARTESIAN_POINT('',(-50.,-50.,0.));
#1262=CARTESIAN_POINT('',(-50.,-50.,0.));
#1263=CARTESIAN_POINT('Origin',(-48.5,50.,1.5));
#1264=CARTESIAN_POINT('',(-48.5,19.75,0.));
#1265=CARTESIAN_POINT('Origin',(50.,-50.,0.));
#1266=CARTESIAN_POINT('',(50.,-50.,0.));
#1267=CARTESIAN_POINT('',(50.,-50.,0.));
#1268=CARTESIAN_POINT('',(50.,50.,0.));
#1269=CARTESIAN_POINT('Origin',(-50.,-50.,0.));
#1270=CARTESIAN_POINT('',(50.,-50.,0.));
#1271=CARTESIAN_POINT('Origin',(0.,0.,0.));
#1272=CARTESIAN_POINT('Origin',(-50.,50.,1.5));
#1273=CARTESIAN_POINT('',(-50.,50.,1.5));
#1274=CARTESIAN_POINT('',(-50.,-50.,1.5));
#1275=CARTESIAN_POINT('',(-50.,-50.,1.5));
#1276=CARTESIAN_POINT('',(-50.,-50.,298.5));
#1277=CARTESIAN_POINT('',(-50.,-50.,1.5));
#1278=CARTESIAN_POINT('',(-50.,50.,298.5));
#1279=CARTESIAN_POINT('',(-50.,-50.,298.5));
#1280=CARTESIAN_POINT('',(-50.,50.,1.5));
#1281=CARTESIAN_POINT('Origin',(50.,50.,1.5));
#1282=CARTESIAN_POINT('',(50.,50.,1.5));
#1283=CARTESIAN_POINT('',(-50.,50.,1.5));
#1284=CARTESIAN_POINT('',(50.,50.,298.5));
#1285=CARTESIAN_POINT('',(-50.,50.,298.5));
#1286=CARTESIAN_POINT('',(50.,50.,1.5));
#1287=CARTESIAN_POINT('Origin',(50.,-50.,1.5));
#1288=CARTESIAN_POINT('',(50.,-50.,1.5));
#1289=CARTESIAN_POINT('',(50.,50.,1.5));
#1290=CARTESIAN_POINT('',(50.,-50.,298.5));
#1291=CARTESIAN_POINT('',(50.,50.,298.5));
#1292=CARTESIAN_POINT('',(50.,-50.,1.5));
#1293=CARTESIAN_POINT('Origin',(-50.,-50.,1.5));
#1294=CARTESIAN_POINT('',(50.,-50.,1.5));
#1295=CARTESIAN_POINT('',(50.,-50.,298.5));
#1296=UNCERTAINTY_MEASURE_WITH_UNIT(LENGTH_MEASURE(0.01),#1300,
'DISTANCE_ACCURACY_VALUE',
'Maximum model space distance between geometric entities at asserted c
onnectivities');
#1297=UNCERTAINTY_MEASURE_WITH_UNIT(LENGTH_MEASURE(0.01),#1300,
'DISTANCE_ACCURACY_VALUE',
'Maximum model space distance between geometric entities at asserted c
onnectivities');
#1298=(
GEOMETRIC_REPRESENTATION_CONTEXT(3)
GLOBAL_UNCERTAINTY_ASSIGNED_CONTEXT((#1296))
GLOBAL_UNIT_ASSIGNED_CONTEXT((#1300,#1302,#1303))
REPRESENTATION_CONTEXT('','3D')
);
#1299=(
GEOMETRIC_REPRESENTATION_CONTEXT(3)
GLOBAL_UNCERTAINTY_ASSIGNED_CONTEXT((#1297))
GLOBAL_UNIT_ASSIGNED_CONTEXT((#1300,#1302,#1303))
REPRESENTATION_CONTEXT('','3D')
);
#1300=(
LENGTH_UNIT()
NAMED_UNIT(*)
SI_UNIT(.MILLI.,.METRE.)
);
#1301=(
LENGTH_UNIT()
NAMED_UNIT(*)
SI_UNIT($,.METRE.)
);
#1302=(
NAMED_UNIT(*)
PLANE_ANGLE_UNIT()
SI_UNIT($,.RADIAN.)
);
#1303=(
NAMED_UNIT(*)
SI_UNIT($,.STERADIAN.)
SOLID_ANGLE_UNIT()
);
#1304=SHAPE_DEFINITION_REPRESENTATION(#1305,#1306);
#1305=PRODUCT_DEFINITION_SHAPE('',$,#1308);
#1306=SHAPE_REPRESENTATION('',(#832,#14),#1298);
#1307=PRODUCT_DEFINITION_CONTEXT('part definition',#1312,'design');
#1308=PRODUCT_DEFINITION('EINSAT 01.step','EINSAT 01.step v1',#1309,#1307);
#1309=PRODUCT_DEFINITION_FORMATION('',$,#1314);
#1310=PRODUCT_RELATED_PRODUCT_CATEGORY('EINSAT 01.step v1',
'EINSAT 01.step v1',(#1314));
#1311=APPLICATION_PROTOCOL_DEFINITION('international standard',
'automotive_design',2009,#1312);
#1312=APPLICATION_CONTEXT(
'Core Data for Automotive Mechanical Design Process');
#1313=PRODUCT_CONTEXT('part definition',#1312,'mechanical');
#1314=PRODUCT('EINSAT 01.step','EINSAT 01.step v1',$,(#1313));
#1315=PRESENTATION_STYLE_ASSIGNMENT((#1316));
#1316=SURFACE_STYLE_USAGE(.BOTH.,#1317);
#1317=SURFACE_SIDE_STYLE('',(#1318));
#1318=SURFACE_STYLE_FILL_AREA(#1319);
#1319=FILL_AREA_STYLE('Steel - Satin',(#1320));
#1320=FILL_AREA_STYLE_COLOUR('Steel - Satin',#1321);
#1321=COLOUR_RGB('Steel - Satin',0.627450980392157,0.627450980392157,0.627450980392157);
ENDSEC;
END-ISO-10303-21;
