0
SECTION
2
HEADER
9
$ACADVER
1
AC1027
9
$ACADMAINTVER
70
8
9
$DWGCODEPAGE
3
ANSI_1252
9
$LASTSAVEDBY
1
macc
9
$REQUIREDVERSIONS
160
0
9
$INSBASE
10
0.0
20
0.0
30
0.0
9
$EXTMIN
10
1.000000000000000E+20
20
1.000000000000000E+20
30
1.000000000000000E+20
9
$EXTMAX
10
-1.000000000000000E+20
20
-1.000000000000000E+20
30
-1.000000000000000E+20
9
$LIMMIN
10
0.0
20
0.0
9
$LIMMAX
10
12.0
20
9.0
9
$ORTHOMODE
70
0
9
$REGENMODE
70
1
9
$FILLMODE
70
1
9
$QTEXTMODE
70
0
9
$MIRRTEXT
70
0
9
$LTSCALE
40
1.0
9
$ATTMODE
70
1
9
$TEXTSIZE
40
0.2
9
$TRACEWID
40
0.05
9
$TEXTSTYLE
7
STANDARD
9
$CLAYER
8
0
9
$CELTYPE
6
ByLayer
9
$CECOLOR
62
256
9
$CELTSCALE
40
1.0
9
$DISPSILH
70
0
9
$DIMSCALE
40
1.0
9
$DIMASZ
40
0.18
9
$DIMEXO
40
0.0625
9
$DIMDLI
40
0.38
9
$DIMRND
40
0.0
9
$DIMDLE
40
0.0
9
$DIMEXE
40
0.18
9
$DIMTP
40
0.0
9
$DIMTM
40
0.0
9
$DIMTXT
40
0.18
9
$DIMCEN
40
0.09
9
$DIMTSZ
40
0.0
9
$DIMTOL
70
0
9
$DIMLIM
70
0
9
$DIMTIH
70
1
9
$DIMTOH
70
1
9
$DIMSE1
70
0
9
$DIMSE2
70
0
9
$DIMTAD
70
0
9
$DIMZIN
70
0
9
$DIMBLK
1

9
$DIMASO
70
1
9
$DIMSHO
70
1
9
$DIMPOST
1

9
$DIMAPOST
1

9
$DIMALT
70
0
9
$DIMALTD
70
2
9
$DIMALTF
40
25.4
9
$DIMLFAC
40
1.0
9
$DIMTOFL
70
0
9
$DIMTVP
40
0.0
9
$DIMTIX
70
0
9
$DIMSOXD
70
0
9
$DIMSAH
70
0
9
$DIMBLK1
1

9
$DIMBLK2
1

9
$DIMSTYLE
2
STANDARD
9
$DIMCLRD
70
0
9
$DIMCLRE
70
0
9
$DIMCLRT
70
0
9
$DIMTFAC
40
1.0
9
$DIMGAP
40
0.09
9
$DIMJUST
70
0
9
$DIMSD1
70
0
9
$DIMSD2
70
0
9
$DIMTOLJ
70
1
9
$DIMTZIN
70
0
9
$DIMALTZ
70
0
9
$DIMALTTZ
70
0
9
$DIMUPT
70
0
9
$DIMDEC
70
4
9
$DIMTDEC
70
4
9
$DIMALTU
70
2
9
$DIMALTTD
70
2
9
$DIMTXSTY
7
STANDARD
9
$DIMAUNIT
70
0
9
$DIMADEC
70
0
9
$DIMALTRND
40
0.0
9
$DIMAZIN
70
0
9
$DIMDSEP
70
46
9
$DIMATFIT
70
3
9
$DIMFRAC
70
0
9
$DIMLDRBLK
1

9
$DIMLUNIT
70
2
9
$DIMLWD
70
-2
9
$DIMLWE
70
-2
9
$DIMTMOVE
70
0
9
$DIMFXL
40
1.0
9
$DIMFXLON
70
0
9
$DIMJOGANG
40
0.7853981633974483
9
$DIMTFILL
70
0
9
$DIMTFILLCLR
70
0
9
$DIMARCSYM
70
0
9
$DIMLTYPE
6

9
$DIMLTEX1
6

9
$DIMLTEX2
6

9
$DIMTXTDIRECTION
70
0
9
$LUNITS
70
2
9
$LUPREC
70
4
9
$SKETCHINC
40
0.1
9
$FILLETRAD
40
0.0
9
$AUNITS
70
0
9
$AUPREC
70
0
9
$MENU
1
.
9
$ELEVATION
40
0.0
9
$PELEVATION
40
0.0
9
$THICKNESS
40
0.0
9
$LIMCHECK
70
0
9
$CHAMFERA
40
0.0
9
$CHAMFERB
40
0.0
9
$CHAMFERC
40
0.0
9
$CHAMFERD
40
0.0
9
$SKPOLY
70
0
9
$TDCREATE
40
2458312.067262384
9
$TDUCREATE
40
2458311.983929051
9
$TDUPDATE
40
2458312.961305069
9
$TDUUPDATE
40
2458312.877971736
9
$TDINDWG
40
0.0045230903
9
$TDUSRTIMER
40
0.0045219676
9
$USRTIMER
70
1
9
$ANGBASE
50
0.0
9
$ANGDIR
70
0
9
$PDMODE
70
0
9
$PDSIZE
40
0.0
9
$PLINEWID
40
0.0
9
$SPLFRAME
70
0
9
$SPLINETYPE
70
6
9
$SPLINESEGS
70
8
9
$HANDSEED
5
1058
9
$SURFTAB1
70
6
9
$SURFTAB2
70
6
9
$SURFTYPE
70
6
9
$SURFU
70
6
9
$SURFV
70
6
9
$UCSBASE
2

9
$UCSNAME
2

9
$UCSORG
10
0.0
20
0.0
30
0.0
9
$UCSXDIR
10
1.0
20
0.0
30
0.0
9
$UCSYDIR
10
0.0
20
1.0
30
0.0
9
$UCSORTHOREF
2

9
$UCSORTHOVIEW
70
0
9
$UCSORGTOP
10
0.0
20
0.0
30
0.0
9
$UCSORGBOTTOM
10
0.0
20
0.0
30
0.0
9
$UCSORGLEFT
10
0.0
20
0.0
30
0.0
9
$UCSORGRIGHT
10
0.0
20
0.0
30
0.0
9
$UCSORGFRONT
10
0.0
20
0.0
30
0.0
9
$UCSORGBACK
10
0.0
20
0.0
30
0.0
9
$PUCSBASE
2

9
$PUCSNAME
2

9
$PUCSORG
10
0.0
20
0.0
30
0.0
9
$PUCSXDIR
10
1.0
20
0.0
30
0.0
9
$PUCSYDIR
10
0.0
20
1.0
30
0.0
9
$PUCSORTHOREF
2

9
$PUCSORTHOVIEW
70
0
9
$PUCSORGTOP
10
0.0
20
0.0
30
0.0
9
$PUCSORGBOTTOM
10
0.0
20
0.0
30
0.0
9
$PUCSORGLEFT
10
0.0
20
0.0
30
0.0
9
$PUCSORGRIGHT
10
0.0
20
0.0
30
0.0
9
$PUCSORGFRONT
10
0.0
20
0.0
30
0.0
9
$PUCSORGBACK
10
0.0
20
0.0
30
0.0
9
$USERI1
70
0
9
$USERI2
70
0
9
$USERI3
70
0
9
$USERI4
70
0
9
$USERI5
70
0
9
$USERR1
40
0.0
9
$USERR2
40
0.0
9
$USERR3
40
0.0
9
$USERR4
40
0.0
9
$USERR5
40
0.0
9
$WORLDVIEW
70
1
9
$SHADEDGE
70
3
9
$SHADEDIF
70
70
9
$TILEMODE
70
1
9
$MAXACTVP
70
64
9
$PINSBASE
10
0.0
20
0.0
30
0.0
9
$PLIMCHECK
70
0
9
$PEXTMIN
10
0.0
20
0.0
30
0.0
9
$PEXTMAX
10
0.0
20
0.0
30
0.0
9
$PLIMMIN
10
0.0
20
0.0
9
$PLIMMAX
10
12.0
20
9.0
9
$UNITMODE
70
0
9
$VISRETAIN
70
1
9
$PLINEGEN
70
0
9
$PSLTSCALE
70
1
9
$TREEDEPTH
70
3020
9
$CMLSTYLE
2
Standard
9
$CMLJUST
70
0
9
$CMLSCALE
40
1.0
9
$PROXYGRAPHICS
70
1
9
$MEASUREMENT
70
0
9
$CELWEIGHT
370
-1
9
$ENDCAPS
280
0
9
$JOINSTYLE
280
0
9
$LWDISPLAY
290
0
9
$INSUNITS
70
0
9
$HYPERLINKBASE
1

9
$STYLESHEET
1

9
$XEDIT
290
1
9
$CEPSNTYPE
380
0
9
$PSTYLEMODE
290
1
9
$FINGERPRINTGUID
2
{4B4ED3CC-337F-6143-9B17-EFB0F3F01845}
9
$VERSIONGUID
2
{A4861B96-12DA-254C-ACF2-0C3CF0F63D02}
9
$EXTNAMES
290
1
9
$PSVPSCALE
40
0.0
9
$OLESTARTUP
290
0
9
$SORTENTS
280
127
9
$INDEXCTL
280
0
9
$HIDETEXT
280
0
9
$XCLIPFRAME
280
2
9
$HALOGAP
280
0
9
$OBSCOLOR
70
257
9
$OBSLTYPE
280
0
9
$INTERSECTIONDISPLAY
280
0
9
$INTERSECTIONCOLOR
70
257
9
$DIMASSOC
280
1
9
$PROJECTNAME
1

9
$CAMERADISPLAY
290
0
9
$LENSLENGTH
40
50.0
9
$CAMERAHEIGHT
40
0.0
9
$STEPSPERSEC
40
2.0
9
$STEPSIZE
40
6.0
9
$3DDWFPREC
40
2.0
9
$PSOLWIDTH
40
0.25
9
$PSOLHEIGHT
40
4.0
9
$LOFTANG1
40
1.570796326794896
9
$LOFTANG2
40
1.570796326794896
9
$LOFTMAG1
40
0.0
9
$LOFTMAG2
40
0.0
9
$LOFTPARAM
70
7
9
$LOFTNORMALS
280
1
9
$LATITUDE
40
37.795
9
$LONGITUDE
40
-122.394
9
$NORTHDIRECTION
40
0.0
9
$TIMEZONE
70
-8000
9
$LIGHTGLYPHDISPLAY
280
1
9
$TILEMODELIGHTSYNCH
280
1
9
$CMATERIAL
347
222
9
$SOLIDHIST
280
0
9
$SHOWHIST
280
1
9
$DWFFRAME
280
2
9
$DGNFRAME
280
0
9
$REALWORLDSCALE
290
1
9
$INTERFERECOLOR
62
1
9
$INTERFEREOBJVS
345
244
9
$INTERFEREVPVS
346
241
9
$CSHADOW
280
0
9
$SHADOWPLANELOCATION
40
0.0
0
ENDSEC
0
SECTION
2
CLASSES
0
CLASS
1
ACDBDICTIONARYWDFLT
2
AcDbDictionaryWithDefault
3
ObjectDBX Classes
90
0
91
1
280
0
281
0
0
CLASS
1
MATERIAL
2
AcDbMaterial
3
ObjectDBX Classes
90
1153
91
3
280
0
281
0
0
CLASS
1
VISUALSTYLE
2
AcDbVisualStyle
3
ObjectDBX Classes
90
4095
91
24
280
0
281
0
0
CLASS
1
SCALE
2
AcDbScale
3
ObjectDBX Classes
90
1153
91
17
280
0
281
0
0
CLASS
1
TABLESTYLE
2
AcDbTableStyle
3
ObjectDBX Classes
90
4095
91
1
280
0
281
0
0
CLASS
1
MLEADERSTYLE
2
AcDbMLeaderStyle
3
ACDB_MLEADERSTYLE_CLASS
90
4095
91
1
280
0
281
0
0
CLASS
1
ACDBSECTIONVIEWSTYLE
2
AcDbSectionViewStyle
3
ObjectDBX Classes
90
1025
91
1
280
0
281
0
0
CLASS
1
ACDBDETAILVIEWSTYLE
2
AcDbDetailViewStyle
3
ObjectDBX Classes
90
1025
91
1
280
0
281
0
0
CLASS
1
DICTIONARYVAR
2
AcDbDictionaryVar
3
ObjectDBX Classes
90
0
91
9
280
0
281
0
0
CLASS
1
CELLSTYLEMAP
2
AcDbCellStyleMap
3
ObjectDBX Classes
90
1152
91
2
280
0
281
0
0
ENDSEC
0
SECTION
2
TABLES
0
TABLE
2
VPORT
5
219
330
0
100
AcDbSymbolTable
70
1
0
VPORT
5
285
330
219
100
AcDbSymbolTableRecord
100
AcDbViewportTableRecord
2
*ACTIVE
70
0
10
0.0
20
0.0
11
1.0
21
1.0
12
60.85393284500712
22
1.602311788490737
13
0.0
23
0.0
14
0.5
24
0.5
15
0.5
25
0.5
16
0.0
26
0.0
36
1.0
17
0.0
27
0.0
37
0.0
40
135.7601553851812
41
1.367970660146699
42
50.0
43
0.0
44
0.0
50
0.0
51
0.0
71
0
72
1000
73
1
74
3
75
0
76
1
77
0
78
0
281
0
65
1
110
0.0
120
0.0
130
0.0
111
1.0
121
0.0
131
0.0
112
0.0
122
1.0
132
0.0
79
0
146
0.0
348
240
60
3
61
5
292
1
282
0
141
0.0
142
0.0
63
250
421
3355443
1001
ACAD_NAV_VCDISPLAY
1070
3
0
ENDTAB
0
TABLE
2
LTYPE
5
216
330
0
100
AcDbSymbolTable
70
2
0
LTYPE
5
26B
330
216
100
AcDbSymbolTableRecord
100
AcDbLinetypeTableRecord
2
ByBlock
70
0
3

72
65
73
0
40
0.0
0
LTYPE
5
26C
330
216
100
AcDbSymbolTableRecord
100
AcDbLinetypeTableRecord
2
ByLayer
70
0
3

72
65
73
0
40
0.0
0
LTYPE
5
26D
330
216
100
AcDbSymbolTableRecord
100
AcDbLinetypeTableRecord
2
CONTINUOUS
70
0
3
Solid line
72
65
73
0
40
0.0
0
LTYPE
5
103D
330
216
100
AcDbSymbolTableRecord
100
AcDbLinetypeTableRecord
2
DOTTED
70
0
3
Dotted . . . . . . . . . . . . . . . . . . . .
72
65
73
2
40
3.0
49
0.0
74
0
49
-3.0
74
0
0
ENDTAB
0
TABLE
2
LAYER
5
213
102
{ACAD_XDICTIONARY
360
297
102
}
330
0
100
AcDbSymbolTable
70
4
0
LAYER
5
265
102
{ACAD_XDICTIONARY
360
292
102
}
330
213
100
AcDbSymbolTableRecord
100
AcDbLayerTableRecord
2
0
70
0
62
7
6
CONTINUOUS
370
-3
390
220
347
232
348
0
0
LAYER
5
2FB
330
213
100
AcDbSymbolTableRecord
100
AcDbLayerTableRecord
2
gear
70
0
62
7
6
CONTINUOUS
370
-3
390
220
347
232
348
0
1001
AcAecLayerStandard
1000

1000

1001
AcCmTransparency
1071
0
0
LAYER
5
2FE
330
213
100
AcDbSymbolTableRecord
100
AcDbLayerTableRecord
2
gear_texts
70
0
62
7
6
CONTINUOUS
370
-3
390
220
347
232
348
0
1001
AcAecLayerStandard
1000

1000

1001
AcCmTransparency
1071
0
0
LAYER
5
2FF
330
213
100
AcDbSymbolTableRecord
100
AcDbLayerTableRecord
2
gear_guides
70
0
62
5
6
CONTINUOUS
370
-3
390
220
347
232
348
0
1001
AcAecLayerStandard
1000

1000

1001
AcCmTransparency
1071
0
0
ENDTAB
0
TABLE
2
STYLE
5
214
330
0
100
AcDbSymbolTable
70
3
0
STYLE
5
266
330
214
100
AcDbSymbolTableRecord
100
AcDbTextStyleTableRecord
2
STANDARD
70
0
40
0.0
41
1.0
50
0.0
71
0
42
0.2
3
txt
4

0
STYLE
5
26A
330
214
100
AcDbSymbolTableRecord
100
AcDbTextStyleTableRecord
2
ANNOTATIVE
70
0
40
0.0
41
1.0
50
0.0
71
0
42
0.2
3
txt
4

1001
ACADANNOTATIVE
1000
AnnotativeData
1002
{
1070
1
1070
1
1002
}
0
STYLE
5
301
330
214
100
AcDbSymbolTableRecord
100
AcDbTextStyleTableRecord
2

70
1
40
0.0
41
1.0
50
0.0
71
0
42
0.2
3
ltypeshp.shx
4

0
ENDTAB
0
TABLE
2
VIEW
5
217
330
0
100
AcDbSymbolTable
70
1
0
ENDTAB
0
TABLE
2
UCS
5
218
330
0
100
AcDbSymbolTable
70
0
0
ENDTAB
0
TABLE
2
APPID
5
21A
330
0
100
AcDbSymbolTable
70
10
0
APPID
5
267
330
21A
100
AcDbSymbolTableRecord
100
AcDbRegAppTableRecord
2
ACAD
70
0
0
APPID
5
26E
330
21A
100
AcDbSymbolTableRecord
100
AcDbRegAppTableRecord
2
ACADANNOTATIVE
70
0
0
APPID
5
286
330
21A
100
AcDbSymbolTableRecord
100
AcDbRegAppTableRecord
2
ACADANNOPO
70
0
0
APPID
5
287
330
21A
100
AcDbSymbolTableRecord
100
AcDbRegAppTableRecord
2
ACAD_DSTYLE_DIMJAG
70
0
0
APPID
5
288
330
21A
100
AcDbSymbolTableRecord
100
AcDbRegAppTableRecord
2
ACAD_DSTYLE_DIMTALN
70
0
0
APPID
5
289
330
21A
100
AcDbSymbolTableRecord
100
AcDbRegAppTableRecord
2
ACAD_MLEADERVER
70
0
0
APPID
5
28A
330
21A
100
AcDbSymbolTableRecord
100
AcDbRegAppTableRecord
2
ACAD_NAV_VCDISPLAY
70
0
0
APPID
5
2E7
330
21A
100
AcDbSymbolTableRecord
100
AcDbRegAppTableRecord
2
ACAD_EXEMPT_FROM_CAD_STANDARDS
70
0
0
APPID
5
2FC
330
21A
100
AcDbSymbolTableRecord
100
AcDbRegAppTableRecord
2
AcAecLayerStandard
70
0
0
APPID
5
2FD
330
21A
100
AcDbSymbolTableRecord
100
AcDbRegAppTableRecord
2
AcCmTransparency
70
0
0
ENDTAB
0
TABLE
2
DIMSTYLE
5
21B
330
0
100
AcDbSymbolTable
70
2
100
AcDbDimStyleTable
71
1
340
268
0
DIMSTYLE
105
268
330
21B
100
AcDbSymbolTableRecord
100
AcDbDimStyleTableRecord
2
STANDARD
70
0
279
2
340
266
0
DIMSTYLE
105
269
330
21B
100
AcDbSymbolTableRecord
100
AcDbDimStyleTableRecord
2
ANNOTATIVE
70
0
40
0.0
279
2
340
266
1001
ACADANNOTATIVE
1000
AnnotativeData
1002
{
1070
1
1070
1
1002
}
0
ENDTAB
0
TABLE
2
BLOCK_RECORD
5
212
330
0
100
AcDbSymbolTable
70
2
0
BLOCK_RECORD
5
281
330
212
100
AcDbSymbolTableRecord
100
AcDbBlockTableRecord
2
*Model_Space
340
284
70
0
280
1
281
0
0
BLOCK_RECORD
5
27D
330
212
100
AcDbSymbolTableRecord
100
AcDbBlockTableRecord
2
*Paper_Space
340
280
70
0
280
1
281
0
0
BLOCK_RECORD
5
28C
330
212
100
AcDbSymbolTableRecord
100
AcDbBlockTableRecord
2
$MODEL_SPACE
340
0
70
0
280
1
281
0
0
BLOCK_RECORD
5
28E
330
212
100
AcDbSymbolTableRecord
100
AcDbBlockTableRecord
2
$PAPER_SPACE
340
0
70
0
280
1
281
0
0
ENDTAB
0
ENDSEC
0
SECTION
2
BLOCKS
0
BLOCK
5
282
330
281
100
AcDbEntity
8
0
100
AcDbBlockBegin
2
*Model_Space
70
0
10
0.0
20
0.0
30
0.0
3
*Model_Space
1

0
ENDBLK
5
283
330
281
100
AcDbEntity
8
0
100
AcDbBlockEnd
0
BLOCK
5
27E
330
27D
100
AcDbEntity
67
1
8
0
100
AcDbBlockBegin
2
*Paper_Space
70
0
10
0.0
20
0.0
30
0.0
3
*Paper_Space
1

0
ENDBLK
5
27F
330
27D
100
AcDbEntity
67
1
8
0
100
AcDbBlockEnd
0
BLOCK
5
28D
330
28C
100
AcDbEntity
8
0
100
AcDbBlockBegin
2
$MODEL_SPACE
70
0
10
0.0
20
0.0
30
0.0
3
$MODEL_SPACE
1

0
ENDBLK
5
21
330
28C
100
AcDbEntity
8
0
100
AcDbBlockEnd
0
BLOCK
5
28F
330
28E
100
AcDbEntity
8
0
100
AcDbBlockBegin
2
$PAPER_SPACE
70
0
10
0.0
20
0.0
30
0.0
3
$PAPER_SPACE
1

0
ENDBLK
5
5B
330
28E
100
AcDbEntity
8
0
100
AcDbBlockEnd
0
ENDSEC
0
SECTION
2
ENTITIES
0
LWPOLYLINE
5
1000
100
AcDbEntity
100
AcDbPolyline
90
2760
70
1
43
0
10
2.77
20
0
10
2.770629
20
0.002976
10
2.775487
20
0.003732
10
2.780702
20
0.004605
10
2.786272
20
0.005604
10
2.792193
20
0.006737
10
2.798465
20
0.008014
10
2.805085
20
0.009441
10
2.812049
20
0.011028
10
2.819355
20
0.012782
10
2.826999
20
0.014712
10
2.83498
20
0.016826
10
2.843293
20
0.019132
10
2.851934
20
0.021638
10
2.860902
20
0.024351
10
2.870191
20
0.02728
10
2.879797
20
0.030433
10
2.889718
20
0.033817
10
2.899948
20
0.03744
10
2.910484
20
0.04131
10
2.921321
20
0.045434
10
2.932454
20
0.04982
10
2.943879
20
0.054475
10
2.955591
20
0.059407
10
2.967586
20
0.064622
10
2.979857
20
0.070129
10
2.9924
20
0.075934
10
3.005209
20
0.082044
10
3.01828
20
0.088467
10
3.031606
20
0.095209
10
3.045182
20
0.102276
10
3.059002
20
0.109676
10
3.07306
20
0.117416
10
3.08735
20
0.125501
10
3.101865
20
0.133938
10
3.1166
20
0.142734
10
3.131548
20
0.151895
10
3.146703
20
0.161426
10
3.162057
20
0.171334
10
3.177604
20
0.181625
10
3.193338
20
0.192305
10
3.193833
20
0.192645
10
3.19408
20
0.192815
10
3.194142
20
0.192858
10
3.194173
20
0.192879
10
3.194181
20
0.192899
10
3.185528
20
0.303997
10
3.185517
20
0.304016
10
3.185483
20
0.304032
10
3.185415
20
0.304065
10
3.185144
20
0.304194
10
3.184603
20
0.304454
10
3.167406
20
0.312569
10
3.150452
20
0.320328
10
3.133749
20
0.32774
10
3.117302
20
0.33481
10
3.101115
20
0.341545
10
3.085196
20
0.347954
10
3.069549
20
0.354042
10
3.05418
20
0.359817
10
3.039093
20
0.365286
10
3.024294
20
0.370457
10
3.009788
20
0.375338
10
2.995579
20
0.379935
10
2.981671
20
0.384256
10
2.96807
20
0.388309
10
2.954779
20
0.392102
10
2.941803
20
0.395642
10
2.929146
20
0.398938
10
2.916812
20
0.401997
10
2.904804
20
0.404827
10
2.893125
20
0.407436
10
2.881781
20
0.409832
10
2.870773
20
0.412024
10
2.860105
20
0.41402
10
2.84978
20
0.415827
10
2.839801
20
0.417454
10
2.830171
20
0.41891
10
2.820891
20
0.420202
10
2.811966
20
0.421339
10
2.803396
20
0.42233
10
2.795185
20
0.423183
10
2.787333
20
0.423906
10
2.779844
20
0.424508
10
2.772718
20
0.424997
10
2.765958
20
0.425383
10
2.759564
20
0.425673
10
2.753538
20
0.425876
10
2.747881
20
0.426
10
2.742594
20
0.426055
10
2.737678
20
0.426049
10
2.736595
20
0.428892
10
2.709469
20
0.575915
10
2.709466
20
0.578957
10
2.71406
20
0.580706
10
2.71898
20
0.582644
10
2.72422
20
0.58478
10
2.729777
20
0.58712
10
2.735646
20
0.589672
10
2.741824
20
0.592445
10
2.748306
20
0.595445
10
2.755087
20
0.59868
10
2.762164
20
0.602157
10
2.76953
20
0.605884
10
2.777182
20
0.609868
10
2.785114
20
0.614115
10
2.793321
20
0.618634
10
2.801798
20
0.62343
10
2.810539
20
0.628511
10
2.81954
20
0.633884
10
2.828793
20
0.639555
10
2.838294
20
0.645531
10
2.848037
20
0.651818
10
2.858015
20
0.658423
10
2.868222
20
0.665352
10
2.878653
20
0.672611
10
2.889301
20
0.680206
10
2.900159
20
0.688144
10
2.911221
20
0.69643
10
2.92248
20
0.70507
10
2.93393
20
0.714069
10
2.945563
20
0.723434
10
2.957373
20
0.73317
10
2.969353
20
0.743282
10
2.981494
20
0.753775
10
2.993791
20
0.764655
10
3.006235
20
0.775926
10
3.018819
20
0.787593
10
3.031536
20
0.799661
10
3.044377
20
0.812135
10
3.057336
20
0.825019
10
3.070404
20
0.838318
10
3.083574
20
0.852035
10
3.083987
20
0.852471
10
3.084193
20
0.852688
10
3.084245
20
0.852743
10
3.084271
20
0.85277
10
3.084274
20
0.852791
10
3.052711
20
0.959663
10
3.052697
20
0.959679
10
3.052661
20
0.959687
10
3.052588
20
0.959705
10
3.052296
20
0.959776
10
3.051712
20
0.959917
10
3.033204
20
0.964279
10
3.015007
20
0.968344
10
2.997128
20
0.972121
10
2.97957
20
0.975617
10
2.962337
20
0.97884
10
2.945434
20
0.981798
10
2.928863
20
0.9845
10
2.912629
20
0.986954
10
2.896735
20
0.989167
10
2.881184
20
0.991148
10
2.86598
20
0.992906
10
2.851125
20
0.994448
10
2.836623
20
0.995783
10
2.822476
20
0.99692
10
2.808688
20
0.997867
10
2.795259
20
0.998632
10
2.782193
20
0.999224
10
2.769493
20
0.999651
10
2.757158
20
0.999923
10
2.745193
20
1.000047
10
2.733598
20
1.000033
10
2.722375
20
0.999888
10
2.711525
20
0.999622
10
2.70105
20
0.999243
10
2.690951
20
0.99876
10
2.681228
20
0.998181
10
2.671883
20
0.997516
10
2.662916
20
0.996773
10
2.654328
20
0.99596
10
2.646119
20
0.995087
10
2.638288
20
0.994162
10
2.630838
20
0.993194
10
2.623766
20
0.992191
10
2.617073
20
0.991162
10
2.610758
20
0.990116
10
2.604822
20
0.989062
10
2.599263
20
0.988008
10
2.59408
20
0.986962
10
2.589272
20
0.985934
10
2.587622
20
0.98849
10
2.530521
20
1.126661
10
2.529885
20
1.129635
10
2.534016
20
1.132301
10
2.538425
20
1.13522
10
2.543107
20
1.138398
10
2.548055
20
1.141842
10
2.553266
20
1.145559
10
2.558732
20
1.149556
10
2.564449
20
1.153838
10
2.57041
20
1.158412
10
2.576608
20
1.163285
10
2.583039
20
1.168462
10
2.589695
20
1.173949
10
2.596571
20
1.179753
10
2.603659
20
1.185879
10
2.610954
20
1.192333
10
2.618448
20
1.199121
10
2.626134
20
1.206247
10
2.634006
20
1.213718
10
2.642057
20
1.221539
10
2.65028
20
1.229714
10
2.658666
20
1.238249
10
2.66721
20
1.247149
10
2.675904
20
1.256418
10
2.68474
20
1.266061
10
2.693711
20
1.276083
10
2.702808
20
1.286488
10
2.712025
20
1.29728
10
2.721353
20
1.308464
10
2.730785
20
1.320043
10
2.740313
20
1.332021
10
2.749928
20
1.344403
10
2.759623
20
1.357191
10
2.769388
20
1.370389
10
2.779217
20
1.384001
10
2.789101
20
1.39803
10
2.79903
20
1.412478
10
2.808998
20
1.427349
10
2.818995
20
1.442646
10
2.829012
20
1.458371
10
2.839042
20
1.474527
10
2.839355
20
1.475039
10
2.839512
20
1.475295
10
2.839551
20
1.475359
10
2.839571
20
1.475391
10
2.83957
20
1.475412
10
2.786477
20
1.573386
10
2.78646
20
1.573399
10
2.786422
20
1.5734
10
2.786347
20
1.573402
10
2.786047
20
1.57341
10
2.785447
20
1.573427
10
2.766436
20
1.573845
10
2.747792
20
1.574039
10
2.729519
20
1.574016
10
2.711617
20
1.573785
10
2.694091
20
1.573354
10
2.676942
20
1.572734
10
2.660171
20
1.571931
10
2.643782
20
1.570956
10
2.627775
20
1.569816
10
2.612152
20
1.568521
10
2.596914
20
1.567079
10
2.582064
20
1.565499
10
2.567601
20
1.56379
10
2.553527
20
1.561961
10
2.539843
20
1.56002
10
2.526549
20
1.557976
10
2.513646
20
1.555839
10
2.501133
20
1.553617
10
2.489012
20
1.551318
10
2.477282
20
1.548951
10
2.465944
20
1.546526
10
2.454996
20
1.544051
10
2.444439
20
1.541535
10
2.434272
20
1.538987
10
2.424493
20
1.536414
10
2.415104
20
1.533827
10
2.406101
20
1.531234
10
2.397484
20
1.528642
10
2.389253
20
1.526062
10
2.381404
20
1.523501
10
2.373938
20
1.520968
10
2.366851
20
1.518472
10
2.360142
20
1.516021
10
2.353809
20
1.513623
10
2.34785
20
1.511287
10
2.342263
20
1.509022
10
2.337044
20
1.506835
10
2.332192
20
1.504734
10
2.327703
20
1.502729
10
2.325558
20
1.504886
10
2.240977
20
1.628165
10
2.239737
20
1.630943
10
2.243223
20
1.634409
10
2.246929
20
1.638181
10
2.250847
20
1.642263
10
2.254972
20
1.646661
10
2.259296
20
1.65138
10
2.263812
20
1.656425
10
2.268513
20
1.661803
10
2.273393
20
1.667516
10
2.278443
20
1.673571
10
2.283657
20
1.679972
10
2.289027
20
1.686724
10
2.294545
20
1.69383
10
2.300205
20
1.701296
10
2.305998
20
1.709126
10
2.311917
20
1.717323
10
2.317954
20
1.725892
10
2.324101
20
1.734836
10
2.33035
20
1.74416
10
2.336693
20
1.753866
10
2.343122
20
1.763958
10
2.349629
20
1.77444
10
2.356205
20
1.785314
10
2.362843
20
1.796584
10
2.369534
20
1.808252
10
2.376269
20
1.820321
10
2.383041
20
1.832793
10
2.38984
20
1.845672
10
2.396659
20
1.858959
10
2.403488
20
1.872656
10
2.410318
20
1.886766
10
2.417142
20
1.901291
10
2.423951
20
1.916231
10
2.430735
20
1.931589
10
2.437485
20
1.947366
10
2.444194
20
1.963563
10
2.450852
20
1.980182
10
2.45745
20
1.997223
10
2.463979
20
2.014687
10
2.470431
20
2.032575
10
2.470631
20
2.033141
10
2.470731
20
2.033424
10
2.470756
20
2.033495
10
2.470769
20
2.03353
10
2.470763
20
2.033551
10
2.398461
20
2.118345
10
2.398441
20
2.118354
10
2.398404
20
2.118347
10
2.39833
20
2.118333
10
2.398035
20
2.118279
10
2.397445
20
2.118171
10
2.378762
20
2.114628
10
2.360485
20
2.11094
10
2.342616
20
2.107118
10
2.325154
20
2.103171
10
2.3081
20
2.099106
10
2.291454
20
2.094933
10
2.275217
20
2.090661
10
2.259389
20
2.0863
10
2.243968
20
2.081857
10
2.228956
20
2.077342
10
2.214352
20
2.072763
10
2.200154
20
2.068131
10
2.186363
20
2.063452
10
2.172977
20
2.058736
10
2.159995
20
2.053993
10
2.147416
20
2.04923
10
2.135239
20
2.044457
10
2.123462
20
2.039681
10
2.112084
20
2.034912
10
2.101103
20
2.030159
10
2.090516
20
2.02543
10
2.080322
20
2.020733
10
2.070519
20
2.016077
10
2.061104
20
2.01147
10
2.052074
20
2.006921
10
2.043427
20
2.002438
10
2.035161
20
1.998029
10
2.027271
20
1.993703
10
2.019756
20
1.989467
10
2.012611
20
1.98533
10
2.005834
20
1.981301
10
1.999421
20
1.977385
10
1.993369
20
1.973593
10
1.987673
20
1.969931
10
1.98233
20
1.966407
10
1.977335
20
1.96303
10
1.972686
20
1.959805
10
1.968376
20
1.956742
10
1.964402
20
1.953848
10
1.961855
20
1.955511
10
1.853492
20
2.058511
10
1.851701
20
2.06097
10
1.85439
20
2.065086
10
1.857231
20
2.069545
10
1.860215
20
2.074353
10
1.863335
20
2.079512
10
1.866584
20
2.085027
10
1.869952
20
2.090901
10
1.873432
20
2.097139
10
1.877017
20
2.103742
10
1.880698
20
2.110714
10
1.884467
20
2.118059
10
1.888316
20
2.12578
10
1.892237
20
2.133879
10
1.896221
20
2.142358
10
1.900259
20
2.151221
10
1.904344
20
2.16047
10
1.908468
20
2.170107
10
1.912621
20
2.180134
10
1.916795
20
2.190553
10
1.920981
20
2.201366
10
1.925171
20
2.212574
10
1.929357
20
2.224179
10
1.933529
20
2.236183
10
1.937678
20
2.248587
10
1.941797
20
2.261391
10
1.945876
20
2.274596
10
1.949907
20
2.288204
10
1.95388
20
2.302215
10
1.957787
20
2.316629
10
1.961619
20
2.331447
10
1.965366
20
2.346669
10
1.969021
20
2.362295
10
1.972575
20
2.378324
10
1.976017
20
2.394757
10
1.97934
20
2.411593
10
1.982535
20
2.428831
10
1.985592
20
2.446471
10
1.988503
20
2.464511
10
1.991258
20
2.482951
10
1.99385
20
2.50179
10
1.993928
20
2.502385
10
1.993967
20
2.502683
10
1.993977
20
2.502757
10
1.993982
20
2.502794
10
1.993972
20
2.502813
10
1.90562
20
2.570722
10
1.905599
20
2.570727
10
1.905564
20
2.570712
10
1.905495
20
2.570684
10
1.905217
20
2.570569
10
1.904662
20
2.570341
10
1.887124
20
2.56299
10
1.870014
20
2.555584
10
1.853329
20
2.54813
10
1.83707
20
2.540638
10
1.821234
20
2.533116
10
1.805819
20
2.525574
10
1.790825
20
2.51802
10
1.776249
20
2.510462
10
1.76209
20
2.502911
10
1.748344
20
2.495373
10
1.735011
20
2.487858
10
1.722087
20
2.480375
10
1.70957
20
2.472931
10
1.697457
20
2.465535
10
1.685745
20
2.458196
10
1.674431
20
2.450922
10
1.663513
20
2.443721
10
1.652986
20
2.436602
10
1.642848
20
2.429572
10
1.633095
20
2.422639
10
1.623723
20
2.415812
10
1.614728
20
2.409098
10
1.606107
20
2.402505
10
1.597855
20
2.396042
10
1.589969
20
2.389715
10
1.582443
20
2.383532
10
1.575274
20
2.377501
10
1.568456
20
2.371629
10
1.561986
20
2.365923
10
1.555858
20
2.360392
10
1.550067
20
2.355041
10
1.544608
20
2.349878
10
1.539476
20
2.34491
10
1.534666
20
2.340144
10
1.530172
20
2.335586
10
1.525989
20
2.331244
10
1.522111
20
2.327123
10
1.518533
20
2.323231
10
1.515247
20
2.319574
10
1.51241
20
2.320671
10
1.385
20
2.39889
10
1.382737
20
2.400924
10
1.384512
20
2.405508
10
1.386363
20
2.410461
10
1.388283
20
2.415784
10
1.390262
20
2.421479
10
1.392293
20
2.427549
10
1.394366
20
2.433995
10
1.396474
20
2.44082
10
1.398607
20
2.448024
10
1.400758
20
2.455609
10
1.402918
20
2.463578
10
1.405078
20
2.47193
10
1.407229
20
2.480666
10
1.409362
20
2.489789
10
1.41147
20
2.499298
10
1.413543
20
2.509194
10
1.415573
20
2.519478
10
1.41755
20
2.530149
10
1.419467
20
2.541208
10
1.421313
20
2.552655
10
1.423082
20
2.56449
10
1.424763
20
2.576712
10
1.426348
20
2.589321
10
1.427828
20
2.602316
10
1.429195
20
2.615696
10
1.430439
20
2.629461
10
1.431552
20
2.64361
10
1.432525
20
2.658141
10
1.43335
20
2.673052
10
1.434017
20
2.688343
10
1.434519
20
2.704012
10
1.434845
20
2.720056
10
1.434988
20
2.736474
10
1.434939
20
2.753263
10
1.434689
20
2.770422
10
1.434229
20
2.787948
10
1.433552
20
2.805838
10
1.432649
20
2.824089
10
1.43151
20
2.842699
10
1.430128
20
2.861664
10
1.430081
20
2.862263
10
1.430057
20
2.862562
10
1.430051
20
2.862637
10
1.430048
20
2.862674
10
1.430035
20
2.862691
10
1.329494
20
2.910746
10
1.329473
20
2.910746
10
1.329442
20
2.910725
10
1.32938
20
2.910683
10
1.329132
20
2.910513
10
1.328637
20
2.910174
10
1.313011
20
2.899338
10
1.297814
20
2.888536
10
1.283044
20
2.877776
10
1.268697
20
2.867067
10
1.254771
20
2.856417
10
1.241262
20
2.845835
10
1.228166
20
2.835328
10
1.21548
20
2.824906
10
1.2032
20
2.814575
10
1.191322
20
2.804344
10
1.179842
20
2.794222
10
1.168756
20
2.784214
10
1.15806
20
2.774331
10
1.147749
20
2.764579
10
1.137819
20
2.754965
10
1.128265
20
2.745498
10
1.119083
20
2.736184
10
1.110266
20
2.727031
10
1.101812
20
2.718047
10
1.093713
20
2.709238
10
1.085965
20
2.700612
10
1.078563
20
2.692174
10
1.071501
20
2.683933
10
1.064773
20
2.675895
10
1.058375
20
2.668067
10
1.052299
20
2.660455
10
1.04654
20
2.653065
10
1.041092
20
2.645904
10
1.035949
20
2.638977
10
1.031105
20
2.632292
10
1.026553
20
2.625854
10
1.022287
20
2.619669
10
1.018301
20
2.613743
10
1.014587
20
2.608081
10
1.011139
20
2.602689
10
1.00795
20
2.597572
10
1.005013
20
2.592735
10
1.002322
20
2.588184
10
0.999869
20
2.583923
10
0.996866
20
2.584407
10
0.855977
20
2.634427
10
0.853341
20
2.635945
10
0.854124
20
2.640798
10
0.854905
20
2.646028
10
0.855676
20
2.651633
10
0.856428
20
2.657616
10
0.857152
20
2.663975
10
0.85784
20
2.670711
10
0.858483
20
2.677825
10
0.859072
20
2.685315
10
0.859599
20
2.693182
10
0.860054
20
2.701426
10
0.86043
20
2.710044
10
0.860718
20
2.719037
10
0.860908
20
2.728404
10
0.860993
20
2.738143
10
0.860963
20
2.748254
10
0.86081
20
2.758735
10
0.860526
20
2.769584
10
0.860101
20
2.7808
10
0.859527
20
2.792381
10
0.858797
20
2.804325
10
0.8579
20
2.816629
10
0.856829
20
2.829292
10
0.855575
20
2.842311
10
0.85413
20
2.855683
10
0.852485
20
2.869406
10
0.850632
20
2.883477
10
0.848563
20
2.897893
10
0.846269
20
2.91265
10
0.843743
20
2.927745
10
0.840975
20
2.943176
10
0.837959
20
2.958937
10
0.834685
20
2.975026
10
0.831146
20
2.991438
10
0.827334
20
3.00817
10
0.823241
20
3.025217
10
0.818859
20
3.042576
10
0.814181
20
3.06024
10
0.809198
20
3.078207
10
0.803903
20
3.096471
10
0.803732
20
3.097046
10
0.803647
20
3.097334
10
0.803625
20
3.097406
10
0.803615
20
3.097442
10
0.803598
20
3.097455
10
0.695263
20
3.123557
10
0.695243
20
3.123553
10
0.695217
20
3.123525
10
0.695165
20
3.123471
10
0.694958
20
3.123254
10
0.694544
20
3.122819
10
0.681512
20
3.108971
10
0.668893
20
3.095245
10
0.656683
20
3.08165
10
0.644876
20
3.068192
10
0.633469
20
3.054879
10
0.622455
20
3.04172
10
0.611829
20
3.02872
10
0.601587
20
3.015887
10
0.591724
20
3.003229
10
0.582232
20
2.990752
10
0.573108
20
2.978464
10
0.564345
20
2.966371
10
0.555938
20
2.954479
10
0.54788
20
2.942796
10
0.540166
20
2.931328
10
0.532789
20
2.920081
10
0.525743
20
2.909062
10
0.519023
20
2.898277
10
0.512621
20
2.887731
10
0.50653
20
2.87743
10
0.500745
20
2.867382
10
0.495259
20
2.85759
10
0.490065
20
2.848061
10
0.485156
20
2.838799
10
0.480524
20
2.829812
10
0.476164
20
2.821102
10
0.472068
20
2.812677
10
0.468228
20
2.804539
10
0.464637
20
2.796695
10
0.461289
20
2.789149
10
0.458175
20
2.781906
10
0.455288
20
2.774969
10
0.452621
20
2.768343
10
0.450165
20
2.762033
10
0.447913
20
2.756041
10
0.445858
20
2.750373
10
0.443991
20
2.745031
10
0.442305
20
2.74002
10
0.440792
20
2.735343
10
0.437753
20
2.735191
10
0.289544
20
2.754826
10
0.28665
20
2.755763
10
0.286406
20
2.760673
10
0.286083
20
2.76595
10
0.285672
20
2.771594
10
0.285163
20
2.777602
10
0.28455
20
2.783973
10
0.283822
20
2.790705
10
0.282972
20
2.797797
10
0.281991
20
2.805246
10
0.28087
20
2.813051
10
0.279602
20
2.821208
10
0.278178
20
2.829717
10
0.276589
20
2.838573
10
0.274828
20
2.847775
10
0.272886
20
2.857319
10
0.270755
20
2.867203
10
0.268426
20
2.877423
10
0.265892
20
2.887976
10
0.263145
20
2.898858
10
0.260176
20
2.910067
10
0.256978
20
2.921597
10
0.253543
20
2.933446
10
0.249862
20
2.94561
10
0.245929
20
2.958084
10
0.241735
20
2.970863
10
0.237273
20
2.983944
10
0.232535
20
2.997323
10
0.227514
20
3.010993
10
0.222202
20
3.024951
10
0.216592
20
3.039191
10
0.210677
20
3.053709
10
0.20445
20
3.068499
10
0.197902
20
3.083555
10
0.191029
20
3.098873
10
0.183821
20
3.114447
10
0.176273
20
3.130271
10
0.168378
20
3.146338
10
0.160129
20
3.162644
10
0.15152
20
3.179182
10
0.142543
20
3.195946
10
0.142257
20
3.196473
10
0.142113
20
3.196737
10
0.142077
20
3.196803
10
0.142059
20
3.196836
10
0.14204
20
3.196846
10
0.030646
20
3.199853
10
0.030627
20
3.199844
10
0.030607
20
3.199812
10
0.030568
20
3.199749
10
0.03041
20
3.199493
10
0.030096
20
3.198982
10
0.020228
20
3.182727
10
0.010739
20
3.166677
10
0.001622
20
3.15084
10
-0.007129
20
3.135222
10
-0.015519
20
3.119828
10
-0.023557
20
3.104666
10
-0.031247
20
3.089741
10
-0.038597
20
3.07506
10
-0.045613
20
3.060628
10
-0.052303
20
3.04645
10
-0.058673
20
3.032533
10
-0.06473
20
3.018882
10
-0.070481
20
3.005503
10
-0.075934
20
2.9924
10
-0.081095
20
2.979579
10
-0.085973
20
2.967044
10
-0.090573
20
2.9548
10
-0.094905
20
2.942853
10
-0.098974
20
2.931207
10
-0.10279
20
2.919865
10
-0.106359
20
2.908833
10
-0.10969
20
2.898115
10
-0.112789
20
2.887714
10
-0.115666
20
2.877634
10
-0.118327
20
2.86788
10
-0.120782
20
2.858455
10
-0.123037
20
2.849361
10
-0.125101
20
2.840604
10
-0.126982
20
2.832184
10
-0.128688
20
2.824107
10
-0.130228
20
2.816374
10
-0.13161
20
2.808989
10
-0.132841
20
2.801953
10
-0.133931
20
2.79527
10
-0.134888
20
2.788942
10
-0.13572
20
2.78297
10
-0.136435
20
2.777357
10
-0.137042
20
2.772105
10
-0.13755
20
2.767215
10
-0.140491
20
2.766435
10
-0.289544
20
2.754826
10
-0.29257
20
2.755141
10
-0.293828
20
2.759893
10
-0.295242
20
2.764988
10
-0.296818
20
2.770422
10
-0.298564
20
2.776193
10
-0.300489
20
2.782297
10
-0.302601
20
2.788731
10
-0.304907
20
2.795491
10
-0.307415
20
2.802574
10
-0.310134
20
2.809975
10
-0.31307
20
2.817691
10
-0.316232
20
2.825717
10
-0.319627
20
2.834049
10
-0.323263
20
2.842684
10
-0.327147
20
2.851616
10
-0.331287
20
2.86084
10
-0.335689
20
2.870353
10
-0.340362
20
2.880148
10
-0.345312
20
2.890222
10
-0.350546
20
2.900568
10
-0.356072
20
2.911182
10
-0.361896
20
2.922058
10
-0.368025
20
2.933191
10
-0.374466
20
2.944574
10
-0.381225
20
2.956202
10
-0.388309
20
2.96807
10
-0.395725
20
2.980171
10
-0.403478
20
2.992498
10
-0.411576
20
3.005047
10
-0.420024
20
3.01781
10
-0.428828
20
3.03078
10
-0.437995
20
3.043952
10
-0.447529
20
3.057318
10
-0.457438
20
3.070873
10
-0.467726
20
3.084607
10
-0.478399
20
3.098516
10
-0.489462
20
3.112591
10
-0.500921
20
3.126826
10
-0.512781
20
3.141212
10
-0.525046
20
3.155743
10
-0.525436
20
3.1562
10
-0.525631
20
3.156428
10
-0.52568
20
3.156485
10
-0.525705
20
3.156513
10
-0.525725
20
3.156519
10
-0.63531
20
3.1363
10
-0.635328
20
3.136288
10
-0.63534
20
3.136252
10
-0.635365
20
3.136182
10
-0.635466
20
3.135899
10
-0.635668
20
3.135333
10
-0.64194
20
3.117382
10
-0.647885
20
3.09971
10
-0.65351
20
3.082324
10
-0.658822
20
3.065227
10
-0.663829
20
3.048426
10
-0.668538
20
3.031924
10
-0.672957
20
3.015727
10
-0.677094
20
2.999838
10
-0.680957
20
2.984262
10
-0.684553
20
2.969004
10
-0.68789
20
2.954066
10
-0.690977
20
2.939455
10
-0.69382
20
2.925172
10
-0.69643
20
2.911221
10
-0.698813
20
2.897607
10
-0.700977
20
2.884332
10
-0.702932
20
2.8714
10
-0.704684
20
2.858813
10
-0.706244
20
2.846575
10
-0.707618
20
2.834688
10
-0.708815
20
2.823155
10
-0.709845
20
2.811978
10
-0.710714
20
2.80116
10
-0.711432
20
2.790703
10
-0.712007
20
2.780608
10
-0.712448
20
2.770879
10
-0.712764
20
2.761515
10
-0.712962
20
2.75252
10
-0.713051
20
2.743893
10
-0.713041
20
2.735638
10
-0.712939
20
2.727754
10
-0.712755
20
2.720243
10
-0.712497
20
2.713105
10
-0.712174
20
2.706341
10
-0.711794
20
2.699952
10
-0.711366
20
2.693938
10
-0.710898
20
2.688298
10
-0.710401
20
2.683035
10
-0.709881
20
2.678146
10
-0.712595
20
2.676772
10
-0.855977
20
2.634427
10
-0.859002
20
2.634105
10
-0.861222
20
2.638492
10
-0.863663
20
2.643182
10
-0.866335
20
2.64817
10
-0.869243
20
2.653452
10
-0.872395
20
2.659022
10
-0.875798
20
2.664877
10
-0.879459
20
2.671009
10
-0.883385
20
2.677416
10
-0.887583
20
2.68409
10
-0.89206
20
2.691026
10
-0.896821
20
2.69822
10
-0.901875
20
2.705664
10
-0.907226
20
2.713354
10
-0.912883
20
2.721283
10
-0.91885
20
2.729446
10
-0.925134
20
2.737835
10
-0.931741
20
2.746445
10
-0.938677
20
2.755269
10
-0.945948
20
2.764301
10
-0.95356
20
2.773534
10
-0.961518
20
2.782962
10
-0.969827
20
2.792577
10
-0.978494
20
2.802372
10
-0.987523
20
2.812341
10
-0.99692
20
2.822476
10
-1.00669
20
2.832771
10
-1.016837
20
2.843217
10
-1.027367
20
2.853808
10
-1.038283
20
2.864535
10
-1.049592
20
2.875392
10
-1.061297
20
2.88637
10
-1.073402
20
2.897462
10
-1.085912
20
2.90866
10
-1.098831
20
2.919956
10
-1.112162
20
2.931341
10
-1.12591
20
2.942809
10
-1.140078
20
2.95435
10
-1.15467
20
2.965956
10
-1.169689
20
2.977619
10
-1.170165
20
2.977985
10
-1.170403
20
2.978167
10
-1.170463
20
2.978213
10
-1.170493
20
2.978236
10
-1.170514
20
2.978237
10
-1.273501
20
2.935676
10
-1.273515
20
2.93566
10
-1.27352
20
2.935623
10
-1.27353
20
2.935549
10
-1.27357
20
2.935251
10
-1.273649
20
2.934656
10
-1.276053
20
2.915793
10
-1.278194
20
2.897271
10
-1.280081
20
2.879095
10
-1.281722
20
2.861268
10
-1.283126
20
2.843793
10
-1.284302
20
2.826672
10
-1.285256
20
2.80991
10
-1.286
20
2.793508
10
-1.286539
20
2.77747
10
-1.286884
20
2.761797
10
-1.287043
20
2.746493
10
-1.287024
20
2.731558
10
-1.286836
20
2.716996
10
-1.286488
20
2.702808
10
-1.285988
20
2.688996
10
-1.285345
20
2.675561
10
-1.284568
20
2.662505
10
-1.283666
20
2.649829
10
-1.282647
20
2.637534
10
-1.28152
20
2.625621
10
-1.280293
20
2.614091
10
-1.278976
20
2.602945
10
-1.277577
20
2.592182
10
-1.276105
20
2.581804
10
-1.274569
20
2.571811
10
-1.272978
20
2.562202
10
-1.271339
20
2.552978
10
-1.269663
20
2.544137
10
-1.267957
20
2.535681
10
-1.26623
20
2.527608
10
-1.264492
20
2.519917
10
-1.26275
20
2.512609
10
-1.261014
20
2.50568
10
-1.259291
20
2.499132
10
-1.257591
20
2.492961
10
-1.255922
20
2.487167
10
-1.254292
20
2.481749
10
-1.252711
20
2.476703
10
-1.251186
20
2.47203
10
-1.253555
20
2.470121
10
-1.385
20
2.39889
10
-1.387892
20
2.397947
10
-1.390975
20
2.401777
10
-1.394339
20
2.405856
10
-1.397989
20
2.41018
10
-1.401931
20
2.414742
10
-1.406173
20
2.419535
10
-1.410719
20
2.424554
10
-1.415575
20
2.429792
10
-1.420747
20
2.435242
10
-1.426241
20
2.440897
10
-1.432062
20
2.446751
10
-1.438215
20
2.452798
10
-1.444706
20
2.459029
10
-1.451539
20
2.465438
10
-1.458721
20
2.472018
10
-1.466254
20
2.478761
10
-1.474145
20
2.485661
10
-1.482398
20
2.492709
10
-1.491017
20
2.499898
10
-1.500007
20
2.507221
10
-1.509372
20
2.51467
10
-1.519116
20
2.522237
10
-1.529243
20
2.529914
10
-1.539757
20
2.537693
10
-1.550662
20
2.545567
10
-1.561961
20
2.553527
10
-1.573657
20
2.561566
10
-1.585755
20
2.569674
10
-1.598256
20
2.577844
10
-1.611165
20
2.586067
10
-1.624484
20
2.594335
10
-1.638215
20
2.60264
10
-1.652362
20
2.610973
10
-1.666927
20
2.619325
10
-1.681912
20
2.627688
10
-1.697319
20
2.636053
10
-1.713151
20
2.644411
10
-1.729409
20
2.652755
10
-1.746095
20
2.661073
10
-1.76321
20
2.669359
10
-1.763752
20
2.669618
10
-1.764023
20
2.669747
10
-1.764091
20
2.669779
10
-1.764125
20
2.669795
10
-1.764146
20
2.669792
10
-1.856033
20
2.606749
10
-1.856044
20
2.60673
10
-1.856041
20
2.606693
10
-1.856035
20
2.606618
10
-1.856012
20
2.606319
10
-1.855966
20
2.60572
10
-1.854395
20
2.58677
10
-1.852639
20
2.568208
10
-1.850705
20
2.550037
10
-1.848604
20
2.532258
10
-1.846345
20
2.514872
10
-1.843935
20
2.497882
10
-1.841384
20
2.481287
10
-1.8387
20
2.465089
10
-1.835894
20
2.449289
10
-1.832973
20
2.433887
10
-1.829946
20
2.418884
10
-1.826822
20
2.40428
10
-1.823611
20
2.390075
10
-1.820321
20
2.376269
10
-1.81696
20
2.362863
10
-1.813538
20
2.349855
10
-1.810063
20
2.337246
10
-1.806545
20
2.325035
10
-1.802992
20
2.31322
10
-1.799413
20
2.301802
10
-1.795816
20
2.290779
10
-1.79221
20
2.28015
10
-1.788604
20
2.269914
10
-1.785007
20
2.260068
10
-1.781426
20
2.250613
10
-1.777872
20
2.241545
10
-1.774351
20
2.232863
10
-1.770873
20
2.224564
10
-1.767447
20
2.216647
10
-1.764079
20
2.20911
10
-1.76078
20
2.201949
10
-1.757557
20
2.195161
10
-1.754418
20
2.188746
10
-1.751371
20
2.182698
10
-1.748425
20
2.177016
10
-1.745588
20
2.171696
10
-1.742868
20
2.166734
10
-1.740272
20
2.162128
10
-1.737808
20
2.157874
10
-1.739729
20
2.155514
10
-1.853492
20
2.058511
10
-1.856125
20
2.056987
10
-1.859937
20
2.060092
10
-1.864075
20
2.063383
10
-1.868544
20
2.066854
10
-1.873349
20
2.070496
10
-1.878494
20
2.074303
10
-1.883984
20
2.078267
10
-1.889823
20
2.08238
10
-1.896016
20
2.086636
10
-1.902565
20
2.091025
10
-1.909476
20
2.095542
10
-1.916752
20
2.100176
10
-1.924396
20
2.104922
10
-1.932413
20
2.10977
10
-1.940805
20
2.114713
10
-1.949577
20
2.119743
10
-1.95873
20
2.124851
10
-1.968267
20
2.130029
10
-1.978193
20
2.135269
10
-1.988509
20
2.140563
10
-1.999218
20
2.145902
10
-2.010322
20
2.151278
10
-2.021824
20
2.156681
10
-2.033726
20
2.162105
10
-2.04603
20
2.16754
10
-2.058736
20
2.172977
10
-2.071849
20
2.178407
10
-2.085367
20
2.183823
10
-2.099294
20
2.189216
10
-2.113631
20
2.194575
10
-2.128377
20
2.199894
10
-2.143535
20
2.205162
10
-2.159106
20
2.210371
10
-2.175089
20
2.215513
10
-2.191485
20
2.220577
10
-2.208295
20
2.225556
10
-2.225518
20
2.230441
10
-2.243155
20
2.235221
10
-2.261206
20
2.239889
10
-2.279671
20
2.244435
10
-2.280254
20
2.244575
10
-2.280546
20
2.244645
10
-2.280619
20
2.244663
10
-2.280656
20
2.244672
10
-2.280676
20
2.244664
10
-2.357448
20
2.163894
10
-2.357455
20
2.163874
10
-2.357444
20
2.163838
10
-2.357423
20
2.163766
10
-2.357338
20
2.163478
10
-2.357169
20
2.162902
10
-2.351692
20
2.144692
10
-2.346114
20
2.126901
10
-2.340445
20
2.109529
10
-2.334694
20
2.092575
10
-2.328869
20
2.07604
10
-2.322979
20
2.059921
10
-2.317034
20
2.04422
10
-2.311041
20
2.028934
10
-2.305011
20
2.014062
10
-2.298951
20
1.999604
10
-2.292871
20
1.985558
10
-2.28678
20
1.971923
10
-2.280685
20
1.958696
10
-2.274596
20
1.945876
10
-2.268522
20
1.933461
10
-2.26247
20
1.92145
10
-2.25645
20
1.909838
10
-2.25047
20
1.898625
10
-2.244538
20
1.887808
10
-2.238663
20
1.877383
10
-2.232853
20
1.867349
10
-2.227116
20
1.857702
10
-2.22146
20
1.848439
10
-2.215895
20
1.839557
10
-2.210427
20
1.831052
10
-2.205064
20
1.822921
10
-2.199816
20
1.815161
10
-2.194689
20
1.807767
10
-2.189691
20
1.800735
10
-2.18483
20
1.794062
10
-2.180114
20
1.787744
10
-2.17555
20
1.781775
10
-2.171145
20
1.776152
10
-2.166908
20
1.770871
10
-2.162845
20
1.765925
10
-2.158964
20
1.761311
10
-2.155271
20
1.757024
10
-2.151774
20
1.753058
10
-2.14848
20
1.749408
10
-2.149868
20
1.746701
10
-2.240977
20
1.628165
10
-2.243236
20
1.626127
10
-2.24761
20
1.628372
10
-2.252342
20
1.630731
10
-2.257435
20
1.633196
10
-2.262892
20
1.63576
10
-2.268716
20
1.638413
10
-2.274911
20
1.641149
10
-2.281477
20
1.643959
10
-2.288419
20
1.646834
10
-2.295738
20
1.649766
10
-2.303437
20
1.652747
10
-2.311517
20
1.655767
10
-2.319982
20
1.65882
10
-2.328831
20
1.661895
10
-2.338068
20
1.664986
10
-2.347693
20
1.668082
10
-2.357708
20
1.671175
10
-2.368114
20
1.674257
10
-2.378912
20
1.677319
10
-2.390104
20
1.680352
10
-2.401689
20
1.683348
10
-2.413668
20
1.686297
10
-2.426042
20
1.689192
10
-2.438811
20
1.692022
10
-2.451976
20
1.69478
10
-2.465535
20
1.697457
10
-2.47949
20
1.700042
10
-2.493839
20
1.702529
10
-2.508583
20
1.704908
10
-2.523721
20
1.70717
10
-2.539251
20
1.709306
10
-2.555173
20
1.711308
10
-2.571486
20
1.713166
10
-2.588189
20
1.714872
10
-2.60528
20
1.716417
10
-2.622757
20
1.717792
10
-2.64062
20
1.718989
10
-2.658866
20
1.719998
10
-2.677493
20
1.720811
10
-2.696499
20
1.721419
10
-2.697099
20
1.721435
10
-2.697399
20
1.721442
10
-2.697474
20
1.721444
10
-2.697512
20
1.721445
10
-2.69753
20
1.721434
10
-2.755831
20
1.626467
10
-2.755833
20
1.626446
10
-2.755815
20
1.626413
10
-2.75578
20
1.626347
10
-2.755637
20
1.626082
10
-2.755352
20
1.625554
10
-2.746208
20
1.608881
10
-2.737054
20
1.592639
10
-2.727897
20
1.576825
10
-2.718746
20
1.561437
10
-2.70961
20
1.546474
10
-2.700498
20
1.531933
10
-2.691418
20
1.51781
10
-2.682378
20
1.504104
10
-2.673388
20
1.490812
10
-2.664455
20
1.477929
10
-2.655587
20
1.465454
10
-2.646794
20
1.453383
10
-2.638083
20
1.441713
10
-2.629461
20
1.430439
10
-2.620938
20
1.419559
10
-2.612522
20
1.409067
10
-2.604219
20
1.398961
10
-2.596038
20
1.389237
10
-2.587987
20
1.379889
10
-2.580073
20
1.370914
10
-2.572303
20
1.362307
10
-2.564686
20
1.354063
10
-2.557228
20
1.346179
10
-2.549937
20
1.338648
10
-2.542821
20
1.331466
10
-2.535885
20
1.324627
10
-2.529138
20
1.318128
10
-2.522585
20
1.311961
10
-2.516235
20
1.306123
10
-2.510093
20
1.300606
10
-2.504166
20
1.295406
10
-2.498461
20
1.290517
10
-2.492983
20
1.285933
10
-2.48774
20
1.281647
10
-2.482738
20
1.277655
10
-2.477982
20
1.273948
10
-2.473479
20
1.270522
10
-2.469234
20
1.26737
10
-2.465253
20
1.264485
10
-2.466048
20
1.261549
10
-2.530521
20
1.126661
10
-2.532306
20
1.124198
10
-2.537052
20
1.125484
10
-2.542171
20
1.126807
10
-2.547665
20
1.12816
10
-2.553536
20
1.129533
10
-2.559785
20
1.130918
10
-2.566412
20
1.132306
10
-2.57342
20
1.133689
10
-2.580808
20
1.135058
10
-2.588576
20
1.136404
10
-2.596727
20
1.137719
10
-2.605259
20
1.138993
10
-2.614172
20
1.140219
10
-2.623468
20
1.141388
10
-2.633145
20
1.14249
10
-2.643204
20
1.143517
10
-2.653643
20
1.144461
10
-2.664463
20
1.145312
10
-2.675662
20
1.146062
10
-2.687239
20
1.146702
10
-2.699194
20
1.147224
10
-2.711524
20
1.147618
10
-2.72423
20
1.147876
10
-2.737309
20
1.14799
10
-2.750759
20
1.147951
10
-2.764579
20
1.147749
10
-2.778766
20
1.147378
10
-2.793319
20
1.146827
10
-2.808235
20
1.146088
10
-2.823512
20
1.145153
10
-2.839147
20
1.144014
10
-2.855137
20
1.142661
10
-2.87148
20
1.141087
10
-2.888173
20
1.139283
10
-2.905211
20
1.137241
10
-2.922593
20
1.134953
10
-2.940314
20
1.132409
10
-2.958371
20
1.129603
10
-2.97676
20
1.126525
10
-2.995477
20
1.123168
10
-2.996067
20
1.123059
10
-2.996362
20
1.123004
10
-2.996436
20
1.12299
10
-2.996473
20
1.122983
10
-2.996488
20
1.122968
10
-3.033771
20
1.017955
10
-3.033769
20
1.017934
10
-3.033744
20
1.017905
10
-3.033696
20
1.017848
10
-3.033501
20
1.01762
10
-3.033112
20
1.017162
10
-3.020702
20
1.002754
10
-3.008371
20
0.98877
10
-2.996126
20
0.975206
10
-2.983976
20
0.962057
10
-2.971929
20
0.94932
10
-2.959992
20
0.936991
10
-2.948175
20
0.925065
10
-2.936483
20
0.913538
10
-2.924925
20
0.902405
10
-2.913509
20
0.891662
10
-2.902242
20
0.881303
10
-2.891131
20
0.871324
10
-2.880183
20
0.86172
10
-2.869406
20
0.852485
10
-2.858807
20
0.843614
10
-2.848393
20
0.835102
10
-2.838171
20
0.826943
10
-2.828147
20
0.819132
10
-2.818328
20
0.811662
10
-2.808721
20
0.804529
10
-2.799332
20
0.797725
10
-2.790167
20
0.791246
10
-2.781233
20
0.785084
10
-2.772536
20
0.779233
10
-2.764081
20
0.773688
10
-2.755875
20
0.768441
10
-2.747924
20
0.763486
10
-2.740233
20
0.758817
10
-2.732807
20
0.754426
10
-2.725652
20
0.750307
10
-2.718774
20
0.746453
10
-2.712177
20
0.742857
10
-2.705866
20
0.739512
10
-2.699847
20
0.73641
10
-2.694124
20
0.733544
10
-2.688701
20
0.730908
10
-2.683584
20
0.728493
10
-2.678776
20
0.726292
10
-2.674283
20
0.724298
10
-2.67445
20
0.721261
10
-2.709469
20
0.575915
10
-2.710703
20
0.573135
10
-2.715612
20
0.573406
10
-2.720894
20
0.573637
10
-2.72655
20
0.573817
10
-2.732578
20
0.57394
10
-2.738978
20
0.573995
10
-2.74575
20
0.573975
10
-2.752892
20
0.573871
10
-2.760402
20
0.573674
10
-2.768281
20
0.573375
10
-2.776527
20
0.572967
10
-2.785138
20
0.57244
10
-2.794111
20
0.571786
10
-2.803447
20
0.570996
10
-2.813142
20
0.570062
10
-2.823194
20
0.568976
10
-2.833602
20
0.567728
10
-2.844362
20
0.566311
10
-2.855472
20
0.564716
10
-2.866929
20
0.562936
10
-2.878731
20
0.56096
10
-2.890874
20
0.558782
10
-2.903356
20
0.556393
10
-2.916172
20
0.553785
10
-2.92932
20
0.55095
10
-2.942796
20
0.54788
10
-2.956596
20
0.544567
10
-2.970717
20
0.541002
10
-2.985153
20
0.537178
10
-2.999902
20
0.533088
10
-3.014958
20
0.528723
10
-3.030318
20
0.524075
10
-3.045977
20
0.519138
10
-3.061929
20
0.513903
10
-3.078171
20
0.508363
10
-3.094697
20
0.50251
10
-3.111502
20
0.496338
10
-3.128581
20
0.489838
10
-3.145928
20
0.483005
10
-3.163538
20
0.47583
10
-3.164093
20
0.4756
10
-3.16437
20
0.475485
10
-3.16444
20
0.475456
10
-3.164474
20
0.475442
10
-3.164486
20
0.475424
10
-3.179121
20
0.364954
10
-3.179114
20
0.364934
10
-3.179084
20
0.364911
10
-3.179025
20
0.364865
10
-3.178787
20
0.364682
10
-3.178311
20
0.364315
10
-3.163177
20
0.352803
10
-3.148207
20
0.341688
10
-3.13341
20
0.330965
10
-3.118792
20
0.32063
10
-3.10436
20
0.310677
10
-3.090121
20
0.301098
10
-3.076082
20
0.29189
10
-3.062249
20
0.283046
10
-3.048629
20
0.274559
10
-3.035229
20
0.266424
10
-3.022054
20
0.258634
10
-3.009111
20
0.251184
10
-2.996406
20
0.244065
10
-2.983944
20
0.237273
10
-2.971733
20
0.2308
10
-2.959777
20
0.224639
10
-2.948081
20
0.218784
10
-2.936652
20
0.213227
10
-2.925495
20
0.207962
10
-2.914614
20
0.202982
10
-2.904016
20
0.198279
10
-2.893704
20
0.193847
10
-2.883684
20
0.189677
10
-2.873961
20
0.185763
10
-2.864538
20
0.182096
10
-2.855421
20
0.17867
10
-2.846613
20
0.175477
10
-2.838119
20
0.172509
10
-2.829943
20
0.169758
10
-2.822088
20
0.167216
10
-2.814558
20
0.164877
10
-2.807358
20
0.162731
10
-2.80049
20
0.16077
10
-2.793957
20
0.158988
10
-2.787763
20
0.157375
10
-2.781911
20
0.155923
10
-2.776404
20
0.154625
10
-2.771243
20
0.153472
10
-2.766433
20
0.152456
10
-2.765965
20
0.14945
10
-2.77
20
0
10
-2.770629
20
-0.002976
10
-2.775487
20
-0.003732
10
-2.780702
20
-0.004605
10
-2.786272
20
-0.005604
10
-2.792193
20
-0.006737
10
-2.798465
20
-0.008014
10
-2.805085
20
-0.009441
10
-2.812049
20
-0.011028
10
-2.819355
20
-0.012782
10
-2.826999
20
-0.014712
10
-2.83498
20
-0.016826
10
-2.843293
20
-0.019132
10
-2.851934
20
-0.021638
10
-2.860902
20
-0.024351
10
-2.870191
20
-0.02728
10
-2.879797
20
-0.030433
10
-2.889718
20
-0.033817
10
-2.899948
20
-0.03744
10
-2.910484
20
-0.04131
10
-2.921321
20
-0.045434
10
-2.932454
20
-0.04982
10
-2.943879
20
-0.054475
10
-2.955591
20
-0.059407
10
-2.967586
20
-0.064622
10
-2.979857
20
-0.070129
10
-2.9924
20
-0.075934
10
-3.005209
20
-0.082044
10
-3.01828
20
-0.088467
10
-3.031606
20
-0.095209
10
-3.045182
20
-0.102276
10
-3.059002
20
-0.109676
10
-3.07306
20
-0.117416
10
-3.08735
20
-0.125501
10
-3.101865
20
-0.133938
10
-3.1166
20
-0.142734
10
-3.131548
20
-0.151895
10
-3.146703
20
-0.161426
10
-3.162057
20
-0.171334
10
-3.177604
20
-0.181625
10
-3.193338
20
-0.192305
10
-3.193833
20
-0.192645
10
-3.19408
20
-0.192815
10
-3.194142
20
-0.192858
10
-3.194173
20
-0.192879
10
-3.194181
20
-0.192899
10
-3.185528
20
-0.303997
10
-3.185517
20
-0.304016
10
-3.185483
20
-0.304032
10
-3.185415
20
-0.304065
10
-3.185144
20
-0.304194
10
-3.184603
20
-0.304454
10
-3.167406
20
-0.312569
10
-3.150452
20
-0.320328
10
-3.133749
20
-0.32774
10
-3.117302
20
-0.33481
10
-3.101115
20
-0.341545
10
-3.085196
20
-0.347954
10
-3.069549
20
-0.354042
10
-3.05418
20
-0.359817
10
-3.039093
20
-0.365286
10
-3.024294
20
-0.370457
10
-3.009788
20
-0.375338
10
-2.995579
20
-0.379935
10
-2.981671
20
-0.384256
10
-2.96807
20
-0.388309
10
-2.954779
20
-0.392102
10
-2.941803
20
-0.395642
10
-2.929146
20
-0.398938
10
-2.916812
20
-0.401997
10
-2.904804
20
-0.404827
10
-2.893125
20
-0.407436
10
-2.881781
20
-0.409832
10
-2.870773
20
-0.412024
10
-2.860105
20
-0.41402
10
-2.84978
20
-0.415827
10
-2.839801
20
-0.417454
10
-2.830171
20
-0.41891
10
-2.820891
20
-0.420202
10
-2.811966
20
-0.421339
10
-2.803396
20
-0.42233
10
-2.795185
20
-0.423183
10
-2.787333
20
-0.423906
10
-2.779844
20
-0.424508
10
-2.772718
20
-0.424997
10
-2.765958
20
-0.425383
10
-2.759564
20
-0.425673
10
-2.753538
20
-0.425876
10
-2.747881
20
-0.426
10
-2.742594
20
-0.426055
10
-2.737678
20
-0.426049
10
-2.736595
20
-0.428892
10
-2.709469
20
-0.575915
10
-2.709466
20
-0.578957
10
-2.71406
20
-0.580706
10
-2.71898
20
-0.582644
10
-2.72422
20
-0.58478
10
-2.729777
20
-0.58712
10
-2.735646
20
-0.589672
10
-2.741824
20
-0.592445
10
-2.748306
20
-0.595445
10
-2.755087
20
-0.59868
10
-2.762164
20
-0.602157
10
-2.76953
20
-0.605884
10
-2.777182
20
-0.609868
10
-2.785114
20
-0.614115
10
-2.793321
20
-0.618634
10
-2.801798
20
-0.62343
10
-2.810539
20
-0.628511
10
-2.81954
20
-0.633884
10
-2.828793
20
-0.639555
10
-2.838294
20
-0.645531
10
-2.848037
20
-0.651818
10
-2.858015
20
-0.658423
10
-2.868222
20
-0.665352
10
-2.878653
20
-0.672611
10
-2.889301
20
-0.680206
10
-2.900159
20
-0.688144
10
-2.911221
20
-0.69643
10
-2.92248
20
-0.70507
10
-2.93393
20
-0.714069
10
-2.945563
20
-0.723434
10
-2.957373
20
-0.73317
10
-2.969353
20
-0.743282
10
-2.981494
20
-0.753775
10
-2.993791
20
-0.764655
10
-3.006235
20
-0.775926
10
-3.018819
20
-0.787593
10
-3.031536
20
-0.799661
10
-3.044377
20
-0.812135
10
-3.057336
20
-0.825019
10
-3.070404
20
-0.838318
10
-3.083574
20
-0.852035
10
-3.083987
20
-0.852471
10
-3.084193
20
-0.852688
10
-3.084245
20
-0.852743
10
-3.084271
20
-0.85277
10
-3.084274
20
-0.852791
10
-3.052711
20
-0.959663
10
-3.052697
20
-0.959679
10
-3.052661
20
-0.959687
10
-3.052588
20
-0.959705
10
-3.052296
20
-0.959776
10
-3.051712
20
-0.959917
10
-3.033204
20
-0.964279
10
-3.015007
20
-0.968344
10
-2.997128
20
-0.972121
10
-2.97957
20
-0.975617
10
-2.962337
20
-0.97884
10
-2.945434
20
-0.981798
10
-2.928863
20
-0.9845
10
-2.912629
20
-0.986954
10
-2.896735
20
-0.989167
10
-2.881184
20
-0.991148
10
-2.86598
20
-0.992906
10
-2.851125
20
-0.994448
10
-2.836623
20
-0.995783
10
-2.822476
20
-0.99692
10
-2.808688
20
-0.997867
10
-2.795259
20
-0.998632
10
-2.782193
20
-0.999224
10
-2.769493
20
-0.999651
10
-2.757158
20
-0.999923
10
-2.745193
20
-1.000047
10
-2.733598
20
-1.000033
10
-2.722375
20
-0.999888
10
-2.711525
20
-0.999622
10
-2.70105
20
-0.999243
10
-2.690951
20
-0.99876
10
-2.681228
20
-0.998181
10
-2.671883
20
-0.997516
10
-2.662916
20
-0.996773
10
-2.654328
20
-0.99596
10
-2.646119
20
-0.995087
10
-2.638288
20
-0.994162
10
-2.630838
20
-0.993194
10
-2.623766
20
-0.992191
10
-2.617073
20
-0.991162
10
-2.610758
20
-0.990116
10
-2.604822
20
-0.989062
10
-2.599263
20
-0.988008
10
-2.59408
20
-0.986962
10
-2.589272
20
-0.985934
10
-2.587622
20
-0.98849
10
-2.530521
20
-1.126661
10
-2.529885
20
-1.129635
10
-2.534016
20
-1.132301
10
-2.538425
20
-1.13522
10
-2.543107
20
-1.138398
10
-2.548055
20
-1.141842
10
-2.553266
20
-1.145559
10
-2.558732
20
-1.149556
10
-2.564449
20
-1.153838
10
-2.57041
20
-1.158412
10
-2.576608
20
-1.163285
10
-2.583039
20
-1.168462
10
-2.589695
20
-1.173949
10
-2.596571
20
-1.179753
10
-2.603659
20
-1.185879
10
-2.610954
20
-1.192333
10
-2.618448
20
-1.199121
10
-2.626134
20
-1.206247
10
-2.634006
20
-1.213718
10
-2.642057
20
-1.221539
10
-2.65028
20
-1.229714
10
-2.658666
20
-1.238249
10
-2.66721
20
-1.247149
10
-2.675904
20
-1.256418
10
-2.68474
20
-1.266061
10
-2.693711
20
-1.276083
10
-2.702808
20
-1.286488
10
-2.712025
20
-1.29728
10
-2.721353
20
-1.308464
10
-2.730785
20
-1.320043
10
-2.740313
20
-1.332021
10
-2.749928
20
-1.344403
10
-2.759623
20
-1.357191
10
-2.769388
20
-1.370389
10
-2.779217
20
-1.384001
10
-2.789101
20
-1.39803
10
-2.79903
20
-1.412478
10
-2.808998
20
-1.427349
10
-2.818995
20
-1.442646
10
-2.829012
20
-1.458371
10
-2.839042
20
-1.474527
10
-2.839355
20
-1.475039
10
-2.839512
20
-1.475295
10
-2.839551
20
-1.475359
10
-2.839571
20
-1.475391
10
-2.83957
20
-1.475412
10
-2.786477
20
-1.573386
10
-2.78646
20
-1.573399
10
-2.786422
20
-1.5734
10
-2.786347
20
-1.573402
10
-2.786047
20
-1.57341
10
-2.785447
20
-1.573427
10
-2.766436
20
-1.573845
10
-2.747792
20
-1.574039
10
-2.729519
20
-1.574016
10
-2.711617
20
-1.573785
10
-2.694091
20
-1.573354
10
-2.676942
20
-1.572734
10
-2.660171
20
-1.571931
10
-2.643782
20
-1.570956
10
-2.627775
20
-1.569816
10
-2.612152
20
-1.568521
10
-2.596914
20
-1.567079
10
-2.582064
20
-1.565499
10
-2.567601
20
-1.56379
10
-2.553527
20
-1.561961
10
-2.539843
20
-1.56002
10
-2.526549
20
-1.557976
10
-2.513646
20
-1.555839
10
-2.501133
20
-1.553617
10
-2.489012
20
-1.551318
10
-2.477282
20
-1.548951
10
-2.465944
20
-1.546526
10
-2.454996
20
-1.544051
10
-2.444439
20
-1.541535
10
-2.434272
20
-1.538987
10
-2.424493
20
-1.536414
10
-2.415104
20
-1.533827
10
-2.406101
20
-1.531234
10
-2.397484
20
-1.528642
10
-2.389253
20
-1.526062
10
-2.381404
20
-1.523501
10
-2.373938
20
-1.520968
10
-2.366851
20
-1.518472
10
-2.360142
20
-1.516021
10
-2.353809
20
-1.513623
10
-2.34785
20
-1.511287
10
-2.342263
20
-1.509022
10
-2.337044
20
-1.506835
10
-2.332192
20
-1.504734
10
-2.327703
20
-1.502729
10
-2.325558
20
-1.504886
10
-2.240977
20
-1.628165
10
-2.239737
20
-1.630943
10
-2.243223
20
-1.634409
10
-2.246929
20
-1.638181
10
-2.250847
20
-1.642263
10
-2.254972
20
-1.646661
10
-2.259296
20
-1.65138
10
-2.263812
20
-1.656425
10
-2.268513
20
-1.661803
10
-2.273393
20
-1.667516
10
-2.278443
20
-1.673571
10
-2.283657
20
-1.679972
10
-2.289027
20
-1.686724
10
-2.294545
20
-1.69383
10
-2.300205
20
-1.701296
10
-2.305998
20
-1.709126
10
-2.311917
20
-1.717323
10
-2.317954
20
-1.725892
10
-2.324101
20
-1.734836
10
-2.33035
20
-1.74416
10
-2.336693
20
-1.753866
10
-2.343122
20
-1.763958
10
-2.349629
20
-1.77444
10
-2.356205
20
-1.785314
10
-2.362843
20
-1.796584
10
-2.369534
20
-1.808252
10
-2.376269
20
-1.820321
10
-2.383041
20
-1.832793
10
-2.38984
20
-1.845672
10
-2.396659
20
-1.858959
10
-2.403488
20
-1.872656
10
-2.410318
20
-1.886766
10
-2.417142
20
-1.901291
10
-2.423951
20
-1.916231
10
-2.430735
20
-1.931589
10
-2.437485
20
-1.947366
10
-2.444194
20
-1.963563
10
-2.450852
20
-1.980182
10
-2.45745
20
-1.997223
10
-2.463979
20
-2.014687
10
-2.470431
20
-2.032575
10
-2.470631
20
-2.033141
10
-2.470731
20
-2.033424
10
-2.470756
20
-2.033495
10
-2.470769
20
-2.03353
10
-2.470763
20
-2.033551
10
-2.398461
20
-2.118345
10
-2.398441
20
-2.118354
10
-2.398404
20
-2.118347
10
-2.39833
20
-2.118333
10
-2.398035
20
-2.118279
10
-2.397445
20
-2.118171
10
-2.378762
20
-2.114628
10
-2.360485
20
-2.11094
10
-2.342616
20
-2.107118
10
-2.325154
20
-2.103171
10
-2.3081
20
-2.099106
10
-2.291454
20
-2.094933
10
-2.275217
20
-2.090661
10
-2.259389
20
-2.0863
10
-2.243968
20
-2.081857
10
-2.228956
20
-2.077342
10
-2.214352
20
-2.072763
10
-2.200154
20
-2.068131
10
-2.186363
20
-2.063452
10
-2.172977
20
-2.058736
10
-2.159995
20
-2.053993
10
-2.147416
20
-2.04923
10
-2.135239
20
-2.044457
10
-2.123462
20
-2.039681
10
-2.112084
20
-2.034912
10
-2.101103
20
-2.030159
10
-2.090516
20
-2.02543
10
-2.080322
20
-2.020733
10
-2.070519
20
-2.016077
10
-2.061104
20
-2.01147
10
-2.052074
20
-2.006921
10
-2.043427
20
-2.002438
10
-2.035161
20
-1.998029
10
-2.027271
20
-1.993703
10
-2.019756
20
-1.989467
10
-2.012611
20
-1.98533
10
-2.005834
20
-1.981301
10
-1.999421
20
-1.977385
10
-1.993369
20
-1.973593
10
-1.987673
20
-1.969931
10
-1.98233
20
-1.966407
10
-1.977335
20
-1.96303
10
-1.972686
20
-1.959805
10
-1.968376
20
-1.956742
10
-1.964402
20
-1.953848
10
-1.961855
20
-1.955511
10
-1.853492
20
-2.058511
10
-1.851701
20
-2.06097
10
-1.85439
20
-2.065086
10
-1.857231
20
-2.069545
10
-1.860215
20
-2.074353
10
-1.863335
20
-2.079512
10
-1.866584
20
-2.085027
10
-1.869952
20
-2.090901
10
-1.873432
20
-2.097139
10
-1.877017
20
-2.103742
10
-1.880698
20
-2.110714
10
-1.884467
20
-2.118059
10
-1.888316
20
-2.12578
10
-1.892237
20
-2.133879
10
-1.896221
20
-2.142358
10
-1.900259
20
-2.151221
10
-1.904344
20
-2.16047
10
-1.908468
20
-2.170107
10
-1.912621
20
-2.180134
10
-1.916795
20
-2.190553
10
-1.920981
20
-2.201366
10
-1.925171
20
-2.212574
10
-1.929357
20
-2.224179
10
-1.933529
20
-2.236183
10
-1.937678
20
-2.248587
10
-1.941797
20
-2.261391
10
-1.945876
20
-2.274596
10
-1.949907
20
-2.288204
10
-1.95388
20
-2.302215
10
-1.957787
20
-2.316629
10
-1.961619
20
-2.331447
10
-1.965366
20
-2.346669
10
-1.969021
20
-2.362295
10
-1.972575
20
-2.378324
10
-1.976017
20
-2.394757
10
-1.97934
20
-2.411593
10
-1.982535
20
-2.428831
10
-1.985592
20
-2.446471
10
-1.988503
20
-2.464511
10
-1.991258
20
-2.482951
10
-1.99385
20
-2.50179
10
-1.993928
20
-2.502385
10
-1.993967
20
-2.502683
10
-1.993977
20
-2.502757
10
-1.993982
20
-2.502794
10
-1.993972
20
-2.502813
10
-1.90562
20
-2.570722
10
-1.905599
20
-2.570727
10
-1.905564
20
-2.570712
10
-1.905495
20
-2.570684
10
-1.905217
20
-2.570569
10
-1.904662
20
-2.570341
10
-1.887124
20
-2.56299
10
-1.870014
20
-2.555584
10
-1.853329
20
-2.54813
10
-1.83707
20
-2.540638
10
-1.821234
20
-2.533116
10
-1.805819
20
-2.525574
10
-1.790825
20
-2.51802
10
-1.776249
20
-2.510462
10
-1.76209
20
-2.502911
10
-1.748344
20
-2.495373
10
-1.735011
20
-2.487858
10
-1.722087
20
-2.480375
10
-1.70957
20
-2.472931
10
-1.697457
20
-2.465535
10
-1.685745
20
-2.458196
10
-1.674431
20
-2.450922
10
-1.663513
20
-2.443721
10
-1.652986
20
-2.436602
10
-1.642848
20
-2.429572
10
-1.633095
20
-2.422639
10
-1.623723
20
-2.415812
10
-1.614728
20
-2.409098
10
-1.606107
20
-2.402505
10
-1.597855
20
-2.396042
10
-1.589969
20
-2.389715
10
-1.582443
20
-2.383532
10
-1.575274
20
-2.377501
10
-1.568456
20
-2.371629
10
-1.561986
20
-2.365923
10
-1.555858
20
-2.360392
10
-1.550067
20
-2.355041
10
-1.544608
20
-2.349878
10
-1.539476
20
-2.34491
10
-1.534666
20
-2.340144
10
-1.530172
20
-2.335586
10
-1.525989
20
-2.331244
10
-1.522111
20
-2.327123
10
-1.518533
20
-2.323231
10
-1.515247
20
-2.319574
10
-1.51241
20
-2.320671
10
-1.385
20
-2.39889
10
-1.382737
20
-2.400924
10
-1.384512
20
-2.405508
10
-1.386363
20
-2.410461
10
-1.388283
20
-2.415784
10
-1.390262
20
-2.421479
10
-1.392293
20
-2.427549
10
-1.394366
20
-2.433995
10
-1.396474
20
-2.44082
10
-1.398607
20
-2.448024
10
-1.400758
20
-2.455609
10
-1.402918
20
-2.463578
10
-1.405078
20
-2.47193
10
-1.407229
20
-2.480666
10
-1.409362
20
-2.489789
10
-1.41147
20
-2.499298
10
-1.413543
20
-2.509194
10
-1.415573
20
-2.519478
10
-1.41755
20
-2.530149
10
-1.419467
20
-2.541208
10
-1.421313
20
-2.552655
10
-1.423082
20
-2.56449
10
-1.424763
20
-2.576712
10
-1.426348
20
-2.589321
10
-1.427828
20
-2.602316
10
-1.429195
20
-2.615696
10
-1.430439
20
-2.629461
10
-1.431552
20
-2.64361
10
-1.432525
20
-2.658141
10
-1.43335
20
-2.673052
10
-1.434017
20
-2.688343
10
-1.434519
20
-2.704012
10
-1.434845
20
-2.720056
10
-1.434988
20
-2.736474
10
-1.434939
20
-2.753263
10
-1.434689
20
-2.770422
10
-1.434229
20
-2.787948
10
-1.433552
20
-2.805838
10
-1.432649
20
-2.824089
10
-1.43151
20
-2.842699
10
-1.430128
20
-2.861664
10
-1.430081
20
-2.862263
10
-1.430057
20
-2.862562
10
-1.430051
20
-2.862637
10
-1.430048
20
-2.862674
10
-1.430035
20
-2.862691
10
-1.329494
20
-2.910746
10
-1.329473
20
-2.910746
10
-1.329442
20
-2.910725
10
-1.32938
20
-2.910683
10
-1.329132
20
-2.910513
10
-1.328637
20
-2.910174
10
-1.313011
20
-2.899338
10
-1.297814
20
-2.888536
10
-1.283044
20
-2.877776
10
-1.268697
20
-2.867067
10
-1.254771
20
-2.856417
10
-1.241262
20
-2.845835
10
-1.228166
20
-2.835328
10
-1.21548
20
-2.824906
10
-1.2032
20
-2.814575
10
-1.191322
20
-2.804344
10
-1.179842
20
-2.794222
10
-1.168756
20
-2.784214
10
-1.15806
20
-2.774331
10
-1.147749
20
-2.764579
10
-1.137819
20
-2.754965
10
-1.128265
20
-2.745498
10
-1.119083
20
-2.736184
10
-1.110266
20
-2.727031
10
-1.101812
20
-2.718047
10
-1.093713
20
-2.709238
10
-1.085965
20
-2.700612
10
-1.078563
20
-2.692174
10
-1.071501
20
-2.683933
10
-1.064773
20
-2.675895
10
-1.058375
20
-2.668067
10
-1.052299
20
-2.660455
10
-1.04654
20
-2.653065
10
-1.041092
20
-2.645904
10
-1.035949
20
-2.638977
10
-1.031105
20
-2.632292
10
-1.026553
20
-2.625854
10
-1.022287
20
-2.619669
10
-1.018301
20
-2.613743
10
-1.014587
20
-2.608081
10
-1.011139
20
-2.602689
10
-1.00795
20
-2.597572
10
-1.005013
20
-2.592735
10
-1.002322
20
-2.588184
10
-0.999869
20
-2.583923
10
-0.996866
20
-2.584407
10
-0.855977
20
-2.634427
10
-0.853341
20
-2.635945
10
-0.854124
20
-2.640798
10
-0.854905
20
-2.646028
10
-0.855676
20
-2.651633
10
-0.856428
20
-2.657616
10
-0.857152
20
-2.663975
10
-0.85784
20
-2.670711
10
-0.858483
20
-2.677825
10
-0.859072
20
-2.685315
10
-0.859599
20
-2.693182
10
-0.860054
20
-2.701426
10
-0.86043
20
-2.710044
10
-0.860718
20
-2.719037
10
-0.860908
20
-2.728404
10
-0.860993
20
-2.738143
10
-0.860963
20
-2.748254
10
-0.86081
20
-2.758735
10
-0.860526
20
-2.769584
10
-0.860101
20
-2.7808
10
-0.859527
20
-2.792381
10
-0.858797
20
-2.804325
10
-0.8579
20
-2.816629
10
-0.856829
20
-2.829292
10
-0.855575
20
-2.842311
10
-0.85413
20
-2.855683
10
-0.852485
20
-2.869406
10
-0.850632
20
-2.883477
10
-0.848563
20
-2.897893
10
-0.846269
20
-2.91265
10
-0.843743
20
-2.927745
10
-0.840975
20
-2.943176
10
-0.837959
20
-2.958937
10
-0.834685
20
-2.975026
10
-0.831146
20
-2.991438
10
-0.827334
20
-3.00817
10
-0.823241
20
-3.025217
10
-0.818859
20
-3.042576
10
-0.814181
20
-3.06024
10
-0.809198
20
-3.078207
10
-0.803903
20
-3.096471
10
-0.803732
20
-3.097046
10
-0.803647
20
-3.097334
10
-0.803625
20
-3.097406
10
-0.803615
20
-3.097442
10
-0.803598
20
-3.097455
10
-0.695263
20
-3.123557
10
-0.695243
20
-3.123553
10
-0.695217
20
-3.123525
10
-0.695165
20
-3.123471
10
-0.694958
20
-3.123254
10
-0.694544
20
-3.122819
10
-0.681512
20
-3.108971
10
-0.668893
20
-3.095245
10
-0.656683
20
-3.08165
10
-0.644876
20
-3.068192
10
-0.633469
20
-3.054879
10
-0.622455
20
-3.04172
10
-0.611829
20
-3.02872
10
-0.601587
20
-3.015887
10
-0.591724
20
-3.003229
10
-0.582232
20
-2.990752
10
-0.573108
20
-2.978464
10
-0.564345
20
-2.966371
10
-0.555938
20
-2.954479
10
-0.54788
20
-2.942796
10
-0.540166
20
-2.931328
10
-0.532789
20
-2.920081
10
-0.525743
20
-2.909062
10
-0.519023
20
-2.898277
10
-0.512621
20
-2.887731
10
-0.50653
20
-2.87743
10
-0.500745
20
-2.867382
10
-0.495259
20
-2.85759
10
-0.490065
20
-2.848061
10
-0.485156
20
-2.838799
10
-0.480524
20
-2.829812
10
-0.476164
20
-2.821102
10
-0.472068
20
-2.812677
10
-0.468228
20
-2.804539
10
-0.464637
20
-2.796695
10
-0.461289
20
-2.789149
10
-0.458175
20
-2.781906
10
-0.455288
20
-2.774969
10
-0.452621
20
-2.768343
10
-0.450165
20
-2.762033
10
-0.447913
20
-2.756041
10
-0.445858
20
-2.750373
10
-0.443991
20
-2.745031
10
-0.442305
20
-2.74002
10
-0.440792
20
-2.735343
10
-0.437753
20
-2.735191
10
-0.289544
20
-2.754826
10
-0.28665
20
-2.755763
10
-0.286406
20
-2.760673
10
-0.286083
20
-2.76595
10
-0.285672
20
-2.771594
10
-0.285163
20
-2.777602
10
-0.28455
20
-2.783973
10
-0.283822
20
-2.790705
10
-0.282972
20
-2.797797
10
-0.281991
20
-2.805246
10
-0.28087
20
-2.813051
10
-0.279602
20
-2.821208
10
-0.278178
20
-2.829717
10
-0.276589
20
-2.838573
10
-0.274828
20
-2.847775
10
-0.272886
20
-2.857319
10
-0.270755
20
-2.867203
10
-0.268426
20
-2.877423
10
-0.265892
20
-2.887976
10
-0.263145
20
-2.898858
10
-0.260176
20
-2.910067
10
-0.256978
20
-2.921597
10
-0.253543
20
-2.933446
10
-0.249862
20
-2.94561
10
-0.245929
20
-2.958084
10
-0.241735
20
-2.970863
10
-0.237273
20
-2.983944
10
-0.232535
20
-2.997323
10
-0.227514
20
-3.010993
10
-0.222202
20
-3.024951
10
-0.216592
20
-3.039191
10
-0.210677
20
-3.053709
10
-0.20445
20
-3.068499
10
-0.197902
20
-3.083555
10
-0.191029
20
-3.098873
10
-0.183821
20
-3.114447
10
-0.176273
20
-3.130271
10
-0.168378
20
-3.146338
10
-0.160129
20
-3.162644
10
-0.15152
20
-3.179182
10
-0.142543
20
-3.195946
10
-0.142257
20
-3.196473
10
-0.142113
20
-3.196737
10
-0.142077
20
-3.196803
10
-0.142059
20
-3.196836
10
-0.14204
20
-3.196846
10
-0.030646
20
-3.199853
10
-0.030627
20
-3.199844
10
-0.030607
20
-3.199812
10
-0.030568
20
-3.199749
10
-0.03041
20
-3.199493
10
-0.030096
20
-3.198982
10
-0.020228
20
-3.182727
10
-0.010739
20
-3.166677
10
-0.001622
20
-3.15084
10
0.007129
20
-3.135222
10
0.015519
20
-3.119828
10
0.023557
20
-3.104666
10
0.031247
20
-3.089741
10
0.038597
20
-3.07506
10
0.045613
20
-3.060628
10
0.052303
20
-3.04645
10
0.058673
20
-3.032533
10
0.06473
20
-3.018882
10
0.070481
20
-3.005503
10
0.075934
20
-2.9924
10
0.081095
20
-2.979579
10
0.085973
20
-2.967044
10
0.090573
20
-2.9548
10
0.094905
20
-2.942853
10
0.098974
20
-2.931207
10
0.10279
20
-2.919865
10
0.106359
20
-2.908833
10
0.10969
20
-2.898115
10
0.112789
20
-2.887714
10
0.115666
20
-2.877634
10
0.118327
20
-2.86788
10
0.120782
20
-2.858455
10
0.123037
20
-2.849361
10
0.125101
20
-2.840604
10
0.126982
20
-2.832184
10
0.128688
20
-2.824107
10
0.130228
20
-2.816374
10
0.13161
20
-2.808989
10
0.132841
20
-2.801953
10
0.133931
20
-2.79527
10
0.134888
20
-2.788942
10
0.13572
20
-2.78297
10
0.136435
20
-2.777357
10
0.137042
20
-2.772105
10
0.13755
20
-2.767215
10
0.140491
20
-2.766435
10
0.289544
20
-2.754826
10
0.29257
20
-2.755141
10
0.293828
20
-2.759893
10
0.295242
20
-2.764988
10
0.296818
20
-2.770422
10
0.298564
20
-2.776193
10
0.300489
20
-2.782297
10
0.302601
20
-2.788731
10
0.304907
20
-2.795491
10
0.307415
20
-2.802574
10
0.310134
20
-2.809975
10
0.31307
20
-2.817691
10
0.316232
20
-2.825717
10
0.319627
20
-2.834049
10
0.323263
20
-2.842684
10
0.327147
20
-2.851616
10
0.331287
20
-2.86084
10
0.335689
20
-2.870353
10
0.340362
20
-2.880148
10
0.345312
20
-2.890222
10
0.350546
20
-2.900568
10
0.356072
20
-2.911182
10
0.361896
20
-2.922058
10
0.368025
20
-2.933191
10
0.374466
20
-2.944574
10
0.381225
20
-2.956202
10
0.388309
20
-2.96807
10
0.395725
20
-2.980171
10
0.403478
20
-2.992498
10
0.411576
20
-3.005047
10
0.420024
20
-3.01781
10
0.428828
20
-3.03078
10
0.437995
20
-3.043952
10
0.447529
20
-3.057318
10
0.457438
20
-3.070873
10
0.467726
20
-3.084607
10
0.478399
20
-3.098516
10
0.489462
20
-3.112591
10
0.500921
20
-3.126826
10
0.512781
20
-3.141212
10
0.525046
20
-3.155743
10
0.525436
20
-3.1562
10
0.525631
20
-3.156428
10
0.52568
20
-3.156485
10
0.525705
20
-3.156513
10
0.525725
20
-3.156519
10
0.63531
20
-3.1363
10
0.635328
20
-3.136288
10
0.63534
20
-3.136252
10
0.635365
20
-3.136182
10
0.635466
20
-3.135899
10
0.635668
20
-3.135333
10
0.64194
20
-3.117382
10
0.647885
20
-3.09971
10
0.65351
20
-3.082324
10
0.658822
20
-3.065227
10
0.663829
20
-3.048426
10
0.668538
20
-3.031924
10
0.672957
20
-3.015727
10
0.677094
20
-2.999838
10
0.680957
20
-2.984262
10
0.684553
20
-2.969004
10
0.68789
20
-2.954066
10
0.690977
20
-2.939455
10
0.69382
20
-2.925172
10
0.69643
20
-2.911221
10
0.698813
20
-2.897607
10
0.700977
20
-2.884332
10
0.702932
20
-2.8714
10
0.704684
20
-2.858813
10
0.706244
20
-2.846575
10
0.707618
20
-2.834688
10
0.708815
20
-2.823155
10
0.709845
20
-2.811978
10
0.710714
20
-2.80116
10
0.711432
20
-2.790703
10
0.712007
20
-2.780608
10
0.712448
20
-2.770879
10
0.712764
20
-2.761515
10
0.712962
20
-2.75252
10
0.713051
20
-2.743893
10
0.713041
20
-2.735638
10
0.712939
20
-2.727754
10
0.712755
20
-2.720243
10
0.712497
20
-2.713105
10
0.712174
20
-2.706341
10
0.711794
20
-2.699952
10
0.711366
20
-2.693938
10
0.710898
20
-2.688298
10
0.710401
20
-2.683035
10
0.709881
20
-2.678146
10
0.712595
20
-2.676772
10
0.855977
20
-2.634427
10
0.859002
20
-2.634105
10
0.861222
20
-2.638492
10
0.863663
20
-2.643182
10
0.866335
20
-2.64817
10
0.869243
20
-2.653452
10
0.872395
20
-2.659022
10
0.875798
20
-2.664877
10
0.879459
20
-2.671009
10
0.883385
20
-2.677416
10
0.887583
20
-2.68409
10
0.89206
20
-2.691026
10
0.896821
20
-2.69822
10
0.901875
20
-2.705664
10
0.907226
20
-2.713354
10
0.912883
20
-2.721283
10
0.91885
20
-2.729446
10
0.925134
20
-2.737835
10
0.931741
20
-2.746445
10
0.938677
20
-2.755269
10
0.945948
20
-2.764301
10
0.95356
20
-2.773534
10
0.961518
20
-2.782962
10
0.969827
20
-2.792577
10
0.978494
20
-2.802372
10
0.987523
20
-2.812341
10
0.99692
20
-2.822476
10
1.00669
20
-2.832771
10
1.016837
20
-2.843217
10
1.027367
20
-2.853808
10
1.038283
20
-2.864535
10
1.049592
20
-2.875392
10
1.061297
20
-2.88637
10
1.073402
20
-2.897462
10
1.085912
20
-2.90866
10
1.098831
20
-2.919956
10
1.112162
20
-2.931341
10
1.12591
20
-2.942809
10
1.140078
20
-2.95435
10
1.15467
20
-2.965956
10
1.169689
20
-2.977619
10
1.170165
20
-2.977985
10
1.170403
20
-2.978167
10
1.170463
20
-2.978213
10
1.170493
20
-2.978236
10
1.170514
20
-2.978237
10
1.273501
20
-2.935676
10
1.273515
20
-2.93566
10
1.27352
20
-2.935623
10
1.27353
20
-2.935549
10
1.27357
20
-2.935251
10
1.273649
20
-2.934656
10
1.276053
20
-2.915793
10
1.278194
20
-2.897271
10
1.280081
20
-2.879095
10
1.281722
20
-2.861268
10
1.283126
20
-2.843793
10
1.284302
20
-2.826672
10
1.285256
20
-2.80991
10
1.286
20
-2.793508
10
1.286539
20
-2.77747
10
1.286884
20
-2.761797
10
1.287043
20
-2.746493
10
1.287024
20
-2.731558
10
1.286836
20
-2.716996
10
1.286488
20
-2.702808
10
1.285988
20
-2.688996
10
1.285345
20
-2.675561
10
1.284568
20
-2.662505
10
1.283666
20
-2.649829
10
1.282647
20
-2.637534
10
1.28152
20
-2.625621
10
1.280293
20
-2.614091
10
1.278976
20
-2.602945
10
1.277577
20
-2.592182
10
1.276105
20
-2.581804
10
1.274569
20
-2.571811
10
1.272978
20
-2.562202
10
1.271339
20
-2.552978
10
1.269663
20
-2.544137
10
1.267957
20
-2.535681
10
1.26623
20
-2.527608
10
1.264492
20
-2.519917
10
1.26275
20
-2.512609
10
1.261014
20
-2.50568
10
1.259291
20
-2.499132
10
1.257591
20
-2.492961
10
1.255922
20
-2.487167
10
1.254292
20
-2.481749
10
1.252711
20
-2.476703
10
1.251186
20
-2.47203
10
1.253555
20
-2.470121
10
1.385
20
-2.39889
10
1.387892
20
-2.397947
10
1.390975
20
-2.401777
10
1.394339
20
-2.405856
10
1.397989
20
-2.41018
10
1.401931
20
-2.414742
10
1.406173
20
-2.419535
10
1.410719
20
-2.424554
10
1.415575
20
-2.429792
10
1.420747
20
-2.435242
10
1.426241
20
-2.440897
10
1.432062
20
-2.446751
10
1.438215
20
-2.452798
10
1.444706
20
-2.459029
10
1.451539
20
-2.465438
10
1.458721
20
-2.472018
10
1.466254
20
-2.478761
10
1.474145
20
-2.485661
10
1.482398
20
-2.492709
10
1.491017
20
-2.499898
10
1.500007
20
-2.507221
10
1.509372
20
-2.51467
10
1.519116
20
-2.522237
10
1.529243
20
-2.529914
10
1.539757
20
-2.537693
10
1.550662
20
-2.545567
10
1.561961
20
-2.553527
10
1.573657
20
-2.561566
10
1.585755
20
-2.569674
10
1.598256
20
-2.577844
10
1.611165
20
-2.586067
10
1.624484
20
-2.594335
10
1.638215
20
-2.60264
10
1.652362
20
-2.610973
10
1.666927
20
-2.619325
10
1.681912
20
-2.627688
10
1.697319
20
-2.636053
10
1.713151
20
-2.644411
10
1.729409
20
-2.652755
10
1.746095
20
-2.661073
10
1.76321
20
-2.669359
10
1.763752
20
-2.669618
10
1.764023
20
-2.669747
10
1.764091
20
-2.669779
10
1.764125
20
-2.669795
10
1.764146
20
-2.669792
10
1.856033
20
-2.606749
10
1.856044
20
-2.60673
10
1.856041
20
-2.606693
10
1.856035
20
-2.606618
10
1.856012
20
-2.606319
10
1.855966
20
-2.60572
10
1.854395
20
-2.58677
10
1.852639
20
-2.568208
10
1.850705
20
-2.550037
10
1.848604
20
-2.532258
10
1.846345
20
-2.514872
10
1.843935
20
-2.497882
10
1.841384
20
-2.481287
10
1.8387
20
-2.465089
10
1.835894
20
-2.449289
10
1.832973
20
-2.433887
10
1.829946
20
-2.418884
10
1.826822
20
-2.40428
10
1.823611
20
-2.390075
10
1.820321
20
-2.376269
10
1.81696
20
-2.362863
10
1.813538
20
-2.349855
10
1.810063
20
-2.337246
10
1.806545
20
-2.325035
10
1.802992
20
-2.31322
10
1.799413
20
-2.301802
10
1.795816
20
-2.290779
10
1.79221
20
-2.28015
10
1.788604
20
-2.269914
10
1.785007
20
-2.260068
10
1.781426
20
-2.250613
10
1.777872
20
-2.241545
10
1.774351
20
-2.232863
10
1.770873
20
-2.224564
10
1.767447
20
-2.216647
10
1.764079
20
-2.20911
10
1.76078
20
-2.201949
10
1.757557
20
-2.195161
10
1.754418
20
-2.188746
10
1.751371
20
-2.182698
10
1.748425
20
-2.177016
10
1.745588
20
-2.171696
10
1.742868
20
-2.166734
10
1.740272
20
-2.162128
10
1.737808
20
-2.157874
10
1.739729
20
-2.155514
10
1.853492
20
-2.058511
10
1.856125
20
-2.056987
10
1.859937
20
-2.060092
10
1.864075
20
-2.063383
10
1.868544
20
-2.066854
10
1.873349
20
-2.070496
10
1.878494
20
-2.074303
10
1.883984
20
-2.078267
10
1.889823
20
-2.08238
10
1.896016
20
-2.086636
10
1.902565
20
-2.091025
10
1.909476
20
-2.095542
10
1.916752
20
-2.100176
10
1.924396
20
-2.104922
10
1.932413
20
-2.10977
10
1.940805
20
-2.114713
10
1.949577
20
-2.119743
10
1.95873
20
-2.124851
10
1.968267
20
-2.130029
10
1.978193
20
-2.135269
10
1.988509
20
-2.140563
10
1.999218
20
-2.145902
10
2.010322
20
-2.151278
10
2.021824
20
-2.156681
10
2.033726
20
-2.162105
10
2.04603
20
-2.16754
10
2.058736
20
-2.172977
10
2.071849
20
-2.178407
10
2.085367
20
-2.183823
10
2.099294
20
-2.189216
10
2.113631
20
-2.194575
10
2.128377
20
-2.199894
10
2.143535
20
-2.205162
10
2.159106
20
-2.210371
10
2.175089
20
-2.215513
10
2.191485
20
-2.220577
10
2.208295
20
-2.225556
10
2.225518
20
-2.230441
10
2.243155
20
-2.235221
10
2.261206
20
-2.239889
10
2.279671
20
-2.244435
10
2.280254
20
-2.244575
10
2.280546
20
-2.244645
10
2.280619
20
-2.244663
10
2.280656
20
-2.244672
10
2.280676
20
-2.244664
10
2.357448
20
-2.163894
10
2.357455
20
-2.163874
10
2.357444
20
-2.163838
10
2.357423
20
-2.163766
10
2.357338
20
-2.163478
10
2.357169
20
-2.162902
10
2.351692
20
-2.144692
10
2.346114
20
-2.126901
10
2.340445
20
-2.109529
10
2.334694
20
-2.092575
10
2.328869
20
-2.07604
10
2.322979
20
-2.059921
10
2.317034
20
-2.04422
10
2.311041
20
-2.028934
10
2.305011
20
-2.014062
10
2.298951
20
-1.999604
10
2.292871
20
-1.985558
10
2.28678
20
-1.971923
10
2.280685
20
-1.958696
10
2.274596
20
-1.945876
10
2.268522
20
-1.933461
10
2.26247
20
-1.92145
10
2.25645
20
-1.909838
10
2.25047
20
-1.898625
10
2.244538
20
-1.887808
10
2.238663
20
-1.877383
10
2.232853
20
-1.867349
10
2.227116
20
-1.857702
10
2.22146
20
-1.848439
10
2.215895
20
-1.839557
10
2.210427
20
-1.831052
10
2.205064
20
-1.822921
10
2.199816
20
-1.815161
10
2.194689
20
-1.807767
10
2.189691
20
-1.800735
10
2.18483
20
-1.794062
10
2.180114
20
-1.787744
10
2.17555
20
-1.781775
10
2.171145
20
-1.776152
10
2.166908
20
-1.770871
10
2.162845
20
-1.765925
10
2.158964
20
-1.761311
10
2.155271
20
-1.757024
10
2.151774
20
-1.753058
10
2.14848
20
-1.749408
10
2.149868
20
-1.746701
10
2.240977
20
-1.628165
10
2.243236
20
-1.626127
10
2.24761
20
-1.628372
10
2.252342
20
-1.630731
10
2.257435
20
-1.633196
10
2.262892
20
-1.63576
10
2.268716
20
-1.638413
10
2.274911
20
-1.641149
10
2.281477
20
-1.643959
10
2.288419
20
-1.646834
10
2.295738
20
-1.649766
10
2.303437
20
-1.652747
10
2.311517
20
-1.655767
10
2.319982
20
-1.65882
10
2.328831
20
-1.661895
10
2.338068
20
-1.664986
10
2.347693
20
-1.668082
10
2.357708
20
-1.671175
10
2.368114
20
-1.674257
10
2.378912
20
-1.677319
10
2.390104
20
-1.680352
10
2.401689
20
-1.683348
10
2.413668
20
-1.686297
10
2.426042
20
-1.689192
10
2.438811
20
-1.692022
10
2.451976
20
-1.69478
10
2.465535
20
-1.697457
10
2.47949
20
-1.700042
10
2.493839
20
-1.702529
10
2.508583
20
-1.704908
10
2.523721
20
-1.70717
10
2.539251
20
-1.709306
10
2.555173
20
-1.711308
10
2.571486
20
-1.713166
10
2.588189
20
-1.714872
10
2.60528
20
-1.716417
10
2.622757
20
-1.717792
10
2.64062
20
-1.718989
10
2.658866
20
-1.719998
10
2.677493
20
-1.720811
10
2.696499
20
-1.721419
10
2.697099
20
-1.721435
10
2.697399
20
-1.721442
10
2.697474
20
-1.721444
10
2.697512
20
-1.721445
10
2.69753
20
-1.721434
10
2.755831
20
-1.626467
10
2.755833
20
-1.626446
10
2.755815
20
-1.626413
10
2.75578
20
-1.626347
10
2.755637
20
-1.626082
10
2.755352
20
-1.625554
10
2.746208
20
-1.608881
10
2.737054
20
-1.592639
10
2.727897
20
-1.576825
10
2.718746
20
-1.561437
10
2.70961
20
-1.546474
10
2.700498
20
-1.531933
10
2.691418
20
-1.51781
10
2.682378
20
-1.504104
10
2.673388
20
-1.490812
10
2.664455
20
-1.477929
10
2.655587
20
-1.465454
10
2.646794
20
-1.453383
10
2.638083
20
-1.441713
10
2.629461
20
-1.430439
10
2.620938
20
-1.419559
10
2.612522
20
-1.409067
10
2.604219
20
-1.398961
10
2.596038
20
-1.389237
10
2.587987
20
-1.379889
10
2.580073
20
-1.370914
10
2.572303
20
-1.362307
10
2.564686
20
-1.354063
10
2.557228
20
-1.346179
10
2.549937
20
-1.338648
10
2.542821
20
-1.331466
10
2.535885
20
-1.324627
10
2.529138
20
-1.318128
10
2.522585
20
-1.311961
10
2.516235
20
-1.306123
10
2.510093
20
-1.300606
10
2.504166
20
-1.295406
10
2.498461
20
-1.290517
10
2.492983
20
-1.285933
10
2.48774
20
-1.281647
10
2.482738
20
-1.277655
10
2.477982
20
-1.273948
10
2.473479
20
-1.270522
10
2.469234
20
-1.26737
10
2.465253
20
-1.264485
10
2.466048
20
-1.261549
10
2.530521
20
-1.126661
10
2.532306
20
-1.124198
10
2.537052
20
-1.125484
10
2.542171
20
-1.126807
10
2.547665
20
-1.12816
10
2.553536
20
-1.129533
10
2.559785
20
-1.130918
10
2.566412
20
-1.132306
10
2.57342
20
-1.133689
10
2.580808
20
-1.135058
10
2.588576
20
-1.136404
10
2.596727
20
-1.137719
10
2.605259
20
-1.138993
10
2.614172
20
-1.140219
10
2.623468
20
-1.141388
10
2.633145
20
-1.14249
10
2.643204
20
-1.143517
10
2.653643
20
-1.144461
10
2.664463
20
-1.145312
10
2.675662
20
-1.146062
10
2.687239
20
-1.146702
10
2.699194
20
-1.147224
10
2.711524
20
-1.147618
10
2.72423
20
-1.147876
10
2.737309
20
-1.14799
10
2.750759
20
-1.147951
10
2.764579
20
-1.147749
10
2.778766
20
-1.147378
10
2.793319
20
-1.146827
10
2.808235
20
-1.146088
10
2.823512
20
-1.145153
10
2.839147
20
-1.144014
10
2.855137
20
-1.142661
10
2.87148
20
-1.141087
10
2.888173
20
-1.139283
10
2.905211
20
-1.137241
10
2.922593
20
-1.134953
10
2.940314
20
-1.132409
10
2.958371
20
-1.129603
10
2.97676
20
-1.126525
10
2.995477
20
-1.123168
10
2.996067
20
-1.123059
10
2.996362
20
-1.123004
10
2.996436
20
-1.12299
10
2.996473
20
-1.122983
10
2.996488
20
-1.122968
10
3.033771
20
-1.017955
10
3.033769
20
-1.017934
10
3.033744
20
-1.017905
10
3.033696
20
-1.017848
10
3.033501
20
-1.01762
10
3.033112
20
-1.017162
10
3.020702
20
-1.002754
10
3.008371
20
-0.98877
10
2.996126
20
-0.975206
10
2.983976
20
-0.962057
10
2.971929
20
-0.94932
10
2.959992
20
-0.936991
10
2.948175
20
-0.925065
10
2.936483
20
-0.913538
10
2.924925
20
-0.902405
10
2.913509
20
-0.891662
10
2.902242
20
-0.881303
10
2.891131
20
-0.871324
10
2.880183
20
-0.86172
10
2.869406
20
-0.852485
10
2.858807
20
-0.843614
10
2.848393
20
-0.835102
10
2.838171
20
-0.826943
10
2.828147
20
-0.819132
10
2.818328
20
-0.811662
10
2.808721
20
-0.804529
10
2.799332
20
-0.797725
10
2.790167
20
-0.791246
10
2.781233
20
-0.785084
10
2.772536
20
-0.779233
10
2.764081
20
-0.773688
10
2.755875
20
-0.768441
10
2.747924
20
-0.763486
10
2.740233
20
-0.758817
10
2.732807
20
-0.754426
10
2.725652
20
-0.750307
10
2.718774
20
-0.746453
10
2.712177
20
-0.742857
10
2.705866
20
-0.739512
10
2.699847
20
-0.73641
10
2.694124
20
-0.733544
10
2.688701
20
-0.730908
10
2.683584
20
-0.728493
10
2.678776
20
-0.726292
10
2.674283
20
-0.724298
10
2.67445
20
-0.721261
10
2.709469
20
-0.575915
10
2.710703
20
-0.573135
10
2.715612
20
-0.573406
10
2.720894
20
-0.573637
10
2.72655
20
-0.573817
10
2.732578
20
-0.57394
10
2.738978
20
-0.573995
10
2.74575
20
-0.573975
10
2.752892
20
-0.573871
10
2.760402
20
-0.573674
10
2.768281
20
-0.573375
10
2.776527
20
-0.572967
10
2.785138
20
-0.57244
10
2.794111
20
-0.571786
10
2.803447
20
-0.570996
10
2.813142
20
-0.570062
10
2.823194
20
-0.568976
10
2.833602
20
-0.567728
10
2.844362
20
-0.566311
10
2.855472
20
-0.564716
10
2.866929
20
-0.562936
10
2.878731
20
-0.56096
10
2.890874
20
-0.558782
10
2.903356
20
-0.556393
10
2.916172
20
-0.553785
10
2.92932
20
-0.55095
10
2.942796
20
-0.54788
10
2.956596
20
-0.544567
10
2.970717
20
-0.541002
10
2.985153
20
-0.537178
10
2.999902
20
-0.533088
10
3.014958
20
-0.528723
10
3.030318
20
-0.524075
10
3.045977
20
-0.519138
10
3.061929
20
-0.513903
10
3.078171
20
-0.508363
10
3.094697
20
-0.50251
10
3.111502
20
-0.496338
10
3.128581
20
-0.489838
10
3.145928
20
-0.483005
10
3.163538
20
-0.47583
10
3.164093
20
-0.4756
10
3.16437
20
-0.475485
10
3.16444
20
-0.475456
10
3.164474
20
-0.475442
10
3.164486
20
-0.475424
10
3.179121
20
-0.364954
10
3.179114
20
-0.364934
10
3.179084
20
-0.364911
10
3.179025
20
-0.364865
10
3.178787
20
-0.364682
10
3.178311
20
-0.364315
10
3.163177
20
-0.352803
10
3.148207
20
-0.341688
10
3.13341
20
-0.330965
10
3.118792
20
-0.32063
10
3.10436
20
-0.310677
10
3.090121
20
-0.301098
10
3.076082
20
-0.29189
10
3.062249
20
-0.283046
10
3.048629
20
-0.274559
10
3.035229
20
-0.266424
10
3.022054
20
-0.258634
10
3.009111
20
-0.251184
10
2.996406
20
-0.244065
10
2.983944
20
-0.237273
10
2.971733
20
-0.2308
10
2.959777
20
-0.224639
10
2.948081
20
-0.218784
10
2.936652
20
-0.213227
10
2.925495
20
-0.207962
10
2.914614
20
-0.202982
10
2.904016
20
-0.198279
10
2.893704
20
-0.193847
10
2.883684
20
-0.189677
10
2.873961
20
-0.185763
10
2.864538
20
-0.182096
10
2.855421
20
-0.17867
10
2.846613
20
-0.175477
10
2.838119
20
-0.172509
10
2.829943
20
-0.169758
10
2.822088
20
-0.167216
10
2.814558
20
-0.164877
10
2.807358
20
-0.162731
10
2.80049
20
-0.16077
10
2.793957
20
-0.158988
10
2.787763
20
-0.157375
10
2.781911
20
-0.155923
10
2.776404
20
-0.154625
10
2.771243
20
-0.153472
10
2.766433
20
-0.152456
10
2.765965
20
-0.14945
8
gear
0
LWPOLYLINE
5
1004
100
AcDbEntity
100
AcDbPolyline
90
5
70
0
43
0
10
1.5957
20
1.885375
10
1.572684
20
1.904617
10
1.549436
20
1.923577
10
1.525959
20
1.942254
10
1.502257
20
1.960644
8
gear_texts
0
LWPOLYLINE
5
1005
100
AcDbEntity
100
AcDbPolyline
90
2
70
0
43
0
10
1.511797
20
1.876851
10
1.587074
20
1.970304
8
gear_texts
0
LWPOLYLINE
5
1006
100
AcDbEntity
100
AcDbPolyline
90
5
70
0
43
0
10
1.634462
20
1.931174
10
1.591785
20
1.92775
10
1.549436
20
1.923577
10
1.507425
20
1.918664
10
1.465764
20
1.913017
8
gear_texts
0
LWPOLYLINE
5
1007
100
AcDbEntity
100
AcDbPolyline
90
5
70
0
43
0
10
1.556939
20
1.839577
10
1.553583
20
1.881484
10
1.549436
20
1.923577
10
1.544493
20
1.965844
10
1.538749
20
2.008271
8
gear_texts
0
LWPOLYLINE
5
1008
100
AcDbEntity
100
AcDbPolyline
90
9
70
0
43
0
10
1.707743
20
1.742761
10
1.68645
20
1.763374
10
1.664909
20
1.783726
10
1.643122
20
1.803816
10
1.621092
20
1.823639
10
1.670058
20
1.833386
10
1.719496
20
1.842209
10
1.76939
20
1.850097
10
1.64498
20
1.720012
8
gear_texts
0
LWPOLYLINE
5
1009
100
AcDbEntity
100
AcDbPolyline
90
7
70
0
43
0
10
2.019326
20
1.573506
10
1.877342
20
1.462869
10
1.894594
20
1.513651
10
1.910884
20
1.565063
10
1.926199
20
1.61709
10
1.940528
20
1.669716
10
1.804085
20
1.552314
8
gear_texts
0
LWPOLYLINE
5
1010
100
AcDbEntity
100
AcDbPolyline
90
5
70
0
43
0
10
2.078646
20
1.388968
10
2.061623
20
1.414111
10
2.044296
20
1.439046
10
2.026667
20
1.463769
10
2.00874
20
1.488276
8
gear_texts
0
LWPOLYLINE
5
1011
100
AcDbEntity
100
AcDbPolyline
90
5
70
0
43
0
10
2.028758
20
1.355632
10
2.012144
20
1.380173
10
1.995233
20
1.404509
10
1.978027
20
1.428639
10
1.96053
20
1.452557
8
gear_texts
0
LWPOLYLINE
5
1012
100
AcDbEntity
100
AcDbPolyline
90
13
70
0
43
0
10
2.137111
20
1.354126
10
2.178934
20
1.343818
10
2.195095
20
1.317255
10
2.210931
20
1.290497
10
2.200351
20
1.248742
10
2.17426
20
1.233935
10
2.133203
20
1.245128
10
2.122077
20
1.20432
10
2.095986
20
1.189513
10
2.055475
20
1.199759
10
2.040752
20
1.224635
10
2.025728
20
1.249331
10
2.035746
20
1.289899
8
gear_texts
0
LWPOLYLINE
5
1013
100
AcDbEntity
100
AcDbPolyline
90
2
70
0
43
0
10
2.117923
20
1.270945
10
2.133203
20
1.245128
8
gear_texts
0
LWPOLYLINE
5
1014
100
AcDbEntity
100
AcDbPolyline
90
9
70
0
43
0
10
2.164316
20
1.060112
10
2.124501
20
1.072798
10
2.111315
20
1.098522
10
2.12426
20
1.138253
10
2.230032
20
1.194929
10
2.270994
20
1.181603
10
2.285178
20
1.153934
10
2.272082
20
1.112898
10
2.164316
20
1.060112
8
gear_texts
0
LWPOLYLINE
5
1015
100
AcDbEntity
100
AcDbPolyline
90
11
70
0
43
0
10
2.302451
20
0.894216
10
2.313141
20
0.866185
10
2.323491
20
0.838027
10
2.333498
20
0.809746
10
2.37162
20
0.790835
10
2.400079
20
0.800325
10
2.418524
20
0.839251
10
2.408153
20
0.868563
10
2.397426
20
0.897747
10
2.386345
20
0.926798
10
2.218556
20
0.861633
8
gear_texts
0
LWPOLYLINE
5
1016
100
AcDbEntity
100
AcDbPolyline
90
2
70
0
43
0
10
2.275403
20
0.697813
10
2.390129
20
0.732997
8
gear_texts
0
LWPOLYLINE
5
1017
100
AcDbEntity
100
AcDbPolyline
90
2
70
0
43
0
10
2.41881
20
0.741793
10
2.447492
20
0.750589
8
gear_texts
0
LWPOLYLINE
5
1018
100
AcDbEntity
100
AcDbPolyline
90
4
70
0
43
0
10
2.349417
20
0.536973
10
2.313559
20
0.558429
10
2.335681
20
0.59388
10
2.481056
20
0.630843
8
gear_texts
0
LWPOLYLINE
5
1019
100
AcDbEntity
100
AcDbPolyline
90
5
70
0
43
0
10
2.437155
20
0.557026
10
2.430209
20
0.586585
10
2.422906
20
0.616058
10
2.415245
20
0.64544
10
2.407228
20
0.674726
8
gear_texts
0
LWPOLYLINE
5
1020
100
AcDbEntity
100
AcDbPolyline
90
10
70
0
43
0
10
2.352623
20
0.35995
10
2.348078
20
0.388497
10
2.343186
20
0.416986
10
2.337949
20
0.445415
10
2.361766
20
0.479749
10
2.420566
20
0.491693
10
2.455829
20
0.467873
10
2.46133
20
0.438011
10
2.466469
20
0.408085
10
2.471243
20
0.378098
8
gear_texts
0
LWPOLYLINE
5
1021
100
AcDbEntity
100
AcDbPolyline
90
6
70
0
43
0
10
2.420185
20
0.310331
10
2.453576
20
0.284368
10
2.486689
20
0.257639
10
2.489635
20
0.227418
10
2.462307
20
0.194798
10
2.372587
20
0.1877
8
gear_texts
0
LWPOLYLINE
5
1022
100
AcDbEntity
100
AcDbPolyline
90
2
70
0
43
0
10
2.360672
20
0.3027
10
2.53921
20
0.325593
8
gear_texts
0
LWPOLYLINE
5
1023
100
AcDbEntity
100
AcDbPolyline
90
10
70
0
43
0
10
2.379956
20
-0.014453
10
2.379605
20
-0.043358
10
2.378903
20
-0.072256
10
2.37785
20
-0.101144
10
2.406401
20
-0.131655
10
2.526222
20
-0.138211
10
2.557687
20
-0.108793
10
2.55882
20
-0.077721
10
2.559575
20
-0.046637
10
2.559953
20
-0.015546
8
gear_texts
0
LWPOLYLINE
5
1024
100
AcDbEntity
100
AcDbPolyline
90
2
70
0
43
0
10
2.559575
20
-0.046637
10
2.379605
20
-0.043358
8
gear_texts
0
LWPOLYLINE
5
1025
100
AcDbEntity
100
AcDbPolyline
90
5
70
0
43
0
10
2.479698
20
-0.317962
10
2.483376
20
-0.287822
10
2.486689
20
-0.257639
10
2.489635
20
-0.227418
10
2.492213
20
-0.197163
8
gear_texts
0
LWPOLYLINE
5
1026
100
AcDbEntity
100
AcDbPolyline
90
5
70
0
43
0
10
2.420185
20
-0.310331
10
2.423775
20
-0.280914
10
2.427008
20
-0.251456
10
2.429883
20
-0.22196
10
2.4324
20
-0.192432
8
gear_texts
0
LWPOLYLINE
5
1027
100
AcDbEntity
100
AcDbPolyline
90
14
70
0
43
0
10
2.441588
20
-0.373561
10
2.436871
20
-0.403188
10
2.431794
20
-0.432755
10
2.426359
20
-0.462258
10
2.391166
20
-0.485721
10
2.361766
20
-0.479749
10
2.337949
20
-0.445415
10
2.343186
20
-0.416986
10
2.348078
20
-0.388497
10
2.382278
20
-0.364487
10
2.471243
20
-0.378098
10
2.496066
20
-0.412982
10
2.520402
20
-0.448523
10
2.514769
20
-0.479102
8
gear_texts
0
LWPOLYLINE
5
1028
100
AcDbEntity
100
AcDbPolyline
90
11
70
0
43
0
10
2.370069
20
-0.695466
10
2.361447
20
-0.724201
10
2.352477
20
-0.752828
10
2.34316
20
-0.781345
10
2.36184
20
-0.819581
10
2.390182
20
-0.829416
10
2.428539
20
-0.809815
10
2.438195
20
-0.780259
10
2.447492
20
-0.750589
10
2.456428
20
-0.720807
10
2.28371
20
-0.670126
8
gear_texts
0
LWPOLYLINE
5
1029
100
AcDbEntity
100
AcDbPolyline
90
5
70
0
43
0
10
2.295897
20
-0.989371
10
2.307744
20
-0.961413
10
2.319251
20
-0.933314
10
2.330416
20
-0.905077
10
2.341236
20
-0.876706
8
gear_texts
0
LWPOLYLINE
5
1030
100
AcDbEntity
100
AcDbPolyline
90
5
70
0
43
0
10
2.240796
20
-0.965626
10
2.252359
20
-0.938339
10
2.263589
20
-0.910914
10
2.274486
20
-0.883355
10
2.285047
20
-0.855665
8
gear_texts
0
LWPOLYLINE
5
1031
100
AcDbEntity
100
AcDbPolyline
90
15
70
0
43
0
10
2.270994
20
-1.181603
10
2.285178
20
-1.153934
10
2.299024
20
-1.126094
10
2.312532
20
-1.098088
10
2.325698
20
-1.069921
10
2.271189
20
-1.044844
10
2.258332
20
-1.072352
10
2.245141
20
-1.099701
10
2.231619
20
-1.126888
10
2.191154
20
-1.140062
10
2.137928
20
-1.112369
10
2.124501
20
-1.072798
10
2.137374
20
-1.046916
10
2.149932
20
-1.020879
10
2.189426
20
-1.00723
8
gear_texts
0
LWPOLYLINE
5
1032
100
AcDbEntity
100
AcDbPolyline
90
11
70
0
43
0
10
2.086428
20
-1.322013
10
2.070218
20
-1.347256
10
2.053702
20
-1.3723
10
2.036884
20
-1.397142
10
2.044296
20
-1.439046
10
2.068827
20
-1.456315
10
2.111102
20
-1.44805
10
2.128533
20
-1.422303
10
2.145651
20
-1.396346
10
2.162452
20
-1.370183
10
2.010405
20
-1.273842
8
gear_texts
0
LWPOLYLINE
5
1033
100
AcDbEntity
100
AcDbPolyline
90
7
70
0
43
0
10
1.91232
20
-1.416839
10
1.96053
20
-1.452557
10
1.990516
20
-1.512563
10
2.019326
20
-1.573506
10
1.95319
20
-1.560465
10
1.887675
20
-1.546054
10
1.841257
20
-1.508037
8
gear_texts
0
LWPOLYLINE
5
1034
100
AcDbEntity
100
AcDbPolyline
90
5
70
0
43
0
10
1.96053
20
-1.452557
10
1.942743
20
-1.476262
10
1.92467
20
-1.499748
10
1.906313
20
-1.523014
10
1.887675
20
-1.546054
8
gear_texts
0
LWPOLYLINE
5
1035
100
AcDbEntity
100
AcDbPolyline
90
5
70
0
43
0
10
1.813623
20
-1.720689
10
1.834388
20
-1.698535
10
1.854882
20
-1.67613
10
1.875103
20
-1.653478
10
1.895047
20
-1.630582
8
gear_texts
0
LWPOLYLINE
5
1036
100
AcDbEntity
100
AcDbPolyline
90
5
70
0
43
0
10
1.770096
20
-1.679392
10
1.790363
20
-1.65777
10
1.810365
20
-1.635903
10
1.8301
20
-1.613795
10
1.849566
20
-1.591448
8
gear_texts
0
LWPOLYLINE
5
1037
100
AcDbEntity
100
AcDbPolyline
90
15
70
0
43
0
10
1.602717
20
-1.75946
10
1.623968
20
-1.739864
10
1.64498
20
-1.720012
10
1.665749
20
-1.699906
10
1.686272
20
-1.679549
10
1.728783
20
-1.721891
10
1.728739
20
-1.764188
10
1.707185
20
-1.785054
10
1.685379
20
-1.805657
10
1.683526
20
-1.848172
10
1.703729
20
-1.87035
10
1.746789
20
-1.87145
10
1.76939
20
-1.850097
10
1.79173
20
-1.82847
10
1.79255
20
-1.785403
8
gear_texts
0
LWPOLYLINE
5
1038
100
AcDbEntity
100
AcDbPolyline
90
9
70
0
43
0
10
1.507425
20
-1.918664
10
1.530617
20
-1.900214
10
1.553583
20
-1.881484
10
1.576319
20
-1.862476
10
1.598824
20
-1.843194
10
1.602161
20
-1.893008
10
1.60452
20
-1.943172
10
1.605893
20
-1.993667
10
1.492978
20
-1.853487
8
gear_texts
0
LINE
5
1001
100
AcDbEntity
100
AcDbLine
10
0.1
20
0
30
0
11
-0.1
21
0
31
0
8
gear_guides
0
LINE
5
1002
100
AcDbEntity
100
AcDbLine
10
0
20
0.1
30
0
11
0
21
-0.1
31
0
8
gear_guides
0
CIRCLE
5
1003
100
AcDbEntity
100
AcDbCircle
10
2.990942
20
0.232956
30
0
40
0.0785
8
gear_guides
0
CIRCLE
5
1039
100
AcDbEntity
100
AcDbCircle
10
0
20
0
30
0
40
3
8
gear_guides
0
CIRCLE
5
1040
100
AcDbEntity
100
AcDbCircle
10
0
20
0
30
0
40
3.2
8
gear_guides
0
CIRCLE
5
1041
100
AcDbEntity
100
AcDbCircle
10
0
20
0
30
0
40
2.740636
8
gear_guides
0
ENDSEC
0
SECTION
2
OBJECTS
0
DICTIONARY
5
21D
330
0
100
AcDbDictionary
281
1
3
ACAD_CIP_PREVIOUS_PRODUCT_INFO
350
291
3
ACAD_COLOR
350
273
3
ACAD_DETAILVIEWSTYLE
350
27B
3
ACAD_GROUP
350
21E
3
ACAD_LAYOUT
350
272
3
ACAD_MATERIAL
350
221
3
ACAD_MLEADERSTYLE
350
276
3
ACAD_MLINESTYLE
350
26F
3
ACAD_PLOTSETTINGS
350
271
3
ACAD_PLOTSTYLENAME
350
21F
3
ACAD_SCALELIST
350
253
3
ACAD_SECTIONVIEWSTYLE
350
278
3
ACAD_TABLESTYLE
350
274
3
ACAD_VISUALSTYLE
350
23A
3
ACDB_RECOMPOSE_DATA
350
1057
3
AcDbVariableDictionary
350
29D
0
DICTIONARY
5
297
330
213
100
AcDbDictionary
280
1
281
1
3
ACAD_LAYERSTATES
360
298
0
DICTIONARY
5
292
330
265
100
AcDbDictionary
280
1
281
1
3
ADSK_XREC_LAYER_RECONCILED
360
293
0
XRECORD
5
291
102
{ACAD_REACTORS
330
21D
102
}
330
21D
100
AcDbXrecord
280
1
300
ACDMAC
300
2013
300
ACDMAC_F_S
0
DICTIONARY
5
273
102
{ACAD_REACTORS
330
21D
102
}
330
21D
100
AcDbDictionary
281
1
0
DICTIONARY
5
27B
102
{ACAD_REACTORS
330
21D
102
}
330
21D
100
AcDbDictionary
281
1
3
Imperial24
350
27C
0
DICTIONARY
5
21E
102
{ACAD_REACTORS
330
21D
102
}
330
21D
100
AcDbDictionary
281
1
0
DICTIONARY
5
272
102
{ACAD_REACTORS
330
21D
102
}
330
21D
100
AcDbDictionary
281
1
3
Layout1
350
280
3
Model
350
284
0
DICTIONARY
5
221
102
{ACAD_REACTORS
330
21D
102
}
330
21D
100
AcDbDictionary
281
1
3
ByBlock
350
22A
3
ByLayer
350
222
3
Global
350
232
0
DICTIONARY
5
276
102
{ACAD_REACTORS
330
21D
102
}
330
21D
100
AcDbDictionary
281
1
3
Standard
350
277
0
DICTIONARY
5
26F
102
{ACAD_REACTORS
330
21D
102
}
330
21D
100
AcDbDictionary
281
1
3
Standard
350
270
0
DICTIONARY
5
271
102
{ACAD_REACTORS
330
21D
102
}
330
21D
100
AcDbDictionary
281
1
0
ACDBDICTIONARYWDFLT
5
21F
102
{ACAD_REACTORS
330
21D
102
}
330
21D
100
AcDbDictionary
281
1
3
Normal
350
220
100
AcDbDictionaryWithDefault
340
220
0
DICTIONARY
5
253
102
{ACAD_REACTORS
330
21D
102
}
330
21D
100
AcDbDictionary
281
1
3
A0
350
254
3
A1
350
255
3
A2
350
256
3
A3
350
257
3
A4
350
258
3
A5
350
259
3
A6
350
25A
3
A7
350
25B
3
A8
350
25C
3
A9
350
25D
3
B0
350
25E
3
B1
350
25F
3
B2
350
260
3
B3
350
261
3
B4
350
262
3
B5
350
263
3
B6
350
264
0
DICTIONARY
5
278
102
{ACAD_REACTORS
330
21D
102
}
330
21D
100
AcDbDictionary
281
1
3
Imperial24
350
27A
0
DICTIONARY
5
274
102
{ACAD_REACTORS
330
21D
102
}
330
21D
100
AcDbDictionary
281
1
3
Standard
350
275
0
DICTIONARY
5
23A
102
{ACAD_REACTORS
330
21D
102
}
330
21D
100
AcDbDictionary
281
1
3
2dWireframe
350
240
3
Basic
350
23F
3
Brighten
350
246
3
ColorChange
350
24A
3
Conceptual
350
243
3
Dim
350
245
3
EdgeColorOff
350
252
3
Facepattern
350
249
3
Flat
350
23B
3
FlatWithEdges
350
23C
3
Gouraud
350
23D
3
GouraudWithEdges
350
23E
3
Hidden
350
242
3
JitterOff
350
250
3
Linepattern
350
248
3
OverhangOff
350
251
3
Realistic
350
244
3
Shaded
350
24F
3
Shaded with edges
350
24E
3
Shades of Gray
350
24B
3
Sketchy
350
24C
3
Thicken
350
247
3
Wireframe
350
241
3
X-Ray
350
24D
0
XRECORD
5
1057
102
{ACAD_REACTORS
330
21D
102
}
330
21D
100
AcDbXrecord
280
1
90
1
330
275
0
DICTIONARY
5
29D
102
{ACAD_REACTORS
330
21D
102
}
330
21D
100
AcDbDictionary
281
1
3
CANNOSCALE
350
2A3
3
CMLEADERSTYLE
350
29F
3
CTABLESTYLE
350
29E
3
CVIEWDETAILSTYLE
350
2A0
3
CVIEWSECTIONSTYLE
350
2A1
3
LAYEREVAL
350
2A5
3
LAYERNOTIFY
350
2A6
3
LIGHTINGUNITS
350
2A4
3
MSLTSCALE
350
2A2
0
DICTIONARY
5
298
102
{ACAD_REACTORS
330
297
102
}
330
297
100
AcDbDictionary
281
1
0
XRECORD
5
293
102
{ACAD_REACTORS
330
292
102
}
330
292
100
AcDbXrecord
280
1
290
1
0
ACDBDETAILVIEWSTYLE
5
27C
102
{ACAD_REACTORS
330
27B
102
}
330
27B
100
AcDbModelDocViewStyle
70
0
3
Imperial24
290
0
100
AcDbDetailViewStyle
70
0
71
0
90
3
71
1
340
266
62
256
40
0.24
340
0
62
256
40
0.24
300

40
0.36
280
3
71
2
340
26D
90
25
62
256
71
3
340
266
62
256
40
0.24
90
1
40
0.75
90
1
300
%<AcVar ViewType  "%tc1">% %<AcVar ViewDetailId>%PSCALE %<AcVar ViewScale  "%sn">%
71
4
340
26D
90
25
62
256
340
26D
90
25
62
256
280
0
0
LAYOUT
5
280
102
{ACAD_REACTORS
330
272
102
}
330
272
100
AcDbPlotSettings
1

2
HP_LaserJet_P1505
4

6

40
0.0
41
0.0
42
0.0
43
0.0
44
0.0
45
0.0
46
0.0
47
0.0
48
0.0
49
0.0
140
0.0
141
0.0
142
1.0
143
1.0
70
688
72
0
73
0
74
5
7

75
16
147
1.0
76
0
77
2
78
300
148
0.0
149
0.0
100
AcDbLayout
1
Layout1
70
1
71
1
10
0.0
20
0.0
11
12.0
21
9.0
12
0.0
22
0.0
32
0.0
14
0.0
24
0.0
34
0.0
15
0.0
25
0.0
35
0.0
146
0.0
13
0.0
23
0.0
33
0.0
16
1.0
26
0.0
36
0.0
17
0.0
27
1.0
37
0.0
76
0
330
27D
0
LAYOUT
5
284
102
{ACAD_REACTORS
330
272
102
}
330
272
100
AcDbPlotSettings
1

2
HP_LaserJet_P1505
4

6

40
0.0
41
0.0
42
0.0
43
0.0
44
0.0
45
0.0
46
0.0
47
0.0
48
0.0
49
0.0
140
0.0
141
0.0
142
1.0
143
1.0
70
1712
72
0
73
0
74
0
7

75
0
147
1.0
76
0
77
2
78
300
148
0.0
149
0.0
100
AcDbLayout
1
Model
70
1
71
0
10
0.0
20
0.0
11
12.0
21
9.0
12
0.0
22
0.0
32
0.0
14
0.0
24
0.0
34
0.0
15
0.0
25
0.0
35
0.0
146
0.0
13
0.0
23
0.0
33
0.0
16
1.0
26
0.0
36
0.0
17
0.0
27
1.0
37
0.0
76
0
330
281
331
285
0
MATERIAL
5
22A
102
{ACAD_XDICTIONARY
360
22B
102
}
102
{ACAD_REACTORS
330
221
102
}
330
221
100
AcDbMaterial
1
ByBlock
72
0
43
0.0208333333333333
43
0.0
43
0.0
43
0.0
43
0.0
43
0.0208333333333333
43
0.0
43
0.0
43
0.0
43
0.0
43
1.0
43
0.0
43
0.0
43
0.0
43
0.0
43
1.0
77
0
47
0.0208333333333333
47
0.0
47
0.0
47
0.0
47
0.0
47
0.0208333333333333
47
0.0
47
0.0
47
0.0
47
0.0
47
1.0
47
0.0
47
0.0
47
0.0
47
0.0
47
1.0
171
0
49
0.0208333333333333
49
0.0
49
0.0
49
0.0
49
0.0
49
0.0208333333333333
49
0.0
49
0.0
49
0.0
49
0.0
49
1.0
49
0.0
49
0.0
49
0.0
49
0.0
49
1.0
175
0
142
0.0208333333333333
142
0.0
142
0.0
142
0.0
142
0.0
142
0.0208333333333333
142
0.0
142
0.0
142
0.0
142
0.0
142
1.0
142
0.0
142
0.0
142
0.0
142
0.0
142
1.0
179
0
144
0.0208333333333333
144
0.0
144
0.0
144
0.0
144
0.0
144
0.0208333333333333
144
0.0
144
0.0
144
0.0
144
0.0
144
1.0
144
0.0
144
0.0
144
0.0
144
0.0
144
1.0
147
0.0208333333333333
147
0.0
147
0.0
147
0.0
147
0.0
147
0.0208333333333333
147
0.0
147
0.0
147
0.0
147
0.0
147
1.0
147
0.0
147
0.0
147
0.0
147
0.0
147
1.0
0
MATERIAL
5
222
102
{ACAD_XDICTIONARY
360
223
102
}
102
{ACAD_REACTORS
330
221
102
}
330
221
100
AcDbMaterial
1
ByLayer
72
0
43
0.0208333333333333
43
0.0
43
0.0
43
0.0
43
0.0
43
0.0208333333333333
43
0.0
43
0.0
43
0.0
43
0.0
43
1.0
43
0.0
43
0.0
43
0.0
43
0.0
43
1.0
77
0
47
0.0208333333333333
47
0.0
47
0.0
47
0.0
47
0.0
47
0.0208333333333333
47
0.0
47
0.0
47
0.0
47
0.0
47
1.0
47
0.0
47
0.0
47
0.0
47
0.0
47
1.0
171
0
49
0.0208333333333333
49
0.0
49
0.0
49
0.0
49
0.0
49
0.0208333333333333
49
0.0
49
0.0
49
0.0
49
0.0
49
1.0
49
0.0
49
0.0
49
0.0
49
0.0
49
1.0
175
0
142
0.0208333333333333
142
0.0
142
0.0
142
0.0
142
0.0
142
0.0208333333333333
142
0.0
142
0.0
142
0.0
142
0.0
142
1.0
142
0.0
142
0.0
142
0.0
142
0.0
142
1.0
179
0
144
0.0208333333333333
144
0.0
144
0.0
144
0.0
144
0.0
144
0.0208333333333333
144
0.0
144
0.0
144
0.0
144
0.0
144
1.0
144
0.0
144
0.0
144
0.0
144
0.0
144
1.0
147
0.0208333333333333
147
0.0
147
0.0
147
0.0
147
0.0
147
0.0208333333333333
147
0.0
147
0.0
147
0.0
147
0.0
147
1.0
147
0.0
147
0.0
147
0.0
147
0.0
147
1.0
0
MATERIAL
5
232
102
{ACAD_XDICTIONARY
360
233
102
}
102
{ACAD_REACTORS
330
221
102
}
330
221
100
AcDbMaterial
1
Global
72
0
43
0.0208333333333333
43
0.0
43
0.0
43
0.0
43
0.0
43
0.0208333333333333
43
0.0
43
0.0
43
0.0
43
0.0
43
1.0
43
0.0
43
0.0
43
0.0
43
0.0
43
1.0
77
0
47
0.0208333333333333
47
0.0
47
0.0
47
0.0
47
0.0
47
0.0208333333333333
47
0.0
47
0.0
47
0.0
47
0.0
47
1.0
47
0.0
47
0.0
47
0.0
47
0.0
47
1.0
171
0
49
0.0208333333333333
49
0.0
49
0.0
49
0.0
49
0.0
49
0.0208333333333333
49
0.0
49
0.0
49
0.0
49
0.0
49
1.0
49
0.0
49
0.0
49
0.0
49
0.0
49
1.0
175
0
142
0.0208333333333333
142
0.0
142
0.0
142
0.0
142
0.0
142
0.0208333333333333
142
0.0
142
0.0
142
0.0
142
0.0
142
1.0
142
0.0
142
0.0
142
0.0
142
0.0
142
1.0
179
0
144
0.0208333333333333
144
0.0
144
0.0
144
0.0
144
0.0
144
0.0208333333333333
144
0.0
144
0.0
144
0.0
144
0.0
144
1.0
144
0.0
144
0.0
144
0.0
144
0.0
144
1.0
147
0.0208333333333333
147
0.0
147
0.0
147
0.0
147
0.0
147
0.0208333333333333
147
0.0
147
0.0
147
0.0
147
0.0
147
1.0
147
0.0
147
0.0
147
0.0
147
0.0
147
1.0
0
MLEADERSTYLE
5
277
102
{ACAD_REACTORS
330
276
102
}
330
276
100
AcDbMLeaderStyle
179
2
170
2
171
1
172
0
90
2
40
0.0
41
0.0
173
1
91
-1056964608
340
26B
92
-2
290
1
42
0.09
291
1
43
0.36
3
Standard
44
0.18
300

342
266
174
1
178
6
175
1
176
0
93
-1056964608
45
0.18
292
0
297
0
46
0.18
94
-1056964608
47
1.0
49
1.0
140
1.0
293
1
141
0.0
294
1
177
0
142
1.0
295
0
296
0
143
0.125
271
0
272
9
273
9
298
0
0
MLINESTYLE
5
270
102
{ACAD_REACTORS
330
26F
102
}
330
26F
100
AcDbMlineStyle
2
STANDARD
70
0
3

62
256
51
90.0
52
90.0
71
2
49
0.5
62
256
6
BYLAYER
49
-0.5
62
256
6
BYLAYER
0
ACDBPLACEHOLDER
5
220
102
{ACAD_REACTORS
330
21F
102
}
330
21F
0
SCALE
5
254
102
{ACAD_REACTORS
330
253
102
}
330
253
100
AcDbScale
70
0
300
1:1
140
1.0
141
1.0
290
1
0
SCALE
5
255
102
{ACAD_REACTORS
330
253
102
}
330
253
100
AcDbScale
70
0
300
1/128" = 1'-0"
140
0.0078125
141
12.0
290
0
0
SCALE
5
256
102
{ACAD_REACTORS
330
253
102
}
330
253
100
AcDbScale
70
0
300
1/64" = 1'-0"
140
0.015625
141
12.0
290
0
0
SCALE
5
257
102
{ACAD_REACTORS
330
253
102
}
330
253
100
AcDbScale
70
0
300
1/32" = 1'-0"
140
0.03125
141
12.0
290
0
0
SCALE
5
258
102
{ACAD_REACTORS
330
253
102
}
330
253
100
AcDbScale
70
0
300
1/16" = 1'-0"
140
0.0625
141
12.0
290
0
0
SCALE
5
259
102
{ACAD_REACTORS
330
253
102
}
330
253
100
AcDbScale
70
0
300
3/32" = 1'-0"
140
0.09375
141
12.0
290
0
0
SCALE
5
25A
102
{ACAD_REACTORS
330
253
102
}
330
253
100
AcDbScale
70
0
300
1/8" = 1'-0"
140
0.125
141
12.0
290
0
0
SCALE
5
25B
102
{ACAD_REACTORS
330
253
102
}
330
253
100
AcDbScale
70
0
300
3/16" = 1'-0"
140
0.1875
141
12.0
290
0
0
SCALE
5
25C
102
{ACAD_REACTORS
330
253
102
}
330
253
100
AcDbScale
70
0
300
1/4" = 1'-0"
140
0.25
141
12.0
290
0
0
SCALE
5
25D
102
{ACAD_REACTORS
330
253
102
}
330
253
100
AcDbScale
70
0
300
3/8" = 1'-0"
140
0.375
141
12.0
290
0
0
SCALE
5
25E
102
{ACAD_REACTORS
330
253
102
}
330
253
100
AcDbScale
70
0
300
1/2" = 1'-0"
140
0.5
141
12.0
290
0
0
SCALE
5
25F
102
{ACAD_REACTORS
330
253
102
}
330
253
100
AcDbScale
70
0
300
3/4" = 1'-0"
140
0.75
141
12.0
290
0
0
SCALE
5
260
102
{ACAD_REACTORS
330
253
102
}
330
253
100
AcDbScale
70
0
300
1" = 1'-0"
140
1.0
141
12.0
290
0
0
SCALE
5
261
102
{ACAD_REACTORS
330
253
102
}
330
253
100
AcDbScale
70
0
300
1-1/2" = 1'-0"
140
1.5
141
12.0
290
0
0
SCALE
5
262
102
{ACAD_REACTORS
330
253
102
}
330
253
100
AcDbScale
70
0
300
3" = 1'-0"
140
3.0
141
12.0
290
0
0
SCALE
5
263
102
{ACAD_REACTORS
330
253
102
}
330
253
100
AcDbScale
70
0
300
6" = 1'-0"
140
6.0
141
12.0
290
0
0
SCALE
5
264
102
{ACAD_REACTORS
330
253
102
}
330
253
100
AcDbScale
70
0
300
1'-0" = 1'-0"
140
12.0
141
12.0
290
0
0
ACDBSECTIONVIEWSTYLE
5
27A
102
{ACAD_REACTORS
330
278
102
}
330
278
100
AcDbModelDocViewStyle
70
0
3
Imperial24
290
0
100
AcDbSectionViewStyle
70
0
71
0
90
78
71
1
340
266
62
256
40
0.24
340
0
340
0
62
256
40
0.24
300
I, O, Q, S, X, Z
40
0.48
90
3
40
0.18
90
1
71
2
340
279
90
25
62
256
340
26D
90
50
62
256
40
0.24
40
0.0
40
0.24
71
3
340
266
62
256
40
0.24
90
1
40
0.75
90
1
300
%<AcVar ViewType  "%tc1">% %<AcVar ViewSectionStartId>%-%<AcVar ViewSectionEndId>%PSCALE %<AcVar ViewScale  "%sn">%
71
4
62
256
62
257
300
ANSI31
40
1.0
90
0
290
0
290
0
90
6
40
0.0
40
1.570796326794896
40
0.2617993877991494
40
1.308996938995747
40
-0.2617993877991494
40
1.832595714594044
0
TABLESTYLE
5
275
102
{ACAD_XDICTIONARY
360
2A7
102
}
102
{ACAD_REACTORS
330
274
102
}
330
274
100
AcDbTableStyle
280
0
3
Standard
70
0
71
0
40
0.06
41
0.06
280
0
281
0
7
STANDARD
140
0.18
170
2
62
0
63
7
283
0
90
512
91
0
1

274
-2
284
1
64
0
275
-2
285
1
65
0
276
-2
286
1
66
0
277
-2
287
1
67
0
278
-2
288
1
68
0
279
-2
289
1
69
0
7
STANDARD
140
0.25
170
5
62
0
63
7
283
0
90
512
91
0
1

274
-2
284
1
64
0
275
-2
285
1
65
0
276
-2
286
1
66
0
277
-2
287
1
67
0
278
-2
288
1
68
0
279
-2
289
1
69
0
7
STANDARD
140
0.18
170
5
62
0
63
7
283
0
90
512
91
0
1

274
-2
284
1
64
0
275
-2
285
1
65
0
276
-2
286
1
66
0
277
-2
287
1
67
0
278
-2
288
1
68
0
279
-2
289
1
69
0
0
VISUALSTYLE
5
240
102
{ACAD_REACTORS
330
23A
102
}
330
23A
100
AcDbVisualStyle
2
2dWireframe
70
4
177
3
291
0
70
58
90
0
176
1
90
2
176
1
90
0
176
1
90
0
176
1
40
0.6
176
1
40
30.0
176
1
62
7
420
16777215
176
1
90
1
176
1
90
4
176
1
62
7
176
1
62
257
176
1
90
1
176
1
90
1
176
1
40
1.0
176
1
90
0
176
1
62
257
176
1
40
1.0
176
1
90
1
176
1
90
6
176
1
90
2
176
1
62
7
176
1
90
5
176
1
90
0
176
1
90
0
176
1
290
0
176
1
90
1
176
1
40
0.0
176
1
90
0
176
1
290
1
176
1
290
1
176
1
290
0
176
1
290
0
176
1
290
0
176
1
290
0
176
1
290
0
176
1
290
0
176
1
290
0
176
1
90
50
176
1
40
0.0
176
1
40
1.0
176
1
90
0
176
1
62
18
176
1
90
50
176
1
90
3
176
1
62
5
420
255
176
1
290
0
176
1
90
50
176
1
90
50
176
1
90
50
176
1
290
0
176
1
90
50
176
1
62
256
176
0
40
1.0
176
0
90
2
176
1
1
strokes_ogs.tif
176
1
290
0
176
1
40
1.0
176
1
40
1.0
176
1
1001
ACAD
1000
AcDbSavedByObjectVersion
1070
0
0
VISUALSTYLE
5
23F
102
{ACAD_REACTORS
330
23A
102
}
330
23A
100
AcDbVisualStyle
2
Basic
70
7
177
3
291
1
70
58
90
1
176
1
90
0
176
1
90
1
176
1
90
0
176
1
40
0.6
176
1
40
30.0
176
1
62
7
420
16777215
176
1
90
0
176
1
90
4
176
1
62
7
176
1
62
257
176
1
90
1
176
1
90
1
176
1
40
1.0
176
1
90
8
176
1
62
7
176
1
40
1.0
176
1
90
1
176
1
90
6
176
1
90
2
176
1
62
7
176
1
90
5
176
1
90
0
176
1
90
0
176
1
290
0
176
1
90
1
176
1
40
0.0
176
1
90
0
176
1
290
0
176
1
290
1
176
1
290
1
176
1
290
0
176
1
290
0
176
1
290
0
176
1
290
0
176
1
290
0
176
1
290
0
176
1
90
50
176
1
40
0.0
176
1
40
1.0
176
1
90
0
176
1
62
18
176
1
90
50
176
1
90
3
176
1
62
5
420
255
176
1
290
0
176
1
90
50
176
1
90
50
176
1
90
50
176
1
290
0
176
1
90
50
176
1
62
256
176
0
40
1.0
176
0
90
2
176
1
1
strokes_ogs.tif
176
1
290
0
176
1
40
1.0
176
1
40
1.0
176
1
1001
ACAD
1000
AcDbSavedByObjectVersion
1070
0
0
VISUALSTYLE
5
246
102
{ACAD_REACTORS
330
23A
102
}
330
23A
100
AcDbVisualStyle
2
Brighten
70
12
177
3
291
1
70
58
90
2
176
1
90
2
176
1
90
0
176
1
90
0
176
1
40
0.6
176
1
40
30.0
176
1
62
7
420
16777215
176
1
90
1
176
1
90
4
176
1
62
7
176
1
62
257
176
1
90
1
176
1
90
1
176
1
40
1.0
176
1
90
8
176
1
62
7
176
1
40
1.0
176
1
90
1
176
1
90
6
176
1
90
2
176
1
62
7
176
1
90
5
176
1
90
0
176
1
90
0
176
1
290
0
176
1
90
1
176
1
40
50.0
176
1
90
0
176
1
290
0
176
1
290
1
176
1
290
1
176
1
290
0
176
1
290
0
176
1
290
0
176
1
290
0
176
1
290
0
176
1
290
0
176
1
90
50
176
1
40
0.0
176
1
40
1.0
176
1
90
0
176
1
62
18
176
1
90
50
176
1
90
3
176
1
62
5
420
255
176
1
290
0
176
1
90
50
176
1
90
50
176
1
90
50
176
1
290
0
176
1
90
50
176
1
62
256
176
0
40
1.0
176
0
90
2
176
1
1
strokes_ogs.tif
176
1
290
0
176
1
40
1.0
176
1
40
1.0
176
1
1001
ACAD
1000
AcDbSavedByObjectVersion
1070
0
0
VISUALSTYLE
5
24A
102
{ACAD_REACTORS
330
23A
102
}
330
23A
100
AcDbVisualStyle
2
ColorChange
70
16
177
3
291
1
70
58
90
2
176
1
90
2
176
1
90
3
176
1
90
0
176
1
40
0.6
176
1
40
30.0
176
1
62
8
420
8421504
176
1
90
1
176
1
90
4
176
1
62
7
176
1
62
257
176
1
90
1
176
1
90
1
176
1
40
1.0
176
1
90
8
176
1
62
8
420
8421504
176
1
40
1.0
176
1
90
1
176
1
90
6
176
1
90
2
176
1
62
7
176
1
90
5
176
1
90
0
176
1
90
0
176
1
290
0
176
1
90
1
176
1
40
0.0
176
1
90
0
176
1
290
0
176
1
290
1
176
1
290
1
176
1
290
0
176
1
290
0
176
1
290
0
176
1
290
0
176
1
290
0
176
1
290
0
176
1
90
50
176
1
40
0.0
176
1
40
1.0
176
1
90
0
176
1
62
18
176
1
90
50
176
1
90
3
176
1
62
5
420
255
176
1
290
0
176
1
90
50
176
1
90
50
176
1
90
50
176
1
290
0
176
1
90
50
176
1
62
256
176
0
40
1.0
176
0
90
2
176
1
1
strokes_ogs.tif
176
1
290
0
176
1
40
1.0
176
1
40
1.0
176
1
1001
ACAD
1000
AcDbSavedByObjectVersion
1070
0
0
VISUALSTYLE
5
243
102
{ACAD_REACTORS
330
23A
102
}
330
23A
100
AcDbVisualStyle
2
Conceptual
70
9
177
3
291
0
70
58
90
3
176
1
90
2
176
1
90
0
176
1
90
0
176
1
40
0.6
176
1
40
30.0
176
1
62
7
420
16777215
176
1
90
2
176
1
90
2
176
1
62
7
176
1
62
257
176
1
90
1
176
1
90
1
176
1
40
179.0
176
1
90
8
176
1
62
7
176
1
40
1.0
176
1
90
1
176
1
90
6
176
1
90
2
176
1
62
7
176
1
90
3
176
1
90
0
176
1
90
0
176
1
290
0
176
1
90
1
176
1
40
0.0
176
1
90
0
176
1
290
0
176
1
290
1
176
1
290
1
176
1
290
0
176
1
290
0
176
1
290
0
176
1
290
0
176
1
290
0
176
1
290
0
176
1
90
50
176
1
40
0.0
176
1
40
1.0
176
1
90
0
176
1
62
18
176
1
90
50
176
1
90
3
176
1
62
5
420
255
176
1
290
0
176
1
90
50
176
1
90
50
176
1
90
50
176
1
290
0
176
1
90
50
176
1
62
256
176
0
40
1.0
176
0
90
2
176
1
1
strokes_ogs.tif
176
1
290
0
176
1
40
1.0
176
1
40
1.0
176
1
1001
ACAD
1000
AcDbSavedByObjectVersion
1070
0
0
VISUALSTYLE
5
245
102
{ACAD_REACTORS
330
23A
102
}
330
23A
100
AcDbVisualStyle
2
Dim
70
11
177
3
291
1
70
58
90
2
176
1
90
2
176
1
90
0
176
1
90
0
176
1
40
0.6
176
1
40
30.0
176
1
62
7
420
16777215
176
1
90
1
176
1
90
4
176
1
62
7
176
1
62
257
176
1
90
1
176
1
90
1
176
1
40
1.0
176
1
90
8
176
1
62
7
176
1
40
1.0
176
1
90
1
176
1
90
6
176
1
90
2
176
1
62
7
176
1
90
5
176
1
90
0
176
1
90
0
176
1
290
0
176
1
90
1
176
1
40
-50.0
176
1
90
0
176
1
290
0
176
1
290
1
176
1
290
1
176
1
290
0
176
1
290
0
176
1
290
0
176
1
290
0
176
1
290
0
176
1
290
0
176
1
90
50
176
1
40
0.0
176
1
40
1.0
176
1
90
0
176
1
62
18
176
1
90
50
176
1
90
3
176
1
62
5
420
255
176
1
290
0
176
1
90
50
176
1
90
50
176
1
90
50
176
1
290
0
176
1
90
50
176
1
62
256
176
0
40
1.0
176
0
90
2
176
1
1
strokes_ogs.tif
176
1
290
0
176
1
40
1.0
176
1
40
1.0
176
1
1001
ACAD
1000
AcDbSavedByObjectVersion
1070
0
0
VISUALSTYLE
5
252
102
{ACAD_REACTORS
330
23A
102
}
330
23A
100
AcDbVisualStyle
2
EdgeColorOff
70
22
177
3
291
1
70
58
90
2
176
0
90
2
176
0
90
0
176
0
90
0
176
0
40
0.6
176
0
40
30.0
176
0
62
7
420
16777215
176
0
90
1
176
0
90
4
176
0
62
7
176
0
62
257
176
0
90
1
176
0
90
1
176
0
40
1.0
176
0
90
8
176
2
62
7
176
0
40
1.0
176
0
90
1
176
0
90
6
176
0
90
2
176
0
62
7
176
0
90
5
176
0
90
0
176
0
90
0
176
0
290
0
176
0
90
1
176
0
40
0.0
176
0
90
0
176
0
290
0
176
1
290
1
176
1
290
1
176
1
290
0
176
1
290
0
176
1
290
0
176
1
290
0
176
1
290
0
176
1
290
0
176
1
90
50
176
0
40
0.0
176
0
40
1.0
176
0
90
0
176
0
62
18
176
0
90
50
176
0
90
3
176
0
62
5
420
255
176
0
290
0
176
1
90
50
176
0
90
50
176
0
90
50
176
0
290
0
176
1
90
50
176
0
62
256
176
0
40
1.0
176
0
90
2
176
0
1
strokes_ogs.tif
176
0
290
0
176
1
40
1.0
176
0
40
1.0
176
0
1001
ACAD
1000
AcDbSavedByObjectVersion
1070
0
0
VISUALSTYLE
5
249
102
{ACAD_REACTORS
330
23A
102
}
330
23A
100
AcDbVisualStyle
2
Facepattern
70
15
177
3
291
1
70
58
90
2
176
1
90
2
176
1
90
0
176
1
90
0
176
1
40
0.6
176
1
40
30.0
176
1
62
7
420
16777215
176
1
90
1
176
1
90
4
176
1
62
7
176
1
62
257
176
1
90
1
176
1
90
1
176
1
40
1.0
176
1
90
8
176
1
62
7
176
1
40
1.0
176
1
90
1
176
1
90
6
176
1
90
2
176
1
62
7
176
1
90
5
176
1
90
0
176
1
90
0
176
1
290
0
176
1
90
1
176
1
40
0.0
176
1
90
0
176
1
290
0
176
1
290
1
176
1
290
1
176
1
290
0
176
1
290
0
176
1
290
0
176
1
290
0
176
1
290
0
176
1
290
0
176
1
90
50
176
1
40
0.0
176
1
40
1.0
176
1
90
0
176
1
62
18
176
1
90
50
176
1
90
3
176
1
62
5
420
255
176
1
290
0
176
1
90
50
176
1
90
50
176
1
90
50
176
1
290
0
176
1
90
50
176
1
62
256
176
0
40
1.0
176
0
90
2
176
1
1
strokes_ogs.tif
176
1
290
0
176
1
40
1.0
176
1
40
1.0
176
1
1001
ACAD
1000
AcDbSavedByObjectVersion
1070
0
0
VISUALSTYLE
5
23B
102
{ACAD_REACTORS
330
23A
102
}
330
23A
100
AcDbVisualStyle
2
Flat
70
0
177
3
291
1
70
58
90
2
176
1
90
1
176
1
90
1
176
1
90
2
176
1
40
0.6
176
1
40
30.0
176
1
62
7
420
16777215
176
1
90
0
176
1
90
0
176
1
62
7
176
1
62
257
176
1
90
1
176
1
90
1
176
1
40
1.0
176
1
90
8
176
1
62
7
176
1
40
1.0
176
1
90
1
176
1
90
6
176
1
90
2
176
1
62
7
176
1
90
5
176
1
90
0
176
1
90
0
176
1
290
0
176
1
90
13
176
1
40
0.0
176
1
90
0
176
1
290
0
176
1
290
1
176
1
290
1
176
1
290
0
176
1
290
0
176
1
290
0
176
1
290
0
176
1
290
0
176
1
290
0
176
1
90
50
176
1
40
0.0
176
1
40
1.0
176
1
90
0
176
1
62
18
176
1
90
50
176
1
90
3
176
1
62
5
420
255
176
1
290
0
176
1
90
50
176
1
90
50
176
1
90
50
176
1
290
0
176
1
90
50
176
1
62
256
176
0
40
1.0
176
0
90
2
176
1
1
strokes_ogs.tif
176
1
290
0
176
1
40
1.0
176
1
40
1.0
176
1
1001
ACAD
1000
AcDbSavedByObjectVersion
1070
0
0
VISUALSTYLE
5
23C
102
{ACAD_REACTORS
330
23A
102
}
330
23A
100
AcDbVisualStyle
2
FlatWithEdges
70
1
177
3
291
1
70
58
90
2
176
1
90
1
176
1
90
1
176
1
90
2
176
1
40
0.6
176
1
40
30.0
176
1
62
7
420
16777215
176
1
90
1
176
1
90
0
176
1
62
7
176
1
62
257
176
1
90
1
176
1
90
1
176
1
40
1.0
176
1
90
0
176
1
62
257
176
1
40
1.0
176
1
90
1
176
1
90
6
176
1
90
2
176
1
62
7
176
1
90
5
176
1
90
0
176
1
90
0
176
1
290
0
176
1
90
13
176
1
40
0.0
176
1
90
0
176
1
290
0
176
1
290
1
176
1
290
1
176
1
290
0
176
1
290
0
176
1
290
0
176
1
290
0
176
1
290
0
176
1
290
0
176
1
90
50
176
1
40
0.0
176
1
40
1.0
176
1
90
0
176
1
62
18
176
1
90
50
176
1
90
3
176
1
62
5
420
255
176
1
290
0
176
1
90
50
176
1
90
50
176
1
90
50
176
1
290
0
176
1
90
50
176
1
62
256
176
0
40
1.0
176
0
90
2
176
1
1
strokes_ogs.tif
176
1
290
0
176
1
40
1.0
176
1
40
1.0
176
1
1001
ACAD
1000
AcDbSavedByObjectVersion
1070
0
0
VISUALSTYLE
5
23D
102
{ACAD_REACTORS
330
23A
102
}
330
23A
100
AcDbVisualStyle
2
Gouraud
70
2
177
3
291
1
70
58
90
2
176
1
90
2
176
1
90
1
176
1
90
2
176
1
40
0.6
176
1
40
30.0
176
1
62
7
420
16777215
176
1
90
0
176
1
90
0
176
1
62
7
176
1
62
257
176
1
90
1
176
1
90
1
176
1
40
1.0
176
1
90
0
176
1
62
7
176
1
40
1.0
176
1
90
1
176
1
90
6
176
1
90
2
176
1
62
7
176
1
90
5
176
1
90
0
176
1
90
0
176
1
290
0
176
1
90
13
176
1
40
0.0
176
1
90
0
176
1
290
0
176
1
290
1
176
1
290
1
176
1
290
0
176
1
290
0
176
1
290
0
176
1
290
0
176
1
290
0
176
1
290
0
176
1
90
50
176
1
40
0.0
176
1
40
1.0
176
1
90
0
176
1
62
18
176
1
90
50
176
1
90
3
176
1
62
5
420
255
176
1
290
0
176
1
90
50
176
1
90
50
176
1
90
50
176
1
290
0
176
1
90
50
176
1
62
256
176
0
40
1.0
176
0
90
2
176
1
1
strokes_ogs.tif
176
1
290
0
176
1
40
1.0
176
1
40
1.0
176
1
1001
ACAD
1000
AcDbSavedByObjectVersion
1070
0
0
VISUALSTYLE
5
23E
102
{ACAD_REACTORS
330
23A
102
}
330
23A
100
AcDbVisualStyle
2
GouraudWithEdges
70
3
177
3
291
1
70
58
90
2
176
1
90
2
176
1
90
1
176
1
90
2
176
1
40
0.6
176
1
40
30.0
176
1
62
7
420
16777215
176
1
90
1
176
1
90
0
176
1
62
7
176
1
62
257
176
1
90
1
176
1
90
1
176
1
40
1.0
176
1
90
0
176
1
62
257
176
1
40
1.0
176
1
90
1
176
1
90
6
176
1
90
2
176
1
62
7
176
1
90
5
176
1
90
0
176
1
90
0
176
1
290
0
176
1
90
13
176
1
40
0.0
176
1
90
0
176
1
290
0
176
1
290
1
176
1
290
1
176
1
290
0
176
1
290
0
176
1
290
0
176
1
290
0
176
1
290
0
176
1
290
0
176
1
90
50
176
1
40
0.0
176
1
40
1.0
176
1
90
0
176
1
62
18
176
1
90
50
176
1
90
3
176
1
62
5
420
255
176
1
290
0
176
1
90
50
176
1
90
50
176
1
90
50
176
1
290
0
176
1
90
50
176
1
62
256
176
0
40
1.0
176
0
90
2
176
1
1
strokes_ogs.tif
176
1
290
0
176
1
40
1.0
176
1
40
1.0
176
1
1001
ACAD
1000
AcDbSavedByObjectVersion
1070
0
0
VISUALSTYLE
5
242
102
{ACAD_REACTORS
330
23A
102
}
330
23A
100
AcDbVisualStyle
2
Hidden
70
6
177
3
291
0
70
58
90
1
176
1
90
2
176
1
90
2
176
1
90
0
176
1
40
0.6
176
1
40
30.0
176
1
62
7
420
16777215
176
1
90
2
176
1
90
2
176
1
62
7
176
1
62
257
176
1
90
2
176
1
90
1
176
1
40
40.0
176
1
90
0
176
1
62
257
176
1
40
1.0
176
1
90
1
176
1
90
6
176
1
90
2
176
1
62
7
176
1
90
3
176
1
90
0
176
1
90
0
176
1
290
0
176
1
90
1
176
1
40
0.0
176
1
90
0
176
1
290
0
176
1
290
1
176
1
290
1
176
1
290
0
176
1
290
0
176
1
290
0
176
1
290
0
176
1
290
0
176
1
290
0
176
1
90
50
176
1
40
0.0
176
1
40
1.0
176
1
90
0
176
1
62
18
176
1
90
50
176
1
90
3
176
1
62
5
420
255
176
1
290
0
176
1
90
50
176
1
90
50
176
1
90
50
176
1
290
0
176
1
90
50
176
1
62
256
176
0
40
1.0
176
0
90
2
176
1
1
strokes_ogs.tif
176
1
290
0
176
1
40
1.0
176
1
40
1.0
176
1
1001
ACAD
1000
AcDbSavedByObjectVersion
1070
0
0
VISUALSTYLE
5
250
102
{ACAD_REACTORS
330
23A
102
}
330
23A
100
AcDbVisualStyle
2
JitterOff
70
20
177
3
291
1
70
58
90
2
176
0
90
2
176
0
90
0
176
0
90
0
176
0
40
0.6
176
0
40
30.0
176
0
62
7
420
16777215
176
0
90
1
176
0
90
4
176
0
62
7
176
0
62
257
176
0
90
1
176
0
90
1
176
0
40
1.0
176
0
90
10
176
2
62
7
176
0
40
1.0
176
0
90
1
176
0
90
6
176
0
90
2
176
0
62
7
176
0
90
5
176
0
90
0
176
0
90
0
176
0
290
0
176
0
90
1
176
0
40
0.0
176
0
90
0
176
0
290
0
176
1
290
1
176
1
290
1
176
1
290
0
176
1
290
0
176
1
290
0
176
1
290
0
176
1
290
0
176
1
290
0
176
1
90
50
176
0
40
0.0
176
0
40
1.0
176
0
90
0
176
0
62
18
176
0
90
50
176
0
90
3
176
0
62
5
420
255
176
0
290
0
176
1
90
50
176
0
90
50
176
0
90
50
176
0
290
0
176
1
90
50
176
0
62
256
176
0
40
1.0
176
0
90
2
176
0
1
strokes_ogs.tif
176
0
290
0
176
1
40
1.0
176
0
40
1.0
176
0
1001
ACAD
1000
AcDbSavedByObjectVersion
1070
0
0
VISUALSTYLE
5
248
102
{ACAD_REACTORS
330
23A
102
}
330
23A
100
AcDbVisualStyle
2
Linepattern
70
14
177
3
291
1
70
58
90
2
176
1
90
2
176
1
90
0
176
1
90
0
176
1
40
0.6
176
1
40
30.0
176
1
62
7
420
16777215
176
1
90
1
176
1
90
4
176
1
62
7
176
1
62
257
176
1
90
7
176
1
90
7
176
1
40
1.0
176
1
90
8
176
1
62
7
176
1
40
1.0
176
1
90
1
176
1
90
6
176
1
90
2
176
1
62
7
176
1
90
5
176
1
90
0
176
1
90
0
176
1
290
0
176
1
90
1
176
1
40
0.0
176
1
90
0
176
1
290
0
176
1
290
1
176
1
290
1
176
1
290
0
176
1
290
0
176
1
290
0
176
1
290
0
176
1
290
0
176
1
290
0
176
1
90
50
176
1
40
0.0
176
1
40
1.0
176
1
90
0
176
1
62
18
176
1
90
50
176
1
90
3
176
1
62
5
420
255
176
1
290
0
176
1
90
50
176
1
90
50
176
1
90
50
176
1
290
0
176
1
90
50
176
1
62
256
176
0
40
1.0
176
0
90
2
176
1
1
strokes_ogs.tif
176
1
290
0
176
1
40
1.0
176
1
40
1.0
176
1
1001
ACAD
1000
AcDbSavedByObjectVersion
1070
0
0
VISUALSTYLE
5
251
102
{ACAD_REACTORS
330
23A
102
}
330
23A
100
AcDbVisualStyle
2
OverhangOff
70
21
177
3
291
1
70
58
90
2
176
0
90
2
176
0
90
0
176
0
90
0
176
0
40
0.6
176
0
40
30.0
176
0
62
7
420
16777215
176
0
90
1
176
0
90
4
176
0
62
7
176
0
62
257
176
0
90
1
176
0
90
1
176
0
40
1.0
176
0
90
9
176
2
62
7
176
0
40
1.0
176
0
90
1
176
0
90
6
176
0
90
2
176
0
62
7
176
0
90
5
176
0
90
0
176
0
90
0
176
0
290
0
176
0
90
1
176
0
40
0.0
176
0
90
0
176
0
290
0
176
1
290
1
176
1
290
1
176
1
290
0
176
1
290
0
176
1
290
0
176
1
290
0
176
1
290
0
176
1
290
0
176
1
90
50
176
0
40
0.0
176
0
40
1.0
176
0
90
0
176
0
62
18
176
0
90
50
176
0
90
3
176
0
62
5
420
255
176
0
290
0
176
1
90
50
176
0
90
50
176
0
90
50
176
0
290
0
176
1
90
50
176
0
62
256
176
0
40
1.0
176
0
90
2
176
0
1
strokes_ogs.tif
176
0
290
0
176
1
40
1.0
176
0
40
1.0
176
0
1001
ACAD
1000
AcDbSavedByObjectVersion
1070
0
0
VISUALSTYLE
5
244
102
{ACAD_REACTORS
330
23A
102
}
330
23A
100
AcDbVisualStyle
2
Realistic
70
8
177
3
291
0
70
58
90
2
176
1
90
3
176
1
90
0
176
1
90
2
176
1
40
0.6
176
1
40
30.0
176
1
62
7
420
16777215
176
1
90
0
176
1
90
0
176
1
62
7
176
1
62
257
176
1
90
1
176
1
90
1
176
1
40
1.0
176
1
90
8
176
1
62
257
176
1
40
1.0
176
1
90
1
176
1
90
6
176
1
90
2
176
1
62
7
176
1
90
3
176
1
90
0
176
1
90
0
176
1
290
0
176
1
90
13
176
1
40
0.0
176
1
90
0
176
1
290
0
176
1
290
1
176
1
290
1
176
1
290
0
176
1
290
0
176
1
290
0
176
1
290
0
176
1
290
0
176
1
290
0
176
1
90
50
176
1
40
0.0
176
1
40
1.0
176
1
90
0
176
1
62
18
176
1
90
50
176
1
90
3
176
1
62
5
420
255
176
1
290
0
176
1
90
50
176
1
90
50
176
1
90
50
176
1
290
0
176
1
90
50
176
1
62
256
176
0
40
1.0
176
0
90
2
176
1
1
strokes_ogs.tif
176
1
290
0
176
1
40
1.0
176
1
40
1.0
176
1
1001
ACAD
1000
AcDbSavedByObjectVersion
1070
0
0
VISUALSTYLE
5
24F
102
{ACAD_REACTORS
330
23A
102
}
330
23A
100
AcDbVisualStyle
2
Shaded
70
27
177
3
291
0
70
58
90
2
176
1
90
2
176
1
90
1
176
1
90
2
176
1
40
0.6
176
1
40
30.0
176
1
62
7
420
16777215
176
1
90
0
176
1
90
4
176
1
62
7
176
1
62
257
176
1
90
1
176
1
90
1
176
1
40
1.0
176
1
90
8
176
1
62
257
176
1
40
1.0
176
1
90
1
176
1
90
6
176
1
90
2
176
1
62
8
420
7895160
176
1
90
3
176
1
90
0
176
1
90
0
176
1
290
0
176
1
90
5
176
1
40
0.0
176
1
90
0
176
1
290
0
176
1
290
1
176
1
290
1
176
1
290
0
176
1
290
0
176
1
290
0
176
1
290
0
176
1
290
0
176
1
290
0
176
1
90
50
176
1
40
0.0
176
1
40
1.0
176
1
90
0
176
1
62
18
176
1
90
50
176
1
90
3
176
1
62
5
420
255
176
1
290
0
176
1
90
50
176
1
90
50
176
1
90
50
176
1
290
0
176
1
90
50
176
1
62
256
176
0
40
1.0
176
0
90
2
176
1
1
strokes_ogs.tif
176
1
290
0
176
1
40
1.0
176
1
40
1.0
176
1
1001
ACAD
1000
AcDbSavedByObjectVersion
1070
0
0
VISUALSTYLE
5
24E
102
{ACAD_REACTORS
330
23A
102
}
330
23A
100
AcDbVisualStyle
2
Shaded with edges
70
26
177
3
291
0
70
58
90
2
176
1
90
2
176
1
90
1
176
1
90
2
176
1
40
0.6
176
1
40
30.0
176
1
62
7
420
16777215
176
1
90
1
176
1
90
10
176
1
62
7
176
1
62
257
176
1
90
2
176
1
90
1
176
1
40
1.0
176
1
90
8
176
1
62
257
176
1
40
1.0
176
1
90
1
176
1
90
6
176
1
90
2
176
1
62
7
176
1
90
3
176
1
90
0
176
1
90
0
176
1
290
0
176
1
90
5
176
1
40
0.0
176
1
90
0
176
1
290
0
176
1
290
1
176
1
290
1
176
1
290
0
176
1
290
0
176
1
290
0
176
1
290
0
176
1
290
0
176
1
290
0
176
1
90
50
176
1
40
0.0
176
1
40
1.0
176
1
90
0
176
1
62
18
176
1
90
50
176
1
90
3
176
1
62
5
420
255
176
1
290
0
176
1
90
50
176
1
90
50
176
1
90
50
176
1
290
0
176
1
90
50
176
1
62
256
176
0
40
1.0
176
0
90
2
176
1
1
strokes_ogs.tif
176
1
290
0
176
1
40
1.0
176
1
40
1.0
176
1
1001
ACAD
1000
AcDbSavedByObjectVersion
1070
0
0
VISUALSTYLE
5
24B
102
{ACAD_REACTORS
330
23A
102
}
330
23A
100
AcDbVisualStyle
2
Shades of Gray
70
23
177
3
291
0
70
58
90
2
176
1
90
2
176
1
90
3
176
1
90
0
176
1
40
0.6
176
1
40
30.0
176
1
62
7
420
16777215
176
1
90
2
176
1
90
2
176
1
62
7
176
1
62
7
176
1
90
1
176
1
90
1
176
1
40
40.0
176
1
90
8
176
1
62
7
176
1
40
1.0
176
1
90
1
176
1
90
6
176
1
90
2
176
1
62
7
176
1
90
3
176
1
90
0
176
1
90
0
176
1
290
0
176
1
90
1
176
1
40
0.0
176
1
90
0
176
1
290
0
176
1
290
1
176
1
290
1
176
1
290
0
176
1
290
0
176
1
290
0
176
1
290
0
176
1
290
0
176
1
290
0
176
1
90
50
176
1
40
0.0
176
1
40
1.0
176
1
90
0
176
1
62
18
176
1
90
50
176
1
90
3
176
1
62
5
420
255
176
1
290
0
176
1
90
50
176
1
90
50
176
1
90
50
176
1
290
0
176
1
90
50
176
1
62
256
176
0
40
1.0
176
0
90
2
176
1
1
strokes_ogs.tif
176
1
290
0
176
1
40
1.0
176
1
40
1.0
176
1
1001
ACAD
1000
AcDbSavedByObjectVersion
1070
0
0
VISUALSTYLE
5
24C
102
{ACAD_REACTORS
330
23A
102
}
330
23A
100
AcDbVisualStyle
2
Sketchy
70
24
177
3
291
0
70
58
90
1
176
1
90
2
176
1
90
2
176
1
90
0
176
1
40
0.6
176
1
40
30.0
176
1
62
7
420
16777215
176
1
90
2
176
1
90
2
176
1
62
7
176
1
62
7
176
1
90
1
176
1
90
1
176
1
40
40.0
176
1
90
11
176
1
62
7
176
1
40
1.0
176
1
90
1
176
1
90
6
176
1
90
2
176
1
62
7
176
1
90
6
176
1
90
0
176
1
90
0
176
1
290
0
176
1
90
1
176
1
40
0.0
176
1
90
0
176
1
290
0
176
1
290
1
176
1
290
1
176
1
290
0
176
1
290
0
176
1
290
0
176
1
290
0
176
1
290
0
176
1
290
0
176
1
90
50
176
1
40
0.0
176
1
40
1.0
176
1
90
0
176
1
62
18
176
1
90
50
176
1
90
3
176
1
62
5
420
255
176
1
290
0
176
1
90
50
176
1
90
50
176
1
90
50
176
1
290
0
176
1
90
50
176
1
62
256
176
0
40
1.0
176
0
90
2
176
1
1
strokes_ogs.tif
176
1
290
0
176
1
40
1.0
176
1
40
1.0
176
1
1001
ACAD
1000
AcDbSavedByObjectVersion
1070
0
0
VISUALSTYLE
5
247
102
{ACAD_REACTORS
330
23A
102
}
330
23A
100
AcDbVisualStyle
2
Thicken
70
13
177
3
291
1
70
58
90
2
176
1
90
2
176
1
90
0
176
1
90
0
176
1
40
0.6
176
1
40
30.0
176
1
62
7
420
16777215
176
1
90
1
176
1
90
4
176
1
62
7
176
1
62
257
176
1
90
1
176
1
90
1
176
1
40
1.0
176
1
90
12
176
1
62
7
176
1
40
1.0
176
1
90
1
176
1
90
6
176
1
90
2
176
1
62
7
176
1
90
5
176
1
90
0
176
1
90
0
176
1
290
0
176
1
90
1
176
1
40
0.0
176
1
90
0
176
1
290
0
176
1
290
1
176
1
290
1
176
1
290
0
176
1
290
0
176
1
290
0
176
1
290
0
176
1
290
0
176
1
290
0
176
1
90
50
176
1
40
0.0
176
1
40
1.0
176
1
90
0
176
1
62
18
176
1
90
50
176
1
90
3
176
1
62
5
420
255
176
1
290
0
176
1
90
50
176
1
90
50
176
1
90
50
176
1
290
0
176
1
90
50
176
1
62
256
176
0
40
1.0
176
0
90
2
176
1
1
strokes_ogs.tif
176
1
290
0
176
1
40
1.0
176
1
40
1.0
176
1
1001
ACAD
1000
AcDbSavedByObjectVersion
1070
0
0
VISUALSTYLE
5
241
102
{ACAD_REACTORS
330
23A
102
}
330
23A
100
AcDbVisualStyle
2
Wireframe
70
5
177
3
291
0
70
58
90
0
176
1
90
2
176
1
90
0
176
1
90
0
176
1
40
0.6
176
1
40
30.0
176
1
62
7
420
16777215
176
1
90
1
176
1
90
4
176
1
62
7
176
1
62
257
176
1
90
1
176
1
90
1
176
1
40
1.0
176
1
90
0
176
1
62
257
176
1
40
1.0
176
1
90
1
176
1
90
6
176
1
90
2
176
1
62
7
176
1
90
3
176
1
90
0
176
1
90
0
176
1
290
0
176
1
90
1
176
1
40
0.0
176
1
90
0
176
1
290
0
176
1
290
1
176
1
290
1
176
1
290
0
176
1
290
0
176
1
290
0
176
1
290
0
176
1
290
0
176
1
290
0
176
1
90
50
176
1
40
0.0
176
1
40
1.0
176
1
90
0
176
1
62
18
176
1
90
50
176
1
90
3
176
1
62
5
420
255
176
1
290
0
176
1
90
50
176
1
90
50
176
1
90
50
176
1
290
0
176
1
90
50
176
1
62
256
176
0
40
1.0
176
0
90
2
176
1
1
strokes_ogs.tif
176
1
290
0
176
1
40
1.0
176
1
40
1.0
176
1
1001
ACAD
1000
AcDbSavedByObjectVersion
1070
0
0
VISUALSTYLE
5
24D
102
{ACAD_REACTORS
330
23A
102
}
330
23A
100
AcDbVisualStyle
2
X-Ray
70
25
177
3
291
0
70
58
90
2
176
1
90
2
176
1
90
1
176
1
90
1
176
1
40
0.5
176
1
40
30.0
176
1
62
7
420
16777215
176
1
90
1
176
1
90
0
176
1
62
7
176
1
62
257
176
1
90
1
176
1
90
1
176
1
40
1.0
176
1
90
8
176
1
62
7
176
1
40
1.0
176
1
90
1
176
1
90
6
176
1
90
2
176
1
62
7
176
1
90
3
176
1
90
0
176
1
90
0
176
1
290
0
176
1
90
13
176
1
40
0.0
176
1
90
0
176
1
290
0
176
1
290
1
176
1
290
1
176
1
290
0
176
1
290
0
176
1
290
0
176
1
290
0
176
1
290
0
176
1
290
0
176
1
90
50
176
1
40
0.0
176
1
40
1.0
176
1
90
0
176
1
62
18
176
1
90
50
176
1
90
3
176
1
62
5
420
255
176
1
290
0
176
1
90
50
176
1
90
50
176
1
90
50
176
1
290
0
176
1
90
50
176
1
62
256
176
0
40
1.0
176
0
90
2
176
1
1
strokes_ogs.tif
176
1
290
0
176
1
40
1.0
176
1
40
1.0
176
1
1001
ACAD
1000
AcDbSavedByObjectVersion
1070
0
0
DICTIONARYVAR
5
2A3
102
{ACAD_REACTORS
330
29D
102
}
330
29D
100
DictionaryVariables
280
0
1
1:1
0
DICTIONARYVAR
5
29F
102
{ACAD_REACTORS
330
29D
102
}
330
29D
100
DictionaryVariables
280
0
1
STANDARD
0
DICTIONARYVAR
5
29E
102
{ACAD_REACTORS
330
29D
102
}
330
29D
100
DictionaryVariables
280
0
1
STANDARD
0
DICTIONARYVAR
5
2A0
102
{ACAD_REACTORS
330
29D
102
}
330
29D
100
DictionaryVariables
280
0
1
Imperial24
0
DICTIONARYVAR
5
2A1
102
{ACAD_REACTORS
330
29D
102
}
330
29D
100
DictionaryVariables
280
0
1
Imperial24
0
DICTIONARYVAR
5
2A5
102
{ACAD_REACTORS
330
29D
102
}
330
29D
100
DictionaryVariables
280
0
1
1
0
DICTIONARYVAR
5
2A6
102
{ACAD_REACTORS
330
29D
102
}
330
29D
100
DictionaryVariables
280
0
1
15
0
DICTIONARYVAR
5
2A4
102
{ACAD_REACTORS
330
29D
102
}
330
29D
100
DictionaryVariables
280
0
1
0
0
DICTIONARYVAR
5
2A2
102
{ACAD_REACTORS
330
29D
102
}
330
29D
100
DictionaryVariables
280
0
1
0
0
DICTIONARY
5
22B
330
22A
100
AcDbDictionary
280
1
281
1
3
BUMPTILE
360
22D
3
DIFFUSETILE
360
22C
3
OPACITYTILE
360
230
3
REFLECTIONTILE
360
22F
3
REFRACTIONTILE
360
231
3
SPECULARTILE
360
22E
0
DICTIONARY
5
223
330
222
100
AcDbDictionary
280
1
281
1
3
BUMPTILE
360
225
3
DIFFUSETILE
360
224
3
OPACITYTILE
360
228
3
REFLECTIONTILE
360
227
3
REFRACTIONTILE
360
229
3
SPECULARTILE
360
226
0
DICTIONARY
5
233
330
232
100
AcDbDictionary
280
1
281
1
3
BUMPTILE
360
235
3
DIFFUSETILE
360
234
3
OPACITYTILE
360
238
3
REFLECTIONTILE
360
237
3
REFRACTIONTILE
360
239
3
SPECULARTILE
360
236
0
DICTIONARY
5
2A7
330
275
100
AcDbDictionary
280
1
281
1
3
ACAD_ROUNDTRIP_2008_TABLESTYLE_CELLSTYLEMAP
360
1056
0
XRECORD
5
22D
102
{ACAD_REACTORS
330
22B
102
}
330
22B
100
AcDbXrecord
280
1
270
1
271
1
0
XRECORD
5
22C
102
{ACAD_REACTORS
330
22B
102
}
330
22B
100
AcDbXrecord
280
1
270
1
271
1
0
XRECORD
5
230
102
{ACAD_REACTORS
330
22B
102
}
330
22B
100
AcDbXrecord
280
1
270
1
271
1
0
XRECORD
5
22F
102
{ACAD_REACTORS
330
22B
102
}
330
22B
100
AcDbXrecord
280
1
270
1
271
1
0
XRECORD
5
231
102
{ACAD_REACTORS
330
22B
102
}
330
22B
100
AcDbXrecord
280
1
270
1
271
1
0
XRECORD
5
22E
102
{ACAD_REACTORS
330
22B
102
}
330
22B
100
AcDbXrecord
280
1
270
1
271
1
0
XRECORD
5
225
102
{ACAD_REACTORS
330
223
102
}
330
223
100
AcDbXrecord
280
1
270
1
271
1
0
XRECORD
5
224
102
{ACAD_REACTORS
330
223
102
}
330
223
100
AcDbXrecord
280
1
270
1
271
1
0
XRECORD
5
228
102
{ACAD_REACTORS
330
223
102
}
330
223
100
AcDbXrecord
280
1
270
1
271
1
0
XRECORD
5
227
102
{ACAD_REACTORS
330
223
102
}
330
223
100
AcDbXrecord
280
1
270
1
271
1
0
XRECORD
5
229
102
{ACAD_REACTORS
330
223
102
}
330
223
100
AcDbXrecord
280
1
270
1
271
1
0
XRECORD
5
226
102
{ACAD_REACTORS
330
223
102
}
330
223
100
AcDbXrecord
280
1
270
1
271
1
0
XRECORD
5
235
102
{ACAD_REACTORS
330
233
102
}
330
233
100
AcDbXrecord
280
1
270
1
271
1
0
XRECORD
5
234
102
{ACAD_REACTORS
330
233
102
}
330
233
100
AcDbXrecord
280
1
270
1
271
1
0
XRECORD
5
238
102
{ACAD_REACTORS
330
233
102
}
330
233
100
AcDbXrecord
280
1
270
1
271
1
0
XRECORD
5
237
102
{ACAD_REACTORS
330
233
102
}
330
233
100
AcDbXrecord
280
1
270
1
271
1
0
XRECORD
5
239
102
{ACAD_REACTORS
330
233
102
}
330
233
100
AcDbXrecord
280
1
270
1
271
1
0
XRECORD
5
236
102
{ACAD_REACTORS
330
233
102
}
330
233
100
AcDbXrecord
280
1
270
1
271
1
0
CELLSTYLEMAP
5
1056
102
{ACAD_REACTORS
330
2A7
102
}
330
2A7
100
AcDbCellStyleMap
90
3
300
CELLSTYLE
1
TABLEFORMAT_BEGIN
90
5
170
1
91
0
92
32768
62
257
93
1
300
CONTENTFORMAT
1
CONTENTFORMAT_BEGIN
90
0
91
0
92
512
93
0
300

40
0.0
140
1.0
94
5
62
0
340
266
144
0.25
309
CONTENTFORMAT_END
171
1
301
MARGIN
1
CELLMARGIN_BEGIN
40
0.06
40
0.06
40
0.06
40
0.06
40
0.18
40
0.18
309
CELLMARGIN_END
94
6
95
1
302
GRIDFORMAT
1
GRIDFORMAT_BEGIN
90
0
91
1
62
0
92
-2
340
0
93
0
40
0.045
309
GRIDFORMAT_END
95
2
302
GRIDFORMAT
1
GRIDFORMAT_BEGIN
90
0
91
1
62
0
92
-2
340
0
93
0
40
0.045
309
GRIDFORMAT_END
95
4
302
GRIDFORMAT
1
GRIDFORMAT_BEGIN
90
0
91
1
62
0
92
-2
340
0
93
0
40
0.045
309
GRIDFORMAT_END
95
8
302
GRIDFORMAT
1
GRIDFORMAT_BEGIN
90
0
91
1
62
0
92
-2
340
0
93
0
40
0.045
309
GRIDFORMAT_END
95
16
302
GRIDFORMAT
1
GRIDFORMAT_BEGIN
90
0
91
1
62
0
92
-2
340
0
93
0
40
0.045
309
GRIDFORMAT_END
95
32
302
GRIDFORMAT
1
GRIDFORMAT_BEGIN
90
0
91
1
62
0
92
-2
340
0
93
0
40
0.045
309
GRIDFORMAT_END
309
TABLEFORMAT_END
1
CELLSTYLE_BEGIN
90
1
91
1
300
_TITLE
309
CELLSTYLE_END
300
CELLSTYLE
1
TABLEFORMAT_BEGIN
90
5
170
1
91
0
92
0
62
257
93
1
300
CONTENTFORMAT
1
CONTENTFORMAT_BEGIN
90
0
91
0
92
512
93
0
300

40
0.0
140
1.0
94
5
62
0
340
266
144
0.18
309
CONTENTFORMAT_END
171
1
301
MARGIN
1
CELLMARGIN_BEGIN
40
0.06
40
0.06
40
0.06
40
0.06
40
0.18
40
0.18
309
CELLMARGIN_END
94
6
95
1
302
GRIDFORMAT
1
GRIDFORMAT_BEGIN
90
0
91
1
62
0
92
-2
340
0
93
0
40
0.045
309
GRIDFORMAT_END
95
2
302
GRIDFORMAT
1
GRIDFORMAT_BEGIN
90
0
91
1
62
0
92
-2
340
0
93
0
40
0.045
309
GRIDFORMAT_END
95
4
302
GRIDFORMAT
1
GRIDFORMAT_BEGIN
90
0
91
1
62
0
92
-2
340
0
93
0
40
0.045
309
GRIDFORMAT_END
95
8
302
GRIDFORMAT
1
GRIDFORMAT_BEGIN
90
0
91
1
62
0
92
-2
340
0
93
0
40
0.045
309
GRIDFORMAT_END
95
16
302
GRIDFORMAT
1
GRIDFORMAT_BEGIN
90
0
91
1
62
0
92
-2
340
0
93
0
40
0.045
309
GRIDFORMAT_END
95
32
302
GRIDFORMAT
1
GRIDFORMAT_BEGIN
90
0
91
1
62
0
92
-2
340
0
93
0
40
0.045
309
GRIDFORMAT_END
309
TABLEFORMAT_END
1
CELLSTYLE_BEGIN
90
2
91
1
300
_HEADER
309
CELLSTYLE_END
300
CELLSTYLE
1
TABLEFORMAT_BEGIN
90
5
170
1
91
0
92
0
62
257
93
1
300
CONTENTFORMAT
1
CONTENTFORMAT_BEGIN
90
0
91
0
92
512
93
0
300

40
0.0
140
1.0
94
2
62
0
340
266
144
0.18
309
CONTENTFORMAT_END
171
1
301
MARGIN
1
CELLMARGIN_BEGIN
40
0.06
40
0.06
40
0.06
40
0.06
40
0.18
40
0.18
309
CELLMARGIN_END
94
6
95
1
302
GRIDFORMAT
1
GRIDFORMAT_BEGIN
90
0
91
1
62
0
92
-2
340
0
93
0
40
0.045
309
GRIDFORMAT_END
95
2
302
GRIDFORMAT
1
GRIDFORMAT_BEGIN
90
0
91
1
62
0
92
-2
340
0
93
0
40
0.045
309
GRIDFORMAT_END
95
4
302
GRIDFORMAT
1
GRIDFORMAT_BEGIN
90
0
91
1
62
0
92
-2
340
0
93
0
40
0.045
309
GRIDFORMAT_END
95
8
302
GRIDFORMAT
1
GRIDFORMAT_BEGIN
90
0
91
1
62
0
92
-2
340
0
93
0
40
0.045
309
GRIDFORMAT_END
95
16
302
GRIDFORMAT
1
GRIDFORMAT_BEGIN
90
0
91
1
62
0
92
-2
340
0
93
0
40
0.045
309
GRIDFORMAT_END
95
32
302
GRIDFORMAT
1
GRIDFORMAT_BEGIN
90
0
91
1
62
0
92
-2
340
0
93
0
40
0.045
309
GRIDFORMAT_END
309
TABLEFORMAT_END
1
CELLSTYLE_BEGIN
90
3
91
2
300
_DATA
309
CELLSTYLE_END
0
ENDSEC
0
SECTION
2
ACDSDATA
70
2
71
2
0
ACDSSCHEMA
90
0
1
AcDb_Thumbnail_Schema
2
AcDbDs::ID
280
10
91
8
2
Thumbnail_Data
280
15
91
0
101
ACDSRECORD
95
0
90
1
2
AcDbDs::TreatedAsObjectData
280
1
291
1
101
ACDSRECORD
95
0
90
2
2
AcDbDs::Legacy
280
1
291
1
101
ACDSRECORD
1
AcDbDs::ID
90
3
2
AcDs:Indexable
280
1
291
1
101
ACDSRECORD
1
AcDbDs::ID
90
4
2
AcDbDs::HandleAttribute
280
7
282
1
0
ACDSSCHEMA
90
1
1
AcDbDs::TreatedAsObjectDataSchema
2
AcDbDs::TreatedAsObjectData
280
1
91
0
0
ACDSSCHEMA
90
2
1
AcDbDs::LegacySchema
2
AcDbDs::Legacy
280
1
91
0
0
ACDSSCHEMA
90
3
1
AcDbDs::IndexedPropertySchema
2
AcDs:Indexable
280
1
91
0
0
ACDSSCHEMA
90
4
1
AcDbDs::HandleAttributeSchema
2
AcDbDs::HandleAttribute
280
7
91
1
284
1
0
ACDSRECORD
90
0
2
AcDbDs::ID
280
10
320
284
2
Thumbnail_Data
280
15
94
1130
310
89504E470D0A1A0A0000000D4948445200000100000000BB0803000000BDD6B05600000300504C54452128300000000000000000000000000000000000000000000000000000000000000000330000660000990000CC0000FF0033000033330033660033990033CC0033FF0066000066330066660066990066CC0066FF0099
310
000099330099660099990099CC0099FF00CC0000CC3300CC6600CC9900CCCC00CCFF00FF0000FF3300FF6600FF9900FFCC00FFFF3300003300333300663300993300CC3300FF3333003333333333663333993333CC3333FF3366003366333366663366993366CC3366FF3399003399333399663399993399CC3399FF33CC00
310
33CC3333CC6633CC9933CCCC33CCFF33FF0033FF3333FF6633FF9933FFCC33FFFF6600006600336600666600996600CC6600FF6633006633336633666633996633CC6633FF6666006666336666666666996666CC6666FF6699006699336699666699996699CC6699FF66CC0066CC3366CC6666CC9966CCCC66CCFF66FF0066
310
FF3366FF6666FF9966FFCC66FFFF9900009900339900669900999900CC9900FF9933009933339933669933999933CC9933FF9966009966339966669966999966CC9966FF9999009999339999669999999999CC9999FF99CC0099CC3399CC6699CC9999CCCC99CCFF99FF0099FF3399FF6699FF9999FFCC99FFFFCC0000CC00
310
33CC0066CC0099CC00CCCC00FFCC3300CC3333CC3366CC3399CC33CCCC33FFCC6600CC6633CC6666CC6699CC66CCCC66FFCC9900CC9933CC9966CC9999CC99CCCC99FFCCCC00CCCC33CCCC66CCCC99CCCCCCCCCCFFCCFF00CCFF33CCFF66CCFF99CCFFCCCCFFFFFF0000FF0033FF0066FF0099FF00CCFF00FFFF3300FF3333
310
FF3366FF3399FF33CCFF33FFFF6600FF6633FF6666FF6699FF66CCFF66FFFF9900FF9933FF9966FF9999FF99CCFF99FFFFCC00FFCC33FFCC66FFCC99FFCCCCFFCCFFFFFF00FFFF33FFFF66FFFF99FFFFCCFFFFFF0000000D0D0D1A1A1A2828283535354343435050505D5D5D6B6B6B787878868686939393A1A1A1AEAEAEBB
310
BBBBC9C9C9D6D6D6E4E4E4F1F1F1FFFFFF000000000000000000000000000000000000000000000000000000000000544354A80000004549444154789CEDC13101000000C2A0F54F6D094FA000000000000000000000000000000000000000000000000000000000000000000000000000000000000000000000E062BBBB00
310
01006808E50000000049454E44AE4260824BBACA0DB465ABDB4063B2B20534072BDA4047AC9A0DF4A42AD9407A015D99E20BA8D8407A019D89143066171752C0D0E513E84D54AE01050C5E7F7B0A18BA7C020A18BA7C02F105C4FF0C2920FE4024FE484C01F1C7E2F11723AEC65C8EBA1E372071982F7D48A87EFCC5989C41
310
49A3B22F9BB861E9DF3E73F299D3F25FC9D901000000000000000000000000000000000000000000E0344F3123803F1ED9B2780000000049454E44AE426082FADAD667F149BFC5000000000000000000000000000000000000000070A90F51C3A687E5D1137C0000000049454E44AE426082
0
ENDSEC
0
EOF
